G04 #@! TF.GenerationSoftware,KiCad,Pcbnew,5.0.0*
G04 #@! TF.CreationDate,2018-08-20T15:34:41-04:00*
G04 #@! TF.ProjectId,dvk-mx8m-bsb,64766B2D6D78386D2D6273622E6B6963,v0.1.0*
G04 #@! TF.SameCoordinates,Original*
G04 #@! TF.FileFunction,Copper,L3,Inr,Signal*
G04 #@! TF.FilePolarity,Positive*
%FSLAX46Y46*%
G04 Gerber Fmt 4.6, Leading zero omitted, Abs format (unit mm)*
G04 Created by KiCad (PCBNEW 5.0.0) date Mon Aug 20 15:34:41 2018*
%MOMM*%
%LPD*%
G01*
G04 APERTURE LIST*
G04 #@! TA.AperFunction,NonConductor*
%ADD10C,0.130000*%
G04 #@! TD*
G04 #@! TA.AperFunction,NonConductor*
%ADD11C,0.150000*%
G04 #@! TD*
G04 #@! TA.AperFunction,EtchedComponent*
%ADD12C,0.150000*%
G04 #@! TD*
G04 #@! TA.AperFunction,ViaPad*
%ADD13C,0.300000*%
G04 #@! TD*
G04 #@! TA.AperFunction,ViaPad*
%ADD14C,0.200000*%
G04 #@! TD*
G04 #@! TA.AperFunction,ViaPad*
%ADD15C,0.254000*%
G04 #@! TD*
G04 #@! TA.AperFunction,ViaPad*
%ADD16C,6.000000*%
G04 #@! TD*
G04 #@! TA.AperFunction,ViaPad*
%ADD17C,1.600000*%
G04 #@! TD*
G04 #@! TA.AperFunction,ViaPad*
%ADD18C,3.500000*%
G04 #@! TD*
G04 #@! TA.AperFunction,ViaPad*
%ADD19O,1.250000X2.000000*%
G04 #@! TD*
G04 #@! TA.AperFunction,ViaPad*
%ADD20O,0.800000X1.400000*%
G04 #@! TD*
G04 #@! TA.AperFunction,ViaPad*
%ADD21O,3.000000X5.000000*%
G04 #@! TD*
G04 #@! TA.AperFunction,ViaPad*
%ADD22O,1.350000X1.350000*%
G04 #@! TD*
G04 #@! TA.AperFunction,ViaPad*
%ADD23R,1.350000X1.350000*%
G04 #@! TD*
G04 #@! TA.AperFunction,ViaPad*
%ADD24C,1.350000*%
G04 #@! TD*
G04 #@! TA.AperFunction,Conductor*
%ADD25C,1.350000*%
G04 #@! TD*
G04 #@! TA.AperFunction,Conductor*
%ADD26C,0.100000*%
G04 #@! TD*
G04 #@! TA.AperFunction,ViaPad*
%ADD27C,5.000000*%
G04 #@! TD*
G04 #@! TA.AperFunction,ViaPad*
%ADD28O,1.700000X1.700000*%
G04 #@! TD*
G04 #@! TA.AperFunction,ViaPad*
%ADD29R,1.700000X1.700000*%
G04 #@! TD*
G04 #@! TA.AperFunction,ViaPad*
%ADD30C,1.550000*%
G04 #@! TD*
G04 #@! TA.AperFunction,ViaPad*
%ADD31C,1.400000*%
G04 #@! TD*
G04 #@! TA.AperFunction,ViaPad*
%ADD32C,2.400000*%
G04 #@! TD*
G04 #@! TA.AperFunction,ViaPad*
%ADD33C,1.530000*%
G04 #@! TD*
G04 #@! TA.AperFunction,ViaPad*
%ADD34C,6.500000*%
G04 #@! TD*
G04 #@! TA.AperFunction,ViaPad*
%ADD35C,1.000000*%
G04 #@! TD*
G04 #@! TA.AperFunction,ViaPad*
%ADD36R,1.000000X1.000000*%
G04 #@! TD*
G04 #@! TA.AperFunction,ViaPad*
%ADD37C,0.230000*%
G04 #@! TD*
G04 #@! TA.AperFunction,ViaPad*
%ADD38C,0.457200*%
G04 #@! TD*
G04 #@! TA.AperFunction,ViaPad*
%ADD39C,0.508000*%
G04 #@! TD*
G04 #@! TA.AperFunction,Conductor*
%ADD40C,0.134620*%
G04 #@! TD*
G04 #@! TA.AperFunction,Conductor*
%ADD41C,0.457200*%
G04 #@! TD*
G04 #@! TA.AperFunction,Conductor*
%ADD42C,0.254000*%
G04 #@! TD*
G04 #@! TA.AperFunction,Conductor*
%ADD43C,0.127000*%
G04 #@! TD*
G04 #@! TA.AperFunction,Conductor*
%ADD44C,0.203200*%
G04 #@! TD*
G04 #@! TA.AperFunction,Conductor*
%ADD45C,0.106934*%
G04 #@! TD*
G04 #@! TA.AperFunction,Conductor*
%ADD46C,0.089154*%
G04 #@! TD*
G04 APERTURE END LIST*
D10*
X82558333Y-93804761D02*
X83146428Y-93804761D01*
X82829761Y-94166666D01*
X82965476Y-94166666D01*
X83055952Y-94211904D01*
X83101190Y-94257142D01*
X83146428Y-94347619D01*
X83146428Y-94573809D01*
X83101190Y-94664285D01*
X83055952Y-94709523D01*
X82965476Y-94754761D01*
X82694047Y-94754761D01*
X82603571Y-94709523D01*
X82558333Y-94664285D01*
D11*
X150000000Y-232800000D02*
X150000000Y-64200000D01*
X119150000Y-58500000D02*
X144300000Y-58500000D01*
X119150000Y-61200000D02*
X119150000Y-58500000D01*
X116850000Y-61200000D02*
X119150000Y-61200000D01*
X116850000Y-58500000D02*
X116850000Y-61200000D01*
X144300000Y-238500000D02*
G75*
G03X150000000Y-232800000I0J5700000D01*
G01*
X65700000Y-238500000D02*
X144300000Y-238500000D01*
X150000000Y-64200000D02*
G75*
G03X144300000Y-58500000I-5700000J0D01*
G01*
X116850000Y-58500000D02*
X60000000Y-58500000D01*
X60000000Y-58500000D02*
X60000000Y-232800000D01*
X60000000Y-232800000D02*
G75*
G03X65700000Y-238500000I5700000J0D01*
G01*
D12*
G04 #@! TO.C,LS1601*
X106025000Y-60690000D02*
X92800000Y-60690000D01*
X91375000Y-69365000D02*
X91375000Y-62115000D01*
X106025000Y-70790000D02*
X92800000Y-70790000D01*
X106025000Y-70790000D02*
X106025000Y-60690000D01*
X91375000Y-69365000D02*
X92800000Y-70790000D01*
X92800000Y-60690000D02*
X91375000Y-62115000D01*
G04 #@! TO.C,J1803*
X117500000Y-108640000D02*
G75*
G03X116500000Y-109640000I-500000J-500000D01*
G01*
X137500000Y-113450000D02*
X137500000Y-109640000D01*
X136500000Y-108640000D02*
X117500000Y-108640000D01*
X116500000Y-109640000D02*
X116500000Y-113450000D01*
X116500000Y-113450000D02*
X137500000Y-113450000D01*
X136500000Y-108640000D02*
G75*
G02X137500000Y-109640000I500000J-500000D01*
G01*
G04 #@! TD*
D13*
G04 #@! TO.N,GND*
G04 #@! TO.C,U1701*
X120000000Y-208700000D03*
X120000000Y-209700000D03*
X119000000Y-209700000D03*
X118000000Y-209700000D03*
X118000000Y-210700000D03*
X119000000Y-210700000D03*
X120000000Y-210700000D03*
X121000000Y-210700000D03*
X121000000Y-209700000D03*
X121000000Y-208700000D03*
X121000000Y-207700000D03*
X120000000Y-207700000D03*
X119000000Y-207700000D03*
X118000000Y-207700000D03*
X118000000Y-208700000D03*
X119000000Y-208700000D03*
G04 #@! TD*
D14*
G04 #@! TO.N,GND*
G04 #@! TO.C,U202*
X95750000Y-215585000D03*
X95750000Y-214685000D03*
G04 #@! TD*
D15*
G04 #@! TO.N,GND*
G04 #@! TO.C,U201*
X82400000Y-131840000D03*
X81800000Y-131440000D03*
G04 #@! TD*
D13*
G04 #@! TO.N,GND*
G04 #@! TO.C,U405*
X126097000Y-158926000D03*
G04 #@! TD*
G04 #@! TO.N,GND*
G04 #@! TO.C,U404*
X107000000Y-123500000D03*
G04 #@! TD*
G04 #@! TO.N,GND*
G04 #@! TO.C,U301*
X106550000Y-173900000D03*
X106550000Y-173000000D03*
X106550000Y-172100000D03*
X107450000Y-172100000D03*
X107450000Y-173000000D03*
X107450000Y-173900000D03*
X105650000Y-173900000D03*
X105650000Y-173000000D03*
X105650000Y-172100000D03*
G04 #@! TD*
D16*
G04 #@! TO.N,GND*
G04 #@! TO.C,MOD101*
X68200000Y-123500000D03*
X68200000Y-175300000D03*
X141800000Y-121700000D03*
X141800000Y-175300000D03*
G04 #@! TD*
D17*
G04 #@! TO.N,Net-(C1624-Pad1)*
G04 #@! TO.C,J1601*
X132700000Y-228575000D03*
G04 #@! TO.N,/HP_DET*
X135900000Y-228575000D03*
G04 #@! TO.N,Net-(C1621-Pad1)*
X137900000Y-231675000D03*
G04 #@! TO.N,GND*
X138800000Y-236675000D03*
G04 #@! TO.N,Net-(J1601-Pad1)*
X129500000Y-236675000D03*
G04 #@! TD*
D18*
G04 #@! TO.N,GND*
G04 #@! TO.C,MNT102*
X147000000Y-66750000D03*
G04 #@! TD*
G04 #@! TO.N,GND*
G04 #@! TO.C,MNT101*
X65400000Y-233100000D03*
G04 #@! TD*
G04 #@! TO.N,GND*
G04 #@! TO.C,MNT103*
X144600000Y-233100000D03*
G04 #@! TD*
D19*
G04 #@! TO.N,Net-(C1905-Pad1)*
G04 #@! TO.C,J1901*
X97575000Y-236625000D03*
X108425000Y-236625000D03*
X108425000Y-232125000D03*
X97575000Y-232125000D03*
G04 #@! TD*
D20*
G04 #@! TO.N,Net-(C216-Pad2)*
G04 #@! TO.C,J201*
X95290000Y-236100000D03*
X86670000Y-230150000D03*
X86310000Y-236100000D03*
X94930000Y-230150000D03*
G04 #@! TD*
D21*
G04 #@! TO.N,Net-(BT301-Pad1)*
G04 #@! TO.C,BT301*
X140700000Y-190500000D03*
G04 #@! TO.N,GND*
X69300000Y-190500000D03*
G04 #@! TD*
D22*
G04 #@! TO.N,1V8_P*
G04 #@! TO.C,JP404*
X90525000Y-135300000D03*
D23*
X92525000Y-135300000D03*
G04 #@! TD*
D13*
G04 #@! TO.N,GND*
G04 #@! TO.C,U407*
X124200000Y-177150000D03*
X124200000Y-176350000D03*
G04 #@! TD*
G04 #@! TO.N,GND*
G04 #@! TO.C,U402*
X121025000Y-153075000D03*
G04 #@! TD*
D24*
G04 #@! TO.N,5V_SOM*
G04 #@! TO.C,JP402*
X132489949Y-133510051D03*
D25*
X132489949Y-133510051D02*
X132489949Y-133510051D01*
D24*
X131075735Y-134924265D03*
D26*
G36*
X130121141Y-134924265D02*
X131075735Y-133969671D01*
X132030329Y-134924265D01*
X131075735Y-135878859D01*
X130121141Y-134924265D01*
X130121141Y-134924265D01*
G37*
G04 #@! TD*
D22*
G04 #@! TO.N,5V_P*
G04 #@! TO.C,JP403*
X122920000Y-167660000D03*
D23*
X122920000Y-165660000D03*
G04 #@! TD*
D13*
G04 #@! TO.N,GND*
G04 #@! TO.C,U2201*
X75300000Y-199700000D03*
X74100000Y-199700000D03*
X72900000Y-199700000D03*
X72900000Y-198500000D03*
X72900000Y-197300000D03*
X74100000Y-197300000D03*
X75300000Y-197300000D03*
X74100000Y-198500000D03*
X75300000Y-198500000D03*
G04 #@! TD*
D27*
G04 #@! TO.N,GND*
G04 #@! TO.C,MOD1501*
X80350000Y-62300000D03*
G04 #@! TD*
D28*
G04 #@! TO.N,VBAT_REG*
G04 #@! TO.C,JP301*
X106545500Y-159750000D03*
D29*
X104005500Y-159750000D03*
G04 #@! TD*
D30*
G04 #@! TO.N,Net-(MK1601-Pad2)*
G04 #@! TO.C,MK1601*
X105100000Y-224591000D03*
G04 #@! TO.N,GND*
X107000000Y-224591000D03*
G04 #@! TD*
D31*
G04 #@! TO.N,/Ethernet/ETH_TRX3_N*
G04 #@! TO.C,J1701*
X123245000Y-218810000D03*
G04 #@! TO.N,GND*
X124515000Y-221350000D03*
D32*
G04 #@! TO.N,Net-(FB1703-Pad1)*
X126590000Y-224650000D03*
X111005000Y-224650000D03*
D33*
G04 #@! TO.N,GND*
X125435000Y-231770000D03*
X114705000Y-231770000D03*
G04 #@! TO.N,Net-(J1701-Pad11)*
X112165000Y-231770000D03*
G04 #@! TO.N,Net-(J1701-Pad13)*
X122895000Y-231770000D03*
D31*
G04 #@! TO.N,/Ethernet/ETH_TRX3_P*
X121975000Y-221350000D03*
G04 #@! TO.N,/Ethernet/ETH_TRX2_N*
X119435000Y-221350000D03*
G04 #@! TO.N,/Ethernet/ETH_TRX1_N*
X120705000Y-218810000D03*
G04 #@! TO.N,/Ethernet/ETH_TRX2_P*
X118165000Y-218810000D03*
G04 #@! TO.N,/Ethernet/ETH_TRX1_P*
X116895000Y-221350000D03*
G04 #@! TO.N,/Ethernet/ETH_TRX0_N*
X115625000Y-218810000D03*
G04 #@! TO.N,/Ethernet/ETH_TRX0_P*
X114355000Y-221350000D03*
G04 #@! TO.N,Net-(C1719-Pad1)*
X113085000Y-218810000D03*
G04 #@! TD*
D34*
G04 #@! TO.N,GND*
G04 #@! TO.C,MOD1801*
X127000000Y-81840000D03*
G04 #@! TD*
D13*
G04 #@! TO.N,GND*
G04 #@! TO.C,U401*
X109640000Y-136245000D03*
X109640000Y-134645000D03*
X108040000Y-134645000D03*
X108040000Y-136245000D03*
X108840000Y-135445000D03*
G04 #@! TD*
D35*
G04 #@! TO.N,Net-(C2401-Pad1)*
G04 #@! TO.C,J2401*
X65025000Y-185700000D03*
D36*
G04 #@! TO.N,GND*
X63775000Y-185700000D03*
G04 #@! TD*
D37*
G04 #@! TO.N,GND*
G04 #@! TO.C,U1601*
X134600000Y-209200000D03*
X134100000Y-208700000D03*
X135100000Y-208700000D03*
X135100000Y-209700000D03*
X134100000Y-209700000D03*
G04 #@! TD*
D28*
G04 #@! TO.N,Net-(J701-Pad6)*
G04 #@! TO.C,J701*
X62200000Y-123500000D03*
G04 #@! TO.N,/UART Debug/TX->RX*
X62200000Y-126040000D03*
G04 #@! TO.N,/UART Debug/RX<-TX*
X62200000Y-128580000D03*
G04 #@! TO.N,Net-(J701-Pad3)*
X62200000Y-131120000D03*
G04 #@! TO.N,Net-(J701-Pad2)*
X62200000Y-133660000D03*
D29*
G04 #@! TO.N,GND*
X62200000Y-136200000D03*
G04 #@! TD*
D22*
G04 #@! TO.N,3V3*
G04 #@! TO.C,JP401*
X111620000Y-121200000D03*
D23*
X113620000Y-121200000D03*
G04 #@! TD*
D22*
G04 #@! TO.N,3V3_P*
G04 #@! TO.C,JP1801*
X117600000Y-121400000D03*
D23*
X117600000Y-123400000D03*
G04 #@! TD*
D38*
G04 #@! TO.N,GND*
X127700000Y-129000000D03*
X101360000Y-168028500D03*
D39*
X106487500Y-190500000D03*
X79962500Y-128015000D03*
X86345000Y-132769500D03*
X89950000Y-224200000D03*
X93986000Y-224239277D03*
X91950000Y-224200000D03*
X103600000Y-167362500D03*
X104950000Y-167362500D03*
X102870000Y-168062500D03*
X107955000Y-177787500D03*
X110600000Y-170920000D03*
X110600000Y-170245000D03*
X111275000Y-170650000D03*
X109925000Y-170650000D03*
X81700000Y-231265000D03*
X81700000Y-228365000D03*
X81700000Y-226915000D03*
X81700000Y-229815000D03*
X91800000Y-197798000D03*
X96087500Y-202475000D03*
X93550000Y-227390000D03*
X88050000Y-227390000D03*
X93425000Y-229090000D03*
X87925000Y-229090000D03*
X90937500Y-220410000D03*
X113000000Y-205215000D03*
X97412500Y-180150000D03*
X75532500Y-132345000D03*
X91290000Y-217635000D03*
X91290000Y-219060000D03*
X91290000Y-212635000D03*
X100210000Y-217235000D03*
X100210000Y-213035000D03*
X95735000Y-205410000D03*
X96001000Y-203825000D03*
X103777500Y-176200000D03*
X104915000Y-177750000D03*
X100010000Y-157971500D03*
X101360000Y-157971500D03*
X114687000Y-168187000D03*
X114337000Y-158667000D03*
X112165000Y-211650000D03*
X127985000Y-207100000D03*
X71890000Y-131500000D03*
X75532500Y-130995000D03*
X113930000Y-75110000D03*
X129900000Y-226500000D03*
X135240000Y-223960000D03*
X134900000Y-219400000D03*
X130400000Y-219600000D03*
X132385000Y-213500000D03*
X137715000Y-213500000D03*
X137500000Y-209175000D03*
X137325000Y-206325000D03*
X143275000Y-209700000D03*
X146700000Y-214100000D03*
X136300000Y-76175000D03*
X130075000Y-72200000D03*
X133325000Y-72200000D03*
X141900000Y-79810800D03*
X138900000Y-79810800D03*
X133710800Y-69600000D03*
X133710800Y-66600000D03*
X81250000Y-144420000D03*
X74900000Y-153435000D03*
X76920000Y-202500000D03*
X79720000Y-199700000D03*
X89350000Y-204000000D03*
X85600000Y-213485000D03*
X73365000Y-164100000D03*
X107300000Y-228930000D03*
X83325000Y-237725000D03*
X78425000Y-237075000D03*
X74425000Y-236932200D03*
X82100000Y-223000000D03*
X71209261Y-236548320D03*
X69100000Y-199800000D03*
X63600000Y-219700000D03*
X63600000Y-203400000D03*
X121800000Y-202900000D03*
X136300000Y-79425000D03*
X131700000Y-73800000D03*
X134700000Y-77800000D03*
X128700000Y-71600000D03*
X127400000Y-71000000D03*
X128900000Y-72900000D03*
X127700000Y-72000000D03*
X126000000Y-71000000D03*
X124600000Y-71000000D03*
X126425000Y-72000000D03*
X125150000Y-72000000D03*
X139550000Y-69725000D03*
X138050000Y-69725000D03*
X136550000Y-69725000D03*
X141050000Y-69725000D03*
X142550000Y-69725000D03*
X144050000Y-69725000D03*
X146300000Y-68975000D03*
X145300000Y-69475000D03*
X130250000Y-73500000D03*
X133150000Y-73500000D03*
X135700000Y-70600000D03*
X134700000Y-71600000D03*
X137400000Y-70800000D03*
X136650000Y-73050000D03*
X134500000Y-72900000D03*
X136900000Y-74800000D03*
X137400000Y-73800000D03*
X137400000Y-72300000D03*
X136650000Y-71550000D03*
X135800000Y-72300000D03*
X135650000Y-74050000D03*
X135450000Y-75150000D03*
X137550000Y-82075000D03*
X136900000Y-80800000D03*
X137550000Y-83575000D03*
X137550000Y-85075000D03*
X137550000Y-86575000D03*
X137550000Y-88075000D03*
X137550000Y-89575000D03*
X137550000Y-91075000D03*
X139000000Y-91175000D03*
X140500000Y-91175000D03*
X142000000Y-91175000D03*
X143500000Y-91175000D03*
X143500000Y-92425000D03*
X143500000Y-93675000D03*
X143500000Y-94925000D03*
X143500000Y-96175000D03*
X144700000Y-96175000D03*
X145900000Y-96175000D03*
X147100000Y-96175000D03*
X148300000Y-96175000D03*
X149500000Y-96175000D03*
X136500000Y-87325000D03*
X136500000Y-90325000D03*
X136500000Y-88825000D03*
X136500000Y-85825000D03*
X136500000Y-91825000D03*
X136500000Y-82825000D03*
X136500000Y-84325000D03*
X138275000Y-92225000D03*
X139775000Y-92225000D03*
X141275000Y-92225000D03*
X142400000Y-93050000D03*
X142600000Y-91950000D03*
X142400000Y-94300000D03*
X142400000Y-95550000D03*
X136500000Y-81775000D03*
X135000000Y-76350000D03*
X135000000Y-79250000D03*
X135525000Y-80650000D03*
X124600000Y-73000000D03*
X132450000Y-74800000D03*
X130950000Y-74800000D03*
X133675000Y-77050000D03*
X133675000Y-78550000D03*
X118449164Y-202107627D03*
X145600000Y-219700000D03*
X142700000Y-220000000D03*
X138900000Y-227300000D03*
X140202007Y-219367985D03*
X125800000Y-72900000D03*
X124600000Y-74500000D03*
X123200000Y-74500000D03*
X121800000Y-74500000D03*
X120400000Y-74500000D03*
X119000000Y-74500000D03*
X119000000Y-76000000D03*
X117500000Y-76000000D03*
X116000000Y-76000000D03*
X114500000Y-76000000D03*
X112250000Y-75250000D03*
X113000000Y-74500000D03*
X111500000Y-74500000D03*
X110000000Y-74500000D03*
X108500000Y-74500000D03*
X106800000Y-73100000D03*
X106800000Y-71600000D03*
X106800000Y-70100000D03*
X106800000Y-68600000D03*
X106800000Y-67100000D03*
X106800000Y-64100000D03*
X106800000Y-65600000D03*
X106800000Y-62600000D03*
X106800000Y-61100000D03*
X106800000Y-59600000D03*
X113000000Y-76000000D03*
X110750000Y-75250000D03*
X109250000Y-75250000D03*
X107750000Y-75250000D03*
X118250000Y-77000000D03*
X115250000Y-77000000D03*
X113750000Y-77000000D03*
X116750000Y-77000000D03*
X119700000Y-75200000D03*
X121100000Y-75200000D03*
X122500000Y-75200000D03*
X123900000Y-75200000D03*
X125500000Y-73900000D03*
X107000000Y-74500000D03*
X101240000Y-227500000D03*
X107200000Y-227500000D03*
X101400000Y-228150000D03*
X107850000Y-227250000D03*
X99000000Y-227450000D03*
X95900000Y-224550000D03*
X128900000Y-212900000D03*
X125651680Y-212600000D03*
X65399999Y-96800000D03*
X60750000Y-100750000D03*
X75750000Y-99750000D03*
X60900000Y-89900000D03*
X74250000Y-90100000D03*
X75500000Y-90100000D03*
X62750000Y-105100000D03*
X63800000Y-109615000D03*
X83850000Y-112500000D03*
X86250000Y-112500000D03*
X91850000Y-112500000D03*
X94250000Y-112500000D03*
X95050000Y-112500000D03*
X81850000Y-107800000D03*
X90650000Y-107800000D03*
X100650000Y-112500000D03*
X80300000Y-124300000D03*
X77800000Y-124200000D03*
X79050000Y-118600000D03*
X69400000Y-115900000D03*
X115800000Y-215635000D03*
X118600000Y-216235000D03*
X121400000Y-216235000D03*
X77950000Y-171650000D03*
X71987500Y-223050000D03*
X98232500Y-229698000D03*
X102300000Y-236450000D03*
X103800000Y-236450000D03*
X105290000Y-236450000D03*
X99800000Y-236450000D03*
X101040000Y-236135000D03*
X99000000Y-112500000D03*
X76700000Y-117200000D03*
X103450000Y-107800000D03*
X99450000Y-107800000D03*
X97050000Y-107800000D03*
X93850000Y-107800000D03*
X102300000Y-117200000D03*
X102300000Y-117200000D03*
X74700000Y-116312500D03*
D38*
X100650000Y-115977080D03*
X91850000Y-115977080D03*
X95050000Y-115977080D03*
D39*
X69600000Y-110500000D03*
X69956585Y-113218343D03*
X119400000Y-122800000D03*
X119400000Y-122000000D03*
X126100000Y-122000000D03*
X113765000Y-82700000D03*
X113765000Y-83800000D03*
X113765000Y-84900000D03*
X113765000Y-86000000D03*
X70185000Y-85650000D03*
X68650000Y-84637000D03*
X71570000Y-84637000D03*
X75025000Y-80300000D03*
X75025000Y-85000000D03*
X70110000Y-83987000D03*
X126700000Y-119300000D03*
X110900000Y-88300000D03*
X87600000Y-65740000D03*
X134500000Y-118800000D03*
X110525000Y-210273000D03*
X113300000Y-210085000D03*
X113300000Y-207225000D03*
X112075000Y-206327000D03*
X76712500Y-175412500D03*
X74231647Y-174187500D03*
X74973761Y-193900000D03*
X143000000Y-154100000D03*
X141218516Y-115131484D03*
X143399998Y-226050000D03*
X60600000Y-144285000D03*
X60800000Y-160285000D03*
D38*
X98992800Y-222200000D03*
D39*
X142900000Y-163324620D03*
X137900000Y-163000000D03*
X141000000Y-170300000D03*
X139900000Y-153500000D03*
X143100000Y-159256514D03*
X138100000Y-146124620D03*
X60470000Y-86860000D03*
X62470000Y-86860000D03*
X64470000Y-86860000D03*
X66470000Y-86860000D03*
X68470000Y-86860000D03*
X69470000Y-87360000D03*
X63470000Y-87360000D03*
X61470000Y-87360000D03*
X65470000Y-87360000D03*
X67470000Y-87360000D03*
X72800000Y-84000000D03*
X73300000Y-81300000D03*
X71900000Y-81300000D03*
X76600000Y-85100000D03*
X71900000Y-79300000D03*
X71900000Y-77300000D03*
X71900000Y-75300000D03*
X72700000Y-74560000D03*
X72700000Y-76300000D03*
X72700000Y-78300000D03*
X72700000Y-80300000D03*
X74200000Y-74560000D03*
X74860000Y-73200000D03*
X74860000Y-71200000D03*
X74860000Y-69200000D03*
X74860000Y-67200000D03*
X74860000Y-65200000D03*
X74860000Y-63200000D03*
X74860000Y-61200000D03*
X74860000Y-59200000D03*
X75860000Y-72200000D03*
X75860000Y-60200000D03*
X75860000Y-74200000D03*
X75860000Y-70200000D03*
X75860000Y-68200000D03*
X75860000Y-62200000D03*
X75860000Y-64200000D03*
X75860000Y-66200000D03*
X73575000Y-75500000D03*
X76695000Y-82650000D03*
X73850000Y-79475000D03*
X75800000Y-79475000D03*
X75775000Y-85800000D03*
X73450000Y-85100000D03*
X74225000Y-85800000D03*
X75200000Y-75100000D03*
X69535000Y-84950000D03*
X70600000Y-86700000D03*
X72010000Y-85760000D03*
X80750000Y-136548320D03*
X105560000Y-134655000D03*
X105165000Y-131150000D03*
X112380000Y-135919000D03*
X112120000Y-134887500D03*
X121185000Y-119300000D03*
X123885000Y-119300000D03*
X106585000Y-139800000D03*
X107980000Y-122022500D03*
X101290000Y-130400000D03*
X102290000Y-130400000D03*
X103290000Y-130400000D03*
X108046000Y-125930000D03*
X105220000Y-125120000D03*
X137849998Y-129925000D03*
X137850000Y-130725000D03*
X143150000Y-130725000D03*
X142890000Y-137500000D03*
X138110000Y-137300000D03*
X142890000Y-138300000D03*
X142890000Y-139100000D03*
X142890000Y-139900000D03*
X142890000Y-140700000D03*
X142890000Y-141500000D03*
X67110000Y-160100000D03*
X67110000Y-158800000D03*
X64660000Y-132470000D03*
X86285000Y-221800000D03*
X82530000Y-219825000D03*
X103270034Y-222524966D03*
X102600000Y-215900000D03*
X107700000Y-220900000D03*
X76600000Y-80200000D03*
X75683940Y-138346060D03*
X71850000Y-137248000D03*
X72070000Y-212860000D03*
X143150000Y-131510000D03*
X121025000Y-154030000D03*
X117075000Y-155285000D03*
X127717000Y-161051000D03*
X127887500Y-155900000D03*
X123875000Y-159812500D03*
X146057359Y-112688369D03*
X132300000Y-116100000D03*
X145250000Y-103050000D03*
D38*
X145400000Y-110200000D03*
D39*
X145250000Y-104850000D03*
X141190000Y-142300000D03*
X141025000Y-103950000D03*
X141025000Y-102150000D03*
X141025000Y-100350000D03*
X142375000Y-108150000D03*
X137980000Y-105460000D03*
X137980000Y-97990000D03*
X137980000Y-103101514D03*
X137980000Y-100887500D03*
X148050000Y-106130000D03*
X148050000Y-105185000D03*
X77950000Y-167850000D03*
X77950000Y-169750000D03*
X68800000Y-166400000D03*
X69900000Y-156100000D03*
X70000000Y-153700000D03*
X70200000Y-158500000D03*
X70200000Y-165900000D03*
X70326859Y-141892852D03*
X72911802Y-146671222D03*
X72033447Y-145544510D03*
X145261177Y-100361866D03*
X114150500Y-134187000D03*
X100590000Y-129884500D03*
X103990000Y-129882500D03*
X100490000Y-128882500D03*
X104090000Y-128882500D03*
X100947200Y-134750000D03*
X100947200Y-135500000D03*
X101987500Y-137845000D03*
X84100000Y-170150000D03*
X70100000Y-163100000D03*
X87850000Y-168562500D03*
X75975000Y-162315000D03*
X126100000Y-122800000D03*
X100000000Y-168028500D03*
X97350000Y-170650000D03*
X86500000Y-167150000D03*
X143590000Y-160520000D03*
X134332500Y-163560000D03*
X133582500Y-163560000D03*
X135082500Y-163560000D03*
X134332500Y-166960000D03*
X133582500Y-166960000D03*
X135082500Y-166960000D03*
X121765000Y-177975000D03*
X119250000Y-177787500D03*
X121765000Y-179325000D03*
X111700000Y-107175000D03*
X110700000Y-107175000D03*
X112700000Y-107175000D03*
X112700000Y-107925000D03*
X110700000Y-107925000D03*
X111700000Y-107925000D03*
X126525000Y-127160000D03*
X129198000Y-123984000D03*
X98660000Y-157971500D03*
X128215000Y-125075000D03*
D38*
X117750000Y-118522920D03*
D39*
X129100000Y-116551680D03*
X118830000Y-98825000D03*
X122060000Y-93975000D03*
X131825000Y-172437500D03*
X131200000Y-172700000D03*
X131100000Y-173300000D03*
X130900000Y-171600000D03*
X144500000Y-118000000D03*
X149100000Y-224615000D03*
X68660000Y-130620000D03*
X122400000Y-123985002D03*
X129440000Y-119300000D03*
X143740000Y-181650000D03*
X141815000Y-184450000D03*
X147850000Y-152899998D03*
X147850000Y-143200000D03*
X93035000Y-237085000D03*
X87046243Y-224303757D03*
D38*
X66015000Y-112240000D03*
D39*
X67800000Y-106900000D03*
X148000000Y-227600000D03*
X70057660Y-143868456D03*
X131697988Y-173097988D03*
X130500000Y-120815000D03*
X77950000Y-165600000D03*
X99700000Y-128875000D03*
X98925000Y-129250000D03*
X70000000Y-138500000D03*
X62700000Y-107000000D03*
X103612500Y-74750000D03*
X103150000Y-76332500D03*
X69600000Y-107650000D03*
X98470000Y-75450000D03*
X129500000Y-208965000D03*
X141675500Y-211725000D03*
X129651000Y-205549000D03*
X138212500Y-203550000D03*
X142000000Y-228035000D03*
X143225000Y-224645002D03*
X147970000Y-210750000D03*
X139200000Y-201780000D03*
X88300000Y-106952920D03*
X131500000Y-104865000D03*
X126500000Y-104865000D03*
X121500000Y-104865000D03*
X115750000Y-95745000D03*
X93000000Y-128935000D03*
X97100000Y-208730000D03*
X60870000Y-172212500D03*
X60870000Y-175962500D03*
X60870000Y-173712500D03*
X60870000Y-172962500D03*
X60870000Y-174462500D03*
X60870000Y-175212500D03*
X87030000Y-179800000D03*
X85400000Y-124530000D03*
X90250000Y-160500000D03*
X91000000Y-161250000D03*
X87730000Y-164440000D03*
X73017012Y-193717010D03*
X70227011Y-196507011D03*
X81550000Y-175049998D03*
X85200000Y-177287500D03*
X107085000Y-129650000D03*
D38*
X72850000Y-135370000D03*
D39*
X65015000Y-106300000D03*
X68300000Y-103128320D03*
X62700000Y-103128320D03*
X69750000Y-233240000D03*
X109415000Y-177787500D03*
X70200007Y-168299993D03*
X138960000Y-148650000D03*
X137850000Y-139287500D03*
X137850000Y-138487500D03*
X138262500Y-140900000D03*
X138110000Y-143300000D03*
X109700000Y-209375000D03*
X109850000Y-215250000D03*
X102085000Y-169062500D03*
X85400000Y-155900000D03*
X85500000Y-154800000D03*
X86000000Y-154200000D03*
X86000000Y-153100000D03*
X94500000Y-147900000D03*
X95300000Y-148700000D03*
X95800000Y-146000000D03*
X96800000Y-146000000D03*
X140100000Y-116700000D03*
X137050000Y-118850000D03*
X79800000Y-153900000D03*
X79500000Y-155100000D03*
X122600000Y-151108600D03*
X121025000Y-152120000D03*
X119057500Y-152002500D03*
X137000000Y-160700000D03*
X97450000Y-112500000D03*
G04 #@! TO.N,Net-(BT301-Pad1)*
X115385000Y-176845000D03*
X115385000Y-176225000D03*
X115385000Y-175605000D03*
X115385000Y-174985000D03*
X115385000Y-174365000D03*
X114765000Y-174365000D03*
X114765000Y-174985000D03*
X114765000Y-175605000D03*
X114765000Y-176845000D03*
X114765000Y-176225000D03*
X114145000Y-176845000D03*
X113525000Y-176845000D03*
X112905000Y-176845000D03*
X114145000Y-176225000D03*
X113525000Y-176225000D03*
X112905000Y-176225000D03*
X114145000Y-175605000D03*
X114145000Y-174985000D03*
X114145000Y-174365000D03*
G04 #@! TO.N,5V_SOM*
X138110000Y-132300000D03*
X138110000Y-132300000D03*
X138110000Y-133100000D03*
X138110000Y-133900000D03*
X138110000Y-134700000D03*
X138110000Y-135500000D03*
X138110000Y-136500000D03*
X142890000Y-132300000D03*
X142890000Y-133100000D03*
X142890000Y-133900000D03*
X142890000Y-134700000D03*
X142890000Y-135500000D03*
X142890000Y-136500000D03*
X118775000Y-155335000D03*
X116400000Y-155900000D03*
X117400000Y-157400000D03*
X118400000Y-157400000D03*
X119400000Y-157400000D03*
X119000000Y-158050000D03*
X118000000Y-158050000D03*
X117000000Y-158050000D03*
X116400000Y-157400000D03*
X116400000Y-156650000D03*
X119400000Y-156650000D03*
X118400000Y-156650000D03*
X117400000Y-156650000D03*
X118900000Y-156050000D03*
G04 #@! TO.N,3V3_OUT*
X66410000Y-144610000D03*
X66410000Y-140390000D03*
X74160000Y-131500000D03*
X87860000Y-133900000D03*
X84827896Y-137124409D03*
X142890000Y-144900000D03*
X139900000Y-160900000D03*
X97290400Y-167700000D03*
X70210000Y-215120000D03*
X63810000Y-215120000D03*
X72070000Y-210330000D03*
X121900000Y-162800000D03*
X118537000Y-162800000D03*
X114300000Y-172200000D03*
X99300000Y-168800004D03*
D38*
G04 #@! TO.N,/ENET_2V5*
X123816967Y-209857570D03*
X114500000Y-212000000D03*
X126800000Y-213700000D03*
X143500000Y-143700000D03*
X108700000Y-218700000D03*
X115400010Y-210622920D03*
X109650000Y-204700000D03*
X113962955Y-204462955D03*
D39*
G04 #@! TO.N,1V8_P*
X100210000Y-218735000D03*
X91290000Y-214135000D03*
X91292000Y-216135000D03*
X99900000Y-222250000D03*
X96550000Y-225300000D03*
X102600000Y-216550000D03*
X103650000Y-219800000D03*
X106250000Y-217650000D03*
X146068990Y-115600000D03*
X131285006Y-127750000D03*
X142449000Y-106950000D03*
X139750000Y-99312500D03*
X139750000Y-102131514D03*
X139750000Y-104061514D03*
X128250000Y-125750000D03*
X115835000Y-92800000D03*
X139750000Y-107500000D03*
X90462500Y-138870000D03*
X90462500Y-139620000D03*
X89712500Y-138870000D03*
X89362500Y-138120000D03*
X91212500Y-139620000D03*
X91212500Y-140370000D03*
X129265000Y-122400000D03*
X129650000Y-211350000D03*
X70200000Y-221500000D03*
X96600000Y-230400000D03*
X97400000Y-211000000D03*
D38*
X87400000Y-216135000D03*
D39*
X113600000Y-216300000D03*
X86700000Y-143600000D03*
X86700000Y-147500000D03*
X81000000Y-121800000D03*
X67600000Y-114000000D03*
X129000000Y-121000000D03*
X109800000Y-120900000D03*
X123850000Y-121800000D03*
X97300000Y-120400000D03*
X91400000Y-126200000D03*
X93000000Y-126200000D03*
X135600000Y-125700000D03*
X142600000Y-110166514D03*
D38*
X94950000Y-216850000D03*
D39*
X99650000Y-225300000D03*
X106750000Y-217150000D03*
D38*
X137500000Y-178100000D03*
D39*
X131000000Y-124900000D03*
D38*
G04 #@! TO.N,VBUS*
X100326000Y-172250000D03*
X99470000Y-171750000D03*
X101182000Y-173750000D03*
X101182000Y-172750000D03*
X101182000Y-171750000D03*
X100326000Y-171250000D03*
X100326000Y-173250000D03*
X99470000Y-173750000D03*
D39*
X104075000Y-171155000D03*
X102980000Y-171337500D03*
X93000000Y-203824667D03*
X90600000Y-202916334D03*
X90600000Y-203824667D03*
X91400000Y-202916334D03*
X91400000Y-203824667D03*
X92200000Y-203824667D03*
X92200000Y-202916334D03*
X93000000Y-202916334D03*
D38*
X100326000Y-174250000D03*
X102038000Y-172250000D03*
X102038000Y-173250000D03*
X102038000Y-174250000D03*
X99470000Y-172750000D03*
D39*
X82093335Y-129480140D03*
D38*
G04 #@! TO.N,/USB-C/BYPASS*
X77807500Y-133900000D03*
D39*
G04 #@! TO.N,3V3*
X79007500Y-130995000D03*
X74200000Y-151815000D03*
X74435000Y-156200000D03*
X64910000Y-117537500D03*
X74252989Y-158912989D03*
X110020000Y-124725000D03*
X110020000Y-123975000D03*
X110020000Y-123225000D03*
X112280000Y-131912500D03*
X108760000Y-130450000D03*
X132150000Y-178050000D03*
G04 #@! TO.N,5V_P*
X76100000Y-201125000D03*
X126097000Y-160351000D03*
X124200000Y-160500000D03*
X124950000Y-160500000D03*
X124200000Y-161250000D03*
X124950000Y-161250000D03*
X124200000Y-162000000D03*
X124950000Y-162000000D03*
X124950000Y-162000000D03*
X124200000Y-162000000D03*
X126450000Y-162000000D03*
X125700000Y-162000000D03*
X127950000Y-162000000D03*
X127200000Y-162000000D03*
X124950000Y-163561610D03*
X124200000Y-163561610D03*
X127950000Y-163561610D03*
X127200000Y-163561610D03*
X126450000Y-163561610D03*
X125700000Y-163561610D03*
X124000000Y-169100000D03*
X125600000Y-169100000D03*
X126400000Y-169100000D03*
X124800000Y-169100000D03*
X127200000Y-169100000D03*
X125600000Y-169900000D03*
X124800000Y-169900000D03*
X127200000Y-169900000D03*
X126400000Y-169900000D03*
X124000000Y-169900000D03*
X124000000Y-170700000D03*
X124800000Y-170700000D03*
X125600000Y-170700000D03*
X126400000Y-170700000D03*
X77950000Y-169100000D03*
X89300000Y-179800000D03*
X87893000Y-130494500D03*
X85399992Y-126800000D03*
X73000000Y-165300000D03*
X127200000Y-170700000D03*
X106115000Y-128250000D03*
X72670496Y-136645496D03*
G04 #@! TO.N,Net-(C216-Pad2)*
X96612500Y-229000000D03*
D38*
G04 #@! TO.N,/Battery/RGEN*
X105600000Y-168875000D03*
D39*
G04 #@! TO.N,VBAT*
X109240000Y-174720000D03*
X108565000Y-175512500D03*
G04 #@! TO.N,VBAT_REG*
X99295333Y-165050000D03*
X99295333Y-164366666D03*
X99295333Y-163683333D03*
X99295333Y-163000000D03*
X99295333Y-162316667D03*
X99295333Y-161633333D03*
X99295333Y-160950000D03*
X100327667Y-165050000D03*
X100327667Y-164366666D03*
X100327667Y-163683333D03*
X100327667Y-163000000D03*
X100327667Y-162316667D03*
X100327667Y-161633333D03*
X100327667Y-160950000D03*
X101360000Y-165050000D03*
X101360000Y-164366666D03*
X101360000Y-163683333D03*
X101360000Y-162316667D03*
X101360000Y-163000000D03*
X101360000Y-161633333D03*
X101360000Y-160950000D03*
X104500000Y-134315000D03*
X111740000Y-139640000D03*
X112290000Y-139090000D03*
X111190000Y-140190000D03*
X113380000Y-137194000D03*
X113380000Y-137944000D03*
X111540000Y-138890000D03*
X110790000Y-139173000D03*
X111540000Y-138140004D03*
X110445000Y-140448000D03*
X122950000Y-154147500D03*
X104000000Y-136000000D03*
X104000000Y-135250000D03*
X121515000Y-174425000D03*
X122215000Y-174425000D03*
X122215000Y-175037500D03*
X121515000Y-175037500D03*
X121515000Y-175650000D03*
X122215000Y-175650000D03*
X103250000Y-135250000D03*
X103250000Y-136000000D03*
X103625000Y-133750000D03*
X103625000Y-133000000D03*
X103625000Y-134500000D03*
X104000000Y-136750000D03*
X103250000Y-136750000D03*
G04 #@! TO.N,3V3_P*
X106950000Y-205800000D03*
X114900000Y-91900000D03*
X135000000Y-224900000D03*
X137925000Y-222100000D03*
X144075000Y-209700000D03*
X81250000Y-140180000D03*
X78830000Y-137500000D03*
X137500000Y-219600000D03*
X122800000Y-202900000D03*
X143400000Y-228600000D03*
X88300000Y-116300000D03*
X105085000Y-116015000D03*
X81050000Y-107800000D03*
X93050000Y-107800000D03*
X104250000Y-107800000D03*
D38*
X103700000Y-111235382D03*
X80500000Y-112400000D03*
X79700000Y-117200000D03*
D39*
X74700000Y-110087500D03*
X110625000Y-101700000D03*
D38*
X81900000Y-109222920D03*
X88300000Y-109222920D03*
D39*
X64500000Y-115800000D03*
X93430000Y-117200000D03*
X119515000Y-119985000D03*
X122700000Y-120100002D03*
D38*
X108800000Y-92600000D03*
D39*
X112650000Y-93450000D03*
X73415000Y-138297000D03*
X63300000Y-181825000D03*
X110350000Y-232350000D03*
X64550000Y-135325000D03*
X60854000Y-152515000D03*
X111000000Y-119400000D03*
X110000000Y-117100000D03*
X100540000Y-121532500D03*
X100540000Y-122282500D03*
X100540000Y-123032500D03*
X99790000Y-122282500D03*
X99790000Y-123032500D03*
X99790000Y-121532500D03*
X99040000Y-122282500D03*
X99040000Y-121532500D03*
X99040000Y-123032500D03*
X99040000Y-123782500D03*
X99790000Y-123782500D03*
X100540000Y-123782500D03*
X94925000Y-225174998D03*
X137500000Y-223700000D03*
X99040000Y-124532500D03*
X99790000Y-124532500D03*
X100540000Y-124532500D03*
X99050000Y-115950000D03*
X110000000Y-114862500D03*
X110000000Y-115612500D03*
X110000000Y-116362500D03*
X113400000Y-114862500D03*
X113400000Y-116362500D03*
X113400000Y-115612500D03*
X110000000Y-98737500D03*
X113400000Y-100237500D03*
X110000000Y-100237500D03*
X110000000Y-99487500D03*
X111000000Y-97987500D03*
X111800000Y-119200000D03*
X119690000Y-95100000D03*
X119790000Y-93975000D03*
X135245246Y-116122622D03*
X64860000Y-218900000D03*
X129231000Y-123150000D03*
X122450000Y-123150000D03*
X123850000Y-123015000D03*
X130309000Y-125549000D03*
X134551680Y-204025000D03*
X96850000Y-91800000D03*
X139200000Y-204050000D03*
X145750000Y-211350000D03*
X131500000Y-107135000D03*
X126500000Y-107135000D03*
X121500000Y-107135000D03*
X60870000Y-165237500D03*
X60870000Y-168237500D03*
X60870000Y-165987500D03*
X60870000Y-167487500D03*
X60870000Y-168987500D03*
X60870000Y-166737500D03*
X113300000Y-206185000D03*
X135500000Y-120400000D03*
X109900000Y-213800000D03*
D38*
G04 #@! TO.N,Net-(C416-Pad1)*
X119057500Y-152613000D03*
X123250000Y-150650000D03*
D39*
G04 #@! TO.N,2V8_P*
X140510000Y-116060000D03*
X143900000Y-106650000D03*
X145300000Y-105820000D03*
X143817009Y-116817009D03*
X142500000Y-104100000D03*
X92900000Y-236050000D03*
X121100000Y-98825000D03*
X90700000Y-236050000D03*
G04 #@! TO.N,3V3_SNVS*
X141435000Y-186800000D03*
X139800000Y-148800000D03*
G04 #@! TO.N,3V3_SD*
X76950000Y-233950000D03*
X82100006Y-221800000D03*
X82099992Y-224800000D03*
X85300000Y-179100000D03*
X89000000Y-174700000D03*
X71987500Y-221800000D03*
X87000000Y-179100000D03*
X81600000Y-176800000D03*
D38*
G04 #@! TO.N,/USB Hub + SDIO Bridge/RDRV33*
X84100000Y-168650000D03*
X82000000Y-171700000D03*
X82600000Y-170700000D03*
G04 #@! TO.N,/SD2_~RST*
X75300000Y-168150000D03*
X75300000Y-165900000D03*
X141100000Y-160700004D03*
X129838369Y-115900000D03*
X115500014Y-98000000D03*
X129300000Y-157000000D03*
X84070000Y-167900000D03*
X97100000Y-158797508D03*
X115500000Y-154850000D03*
G04 #@! TO.N,/USB Hub + SDIO Bridge/RDRV5*
X85200000Y-174300000D03*
X86400000Y-171150000D03*
G04 #@! TO.N,Net-(C1301-Pad1)*
X145700000Y-117675000D03*
X144700000Y-154200000D03*
G04 #@! TO.N,/BTN2*
X65184799Y-154700000D03*
X68785132Y-155315977D03*
G04 #@! TO.N,/SYS_~RST*
X73100000Y-184450000D03*
X76250000Y-187650000D03*
X69400000Y-146500000D03*
X68830000Y-143370000D03*
G04 #@! TO.N,/ONOFF*
X61300000Y-116700000D03*
X106800000Y-176650000D03*
X79700000Y-146700000D03*
X67152000Y-143682000D03*
X111299998Y-157400000D03*
G04 #@! TO.N,/WWAN mPCIe/UIM-PWR*
X64300000Y-96800000D03*
X83234620Y-104900000D03*
X67900000Y-107700000D03*
X65400000Y-103300000D03*
X69400000Y-106200000D03*
G04 #@! TO.N,/WWAN mPCIe/UIM-CLK*
X64050000Y-94450000D03*
X84300000Y-104350004D03*
X67099994Y-104400000D03*
G04 #@! TO.N,/WWAN mPCIe/UIM-RESET*
X64572526Y-94711263D03*
X65999996Y-104899996D03*
X83500000Y-104000000D03*
G04 #@! TO.N,/WWAN mPCIe/UIM-DATA*
X65150000Y-94450000D03*
X65300016Y-104000000D03*
X83736373Y-104553716D03*
X83736372Y-104553716D03*
G04 #@! TO.N,/WWAN mPCIe/SIM_DETECT_I*
X77150000Y-96200000D03*
X69300000Y-102900000D03*
G04 #@! TO.N,Net-(C1604-Pad1)*
X134500000Y-211500000D03*
X139200000Y-207550000D03*
G04 #@! TO.N,Net-(C1606-Pad1)*
X135220000Y-213900000D03*
X135877080Y-211422920D03*
G04 #@! TO.N,Net-(C1607-Pad2)*
X136300000Y-210500000D03*
X140250500Y-214325002D03*
G04 #@! TO.N,Net-(C1608-Pad1)*
X134980000Y-213100000D03*
X133010000Y-210820000D03*
G04 #@! TO.N,Net-(C1622-Pad1)*
X138300000Y-209500000D03*
X136470000Y-186100000D03*
G04 #@! TO.N,Net-(C1703-Pad1)*
X118500000Y-213900000D03*
X123219324Y-212495315D03*
X113500000Y-213900000D03*
G04 #@! TO.N,/Ethernet/LED_ACT*
X110000000Y-219200000D03*
X122250000Y-212700000D03*
G04 #@! TO.N,Net-(C1711-Pad1)*
X115800000Y-212699994D03*
X111832000Y-212200000D03*
X115750000Y-205280000D03*
X114850000Y-209800000D03*
X119700000Y-213025000D03*
G04 #@! TO.N,/Ethernet/LED_LINK1000*
X127800000Y-233000000D03*
X129477080Y-220600000D03*
D39*
G04 #@! TO.N,/Ethernet/ENET_1V1*
X117700000Y-205299988D03*
D38*
X118700000Y-204800000D03*
G04 #@! TO.N,Net-(C1719-Pad1)*
X125900000Y-217500000D03*
D39*
X110800000Y-217500000D03*
D38*
G04 #@! TO.N,Net-(C1905-Pad1)*
X99900000Y-229650000D03*
G04 #@! TO.N,Net-(C2004-Pad1)*
X146400000Y-223400000D03*
X142899998Y-221800000D03*
G04 #@! TO.N,Net-(C2005-Pad1)*
X147200000Y-222100000D03*
X148400000Y-226235000D03*
X145385000Y-222099998D03*
X146400000Y-224300000D03*
G04 #@! TO.N,Net-(C2203-Pad2)*
X85600000Y-214755000D03*
G04 #@! TO.N,/USB1_SS_SEL*
X141000000Y-154900000D03*
X122049043Y-200049043D03*
G04 #@! TO.N,/USB-C/CC2*
X82800000Y-129440000D03*
X84300000Y-232100000D03*
D39*
G04 #@! TO.N,/USB-C/CC1*
X89800000Y-226375000D03*
D38*
X83657210Y-130300000D03*
G04 #@! TO.N,Net-(D205-Pad1)*
X91550000Y-226505000D03*
G04 #@! TO.N,Net-(D206-Pad1)*
X89275000Y-231200000D03*
G04 #@! TO.N,Net-(D301-Pad1)*
X102137500Y-179850000D03*
G04 #@! TO.N,Net-(D302-Pad1)*
X110087500Y-179425000D03*
G04 #@! TO.N,Net-(D304-Pad1)*
X98987500Y-179850000D03*
G04 #@! TO.N,/Boot Config/BOOT_MODE1*
X137800000Y-188600000D03*
X75350000Y-188550000D03*
X72500000Y-185700000D03*
G04 #@! TO.N,/Boot Config/BOOT_MODE0*
X75800000Y-188100000D03*
X73112005Y-185087995D03*
X137300000Y-188100000D03*
G04 #@! TO.N,/~IRQ*
X112050000Y-157400000D03*
X117837000Y-164572000D03*
G04 #@! TO.N,/POR_B*
X67110000Y-139100000D03*
X72650000Y-208850000D03*
G04 #@! TO.N,Net-(D1302-Pad2)*
X145565824Y-113215824D03*
X66222920Y-151550000D03*
X70140000Y-148310000D03*
X97400000Y-145600000D03*
X94000000Y-147500000D03*
G04 #@! TO.N,Net-(D1502-Pad2)*
X148000000Y-155300000D03*
X74900000Y-119500000D03*
G04 #@! TO.N,/HP_DET*
X132900000Y-219800000D03*
X68800000Y-158900000D03*
G04 #@! TO.N,/ENET_~RST*
X68900000Y-160400000D03*
X73700000Y-161200000D03*
X85500000Y-157378000D03*
X106500000Y-210700000D03*
G04 #@! TO.N,Net-(D1701-Pad2)*
X109900000Y-205800000D03*
G04 #@! TO.N,Net-(D1801-Pad2)*
X113300000Y-96399996D03*
X131640000Y-116160002D03*
G04 #@! TO.N,/WLAN+BT M.2/~W_DISABLE1*
X111050957Y-95350957D03*
X111400000Y-90200000D03*
X122300000Y-116100000D03*
X113600000Y-99500002D03*
G04 #@! TO.N,Net-(D1803-Pad2)*
X109600000Y-88500000D03*
X147850000Y-148900000D03*
X118800000Y-141500000D03*
X116700000Y-139400000D03*
D39*
G04 #@! TO.N,/HDMI/DCDC_5V_CN*
X99000000Y-235500000D03*
D38*
X99149990Y-229750000D03*
G04 #@! TO.N,/HDMI_DDC_SDA*
X102300000Y-233550000D03*
X67110000Y-164100000D03*
X100600000Y-229750000D03*
G04 #@! TO.N,/HDMI_DDC_SCL*
X103800000Y-233550000D03*
X68810000Y-164500000D03*
X101350000Y-229900000D03*
G04 #@! TO.N,/HDMI/HDMI_CEC*
X101800000Y-232100000D03*
X66730000Y-169300000D03*
D39*
G04 #@! TO.N,Net-(F201-Pad2)*
X93000000Y-211003666D03*
X92200000Y-211003666D03*
X91400000Y-211003666D03*
X90600000Y-211003666D03*
X93000000Y-210095333D03*
X92200000Y-210095333D03*
X91400000Y-210095333D03*
X90600000Y-210095333D03*
X92050000Y-227390000D03*
X89550000Y-227390000D03*
X91925000Y-229090000D03*
X89425000Y-229090000D03*
D38*
G04 #@! TO.N,Net-(FB1604-Pad1)*
X83000000Y-66940000D03*
X148840000Y-196300000D03*
G04 #@! TO.N,Net-(FB1605-Pad1)*
X83000000Y-64540000D03*
X146850000Y-196300000D03*
G04 #@! TO.N,/JTAG/JTAG_TMS*
X68590000Y-214140000D03*
X65300000Y-167000000D03*
G04 #@! TO.N,/JTAG/JTAG_TCK*
X68590000Y-212870000D03*
X66350000Y-166600000D03*
G04 #@! TO.N,/JTAG/JTAG_TDO*
X68590000Y-211600000D03*
X67000000Y-166600000D03*
G04 #@! TO.N,/JTAG/JTAG_TDI*
X68590000Y-210330000D03*
X68810000Y-168100000D03*
G04 #@! TO.N,/uSD Card/CONN_SD2_DATA2*
X79899998Y-234000000D03*
X67450000Y-224700000D03*
G04 #@! TO.N,/uSD Card/CONN_SD2_CMD*
X77800000Y-234000000D03*
X82000000Y-176100000D03*
X84586382Y-174260198D03*
X66150000Y-224700000D03*
G04 #@! TO.N,/uSD Card/CONN_SD2_DATA0*
X68400000Y-225700000D03*
X73800000Y-233599994D03*
G04 #@! TO.N,/uSD Card/CONN_SD2_DATA1*
X67800030Y-225700000D03*
X72900000Y-233600000D03*
G04 #@! TO.N,Net-(J1201-Pad3)*
X93800000Y-235300000D03*
X96425957Y-235325957D03*
G04 #@! TO.N,/LCD_~RESET*
X141025000Y-105750000D03*
X142900000Y-153300000D03*
X144767389Y-153100000D03*
G04 #@! TO.N,/LCD_LEDK*
X127284000Y-177005700D03*
X126759000Y-177005700D03*
X126759000Y-177530700D03*
X127284000Y-177530700D03*
X144000000Y-99450000D03*
X145175000Y-99450002D03*
X144575000Y-99000000D03*
G04 #@! TO.N,Net-(J1301-Pad25)*
X143850000Y-111768886D03*
X128500000Y-128600000D03*
G04 #@! TO.N,/WWAN mPCIe/~WoWWAN_1V8*
X80700000Y-116000000D03*
X62000000Y-116000000D03*
X70900000Y-115300000D03*
G04 #@! TO.N,/WWAN mPCIe/~SIM_DETECT_O*
X68600000Y-108399998D03*
X86700000Y-107800004D03*
G04 #@! TO.N,/WWAN mPCIe/PCM_CLK*
X101200000Y-116400000D03*
X80276655Y-121271043D03*
G04 #@! TO.N,/WWAN mPCIe/PCM_IN*
X80300000Y-119100000D03*
X101500000Y-111900000D03*
G04 #@! TO.N,/WWAN mPCIe/PCM_OUT*
X80300000Y-119800000D03*
X102600000Y-112000000D03*
G04 #@! TO.N,/WWAN mPCIe/PCM_SYNC*
X103700000Y-112100000D03*
X80300010Y-120500000D03*
G04 #@! TO.N,/WLAN+BT M.2/M2_PCM_CLK*
X128800000Y-120299994D03*
X134700000Y-115850004D03*
G04 #@! TO.N,/WLAN+BT M.2/WIFI_CLK*
X136750000Y-155550000D03*
X141000000Y-156400000D03*
G04 #@! TO.N,/WLAN+BT M.2/M2_PCM_SYNC*
X128063942Y-120347445D03*
X134100000Y-116200000D03*
G04 #@! TO.N,/WLAN+BT M.2/WIFI_CMD*
X136300000Y-157000000D03*
X141000000Y-157000000D03*
G04 #@! TO.N,/WLAN+BT M.2/M2_PCM_IN*
X127300000Y-120399994D03*
X133500000Y-115849980D03*
G04 #@! TO.N,/WLAN+BT M.2/WIFI_DATA0*
X140500000Y-158150000D03*
X135800000Y-158600000D03*
G04 #@! TO.N,/WLAN+BT M.2/M2_PCM_OUT*
X126600000Y-120400000D03*
X132992360Y-116213138D03*
G04 #@! TO.N,/WLAN+BT M.2/WIFI_DATA1*
X135300000Y-157000000D03*
X140600000Y-159250000D03*
G04 #@! TO.N,/WLAN+BT M.2/WIFI_DATA2*
X134500000Y-157000000D03*
X141100000Y-159700000D03*
G04 #@! TO.N,/WLAN+BT M.2/WIFI_DATA3*
X134000000Y-157700000D03*
X142870000Y-160100000D03*
G04 #@! TO.N,/WLAN+BT M.2/BT_HOST_WAKE*
X129800000Y-154100000D03*
X141190000Y-154100000D03*
G04 #@! TO.N,/WLAN+BT M.2/WIFI_WAKE*
X135300000Y-158250000D03*
X140948779Y-157585952D03*
G04 #@! TO.N,/UART4_TXD*
X70334366Y-139100000D03*
X72800000Y-139100000D03*
G04 #@! TO.N,/UART4_RTS*
X73300000Y-133200000D03*
X69440000Y-133900000D03*
G04 #@! TO.N,/UART4_CTS*
X68674089Y-136700000D03*
X73000000Y-132550000D03*
G04 #@! TO.N,/WLAN+BT M.2/~W_DISABLE2*
X123200000Y-116100000D03*
X114500000Y-98100000D03*
G04 #@! TO.N,/WLAN+BT M.2/M2_I2C_SDA*
X121500000Y-116100000D03*
X107710000Y-117677080D03*
G04 #@! TO.N,/WLAN+BT M.2/M2_I2C_SCL*
X104400000Y-118570000D03*
X120400006Y-116100000D03*
G04 #@! TO.N,Net-(J2201-PadC2)*
X85600000Y-212215000D03*
G04 #@! TO.N,Net-(J2201-PadC3)*
X85600000Y-209675000D03*
G04 #@! TO.N,Net-(J2201-PadC7)*
X73150000Y-202150000D03*
G04 #@! TO.N,Net-(J2201-PadC4)*
X85600000Y-208324333D03*
G04 #@! TO.N,Net-(J2201-PadC8)*
X85600000Y-207649000D03*
G04 #@! TO.N,Net-(J2201-PadSW2)*
X71470000Y-196400000D03*
G04 #@! TO.N,Net-(L1701-Pad1)*
X112000000Y-203300000D03*
X115054236Y-206645764D03*
G04 #@! TO.N,Net-(L2301-Pad2)*
X118200000Y-75110000D03*
G04 #@! TO.N,Net-(MK1601-Pad2)*
X139375000Y-223100000D03*
G04 #@! TO.N,/Ethernet/ENET_TXC*
X125447115Y-205734408D03*
X141200000Y-168900000D03*
G04 #@! TO.N,/Ethernet/ENET_TD0*
X125999990Y-205300000D03*
X142950000Y-168290000D03*
G04 #@! TO.N,/Ethernet/ENET_TD1*
X141190000Y-167820000D03*
X125500000Y-204877080D03*
G04 #@! TO.N,/Ethernet/ENET_TD2*
X142890000Y-167300000D03*
X125953820Y-204454168D03*
G04 #@! TO.N,/Ethernet/ENET_TD3*
X125499976Y-204000000D03*
X141199996Y-166811212D03*
G04 #@! TO.N,/Ethernet/ENET_TX_CTL*
X126000014Y-206200000D03*
X142890000Y-166100000D03*
G04 #@! TO.N,/Ethernet/ENET_RD3*
X124300000Y-210699986D03*
X141200000Y-165800000D03*
G04 #@! TO.N,/Ethernet/ENET_RD2*
X124614566Y-210127131D03*
X142900000Y-165090000D03*
G04 #@! TO.N,/Ethernet/ENET_RD1*
X124500000Y-209400000D03*
X141260000Y-164810000D03*
X123400000Y-209224996D03*
G04 #@! TO.N,/Ethernet/ENET_RD0*
X123791467Y-208654205D03*
X142890000Y-164100000D03*
G04 #@! TO.N,/Ethernet/ENET_RX_CTL*
X141180000Y-163820000D03*
X123783000Y-207997000D03*
G04 #@! TO.N,/Ethernet/ENET_RXC*
X142890000Y-162500000D03*
X123783000Y-207217000D03*
G04 #@! TO.N,/Ethernet/ENET_MDIO*
X116977090Y-205400000D03*
X121119803Y-203112124D03*
X122502201Y-201216430D03*
X107441998Y-201930000D03*
X141200008Y-162600000D03*
G04 #@! TO.N,/Ethernet/ENET_MDC*
X116300000Y-206499992D03*
X121666000Y-201167994D03*
X142888270Y-161299073D03*
X120040000Y-203150000D03*
G04 #@! TO.N,/TCPC_~INT*
X137960000Y-156500000D03*
X85400000Y-133900000D03*
G04 #@! TO.N,/~WWAN_DISABLE*
X70099997Y-116499997D03*
X141000000Y-155700000D03*
X137400000Y-155071401D03*
G04 #@! TO.N,/~WIFI_DISABLE*
X114900000Y-119300000D03*
X134300000Y-121600000D03*
G04 #@! TO.N,/WWAN_RESET*
X72800000Y-102900000D03*
X141100000Y-147000000D03*
G04 #@! TO.N,/~WoWWAN*
X62500000Y-116500000D03*
X140300000Y-148199994D03*
X67700000Y-117000000D03*
G04 #@! TO.N,/CAPTOUCH_~INT*
X142200000Y-151200000D03*
X99350000Y-228000000D03*
G04 #@! TO.N,/JTAG/JTAG_~TRST*
X68849998Y-205150000D03*
X67050000Y-167260000D03*
G04 #@! TO.N,/DSI_BL_PWM*
X68810000Y-165490000D03*
X76700000Y-187199998D03*
G04 #@! TO.N,/CSI_PWDN*
X99100000Y-146200000D03*
X81850000Y-170260000D03*
X145400000Y-116500000D03*
G04 #@! TO.N,/IMU_INT*
X81500000Y-157500000D03*
X72670000Y-161560000D03*
X69720000Y-161460000D03*
X144900000Y-226300000D03*
G04 #@! TO.N,/PWR_EN*
X67110000Y-161300000D03*
X127599000Y-158101000D03*
X126300000Y-127900000D03*
X109800000Y-122400000D03*
X105199998Y-122300000D03*
X97000000Y-132800000D03*
G04 #@! TO.N,/ENET_WoL*
X85219452Y-156864638D03*
X120100000Y-199050000D03*
X120477000Y-205100000D03*
G04 #@! TO.N,/SAI5_RXD*
X69322910Y-160900000D03*
X72250000Y-162060000D03*
G04 #@! TO.N,/SAI1_RXD1(GPIO4_IO03)*
X70000000Y-159670000D03*
G04 #@! TO.N,/SAI5_TX_SYNC*
X77400000Y-159300000D03*
X72200000Y-160650000D03*
G04 #@! TO.N,/ENET_~INT*
X109308000Y-206450000D03*
X85882562Y-156935548D03*
X119500000Y-199050000D03*
X114950000Y-207900000D03*
G04 #@! TO.N,/PROX_~INT*
X64300000Y-126500000D03*
X66650000Y-156000000D03*
G04 #@! TO.N,/CHRG_~INT*
X76900000Y-159900000D03*
X104800000Y-175080000D03*
X85500000Y-159900000D03*
X72000000Y-159660000D03*
G04 #@! TO.N,/SAI1_RXD0(GPIO4_IO02)*
X68810000Y-157740000D03*
G04 #@! TO.N,/SAI5_TXD*
X69950000Y-157300000D03*
X77800000Y-158000000D03*
D39*
G04 #@! TO.N,/CLKO2*
X85100000Y-155300000D03*
D38*
X108000000Y-207430000D03*
G04 #@! TO.N,/LED*
X67110000Y-156900000D03*
X69200000Y-219150000D03*
G04 #@! TO.N,/SAI1_RXD4(GPIO4_IO06)*
X68816161Y-156735016D03*
G04 #@! TO.N,/Audio/SAI2_TXC*
X132900000Y-207600000D03*
X71950000Y-156200000D03*
X80000000Y-157500000D03*
G04 #@! TO.N,/SAI1_RXD3(GPIO4_IO05)*
X68800000Y-155999994D03*
G04 #@! TO.N,/CLKO1*
X130450000Y-129300014D03*
X129300000Y-127400000D03*
X80000000Y-154600000D03*
X71900000Y-155000000D03*
X96300000Y-146500000D03*
X85500000Y-153700000D03*
X94600000Y-148600000D03*
G04 #@! TO.N,/SAI1_RXD2(GPIO4_IO04)*
X69726377Y-154870380D03*
G04 #@! TO.N,/SAI2_TXFS*
X132300000Y-206900000D03*
X69500000Y-154200004D03*
X79200000Y-153600000D03*
G04 #@! TO.N,/SAI2_RXD*
X131800000Y-207625000D03*
X69199426Y-153599043D03*
X79100000Y-152200000D03*
G04 #@! TO.N,/Audio/SAI2_MCLK*
X71900000Y-153700000D03*
X133643800Y-206455612D03*
X79300000Y-152900000D03*
G04 #@! TO.N,/SAI1_RXD6(GPIO4_IO08)*
X77900000Y-124900000D03*
X68600000Y-153300000D03*
X76200000Y-121800000D03*
G04 #@! TO.N,/SAI2_TXD*
X78000000Y-147800000D03*
X132129151Y-208265392D03*
G04 #@! TO.N,/SAI1_RXD7(GPIO4_IO09)*
X71890000Y-147100000D03*
G04 #@! TO.N,/I2C2_SCL*
X96550000Y-119500000D03*
X78500000Y-144500000D03*
X70022920Y-145061291D03*
X87200000Y-140700000D03*
G04 #@! TO.N,/HAPTIC*
X66400000Y-149000000D03*
X66400000Y-146299998D03*
G04 #@! TO.N,/SAI1_RXD5(GPIO4_IO07)*
X78580159Y-125167207D03*
X76300000Y-120100000D03*
X69800000Y-147000000D03*
G04 #@! TO.N,/I2C2_SDA*
X79670000Y-144470000D03*
X97600000Y-117850000D03*
X69684000Y-142866000D03*
X86500000Y-140700000D03*
G04 #@! TO.N,/SAI1_TXD1(GPIO4_IO13)*
X68716764Y-144040948D03*
G04 #@! TO.N,/ECSPI1_SCLK*
X73200000Y-142300002D03*
G04 #@! TO.N,/SAI1_TXD3(GPIO4_IO15)*
X69214000Y-141900000D03*
G04 #@! TO.N,/SAI1_TXD4(GPIO4_IO16)*
X78600000Y-124400000D03*
X68810000Y-141477085D03*
X76500000Y-120700000D03*
G04 #@! TO.N,/ECSPI1_SS0*
X71900000Y-141377080D03*
G04 #@! TO.N,/SAI1_TXD7(GPIO4_IO19)*
X68810000Y-140700000D03*
G04 #@! TO.N,/UART3_TXD*
X113350000Y-79555610D03*
X69377080Y-141000000D03*
X74450000Y-135050000D03*
G04 #@! TO.N,/~BT_DISABLE*
X110799998Y-92400000D03*
X69922920Y-137200009D03*
G04 #@! TO.N,/SAI1_TXD5(GPIO4_IO17)*
X79700000Y-124500000D03*
X77174967Y-119884543D03*
X68750000Y-139499000D03*
G04 #@! TO.N,/UART1_RXD*
X68750000Y-138350000D03*
G04 #@! TO.N,/SAI1_TXD2(GPIO4_IO14)*
X66600000Y-138810002D03*
G04 #@! TO.N,/SAI1_TXD6(GPIO4_IO18)*
X66600000Y-138211000D03*
G04 #@! TO.N,/ECSPI1_MOSI*
X68792538Y-137344174D03*
G04 #@! TO.N,/UART3_RXD*
X112250000Y-79555610D03*
X68700000Y-136116000D03*
X74450000Y-134450000D03*
G04 #@! TO.N,/ECSPI1_MISO*
X69600000Y-135400000D03*
G04 #@! TO.N,/UART1_TXD*
X67060000Y-132950000D03*
G04 #@! TO.N,/USB-C/USB1_VBUS*
X73254050Y-127544050D03*
X94770000Y-168050000D03*
G04 #@! TO.N,/USB-C/USB1_ID*
X67110000Y-131500000D03*
G04 #@! TO.N,/EN_SNK*
X79800000Y-130600000D03*
X82600000Y-172100000D03*
G04 #@! TO.N,Net-(Q301-Pad3)*
X107782600Y-177000000D03*
G04 #@! TO.N,/USB-C/USB_LD_~FLT*
X84522910Y-131750683D03*
G04 #@! TO.N,Net-(R212-Pad1)*
X80750000Y-133900000D03*
G04 #@! TO.N,Net-(R301-Pad2)*
X102900000Y-172750000D03*
G04 #@! TO.N,Net-(R302-Pad2)*
X103144000Y-173750000D03*
G04 #@! TO.N,Net-(R305-Pad1)*
X103755050Y-172244950D03*
G04 #@! TO.N,Net-(R306-Pad2)*
X106400000Y-176200000D03*
G04 #@! TO.N,Net-(R307-Pad1)*
X107300000Y-175800000D03*
X104942500Y-189770000D03*
G04 #@! TO.N,Net-(R402-Pad1)*
X106235000Y-132695000D03*
X105066599Y-132695000D03*
G04 #@! TO.N,Net-(R403-Pad1)*
X109475000Y-131650000D03*
G04 #@! TO.N,Net-(R408-Pad1)*
X119057500Y-153198000D03*
X123950000Y-154600000D03*
G04 #@! TO.N,Net-(R1721-Pad2)*
X114180000Y-202300000D03*
X119519000Y-205352000D03*
G04 #@! TO.N,Net-(R2301-Pad1)*
X115550000Y-72475000D03*
G04 #@! TO.N,Net-(SW1301-Pad4)*
X138625000Y-223125000D03*
X147857699Y-162059598D03*
X143840949Y-165685350D03*
X135800000Y-186100000D03*
G04 #@! TO.N,/EN_SRC*
X81350000Y-129400000D03*
X101100000Y-175720000D03*
G04 #@! TO.N,/USB-C/USB1_RX_P*
X94860440Y-208750000D03*
X70000000Y-134210440D03*
G04 #@! TO.N,/USB-C/USB1_RX_N*
X95439560Y-208750000D03*
X70000000Y-134789560D03*
G04 #@! TO.N,/HDMI/HDMI_AUX_P*
X71890000Y-168007900D03*
G04 #@! TO.N,/HDMI/HDMI_AUX_N*
X71890000Y-168592100D03*
G04 #@! TO.N,/USB-C/USBC_CN_D_P*
X90839560Y-231060000D03*
X90510440Y-229090000D03*
G04 #@! TO.N,/USB-C/USBC_CN_D_N*
X90260440Y-231060000D03*
X91089560Y-229090000D03*
G04 #@! TO.N,/MIPI/DSI_D2_P*
X140374965Y-142056752D03*
G04 #@! TO.N,/MIPI/DSI_D0_N*
X145804840Y-101657253D03*
X143175000Y-101657253D03*
X140625035Y-140505305D03*
G04 #@! TO.N,/MIPI/DSI_CK_P*
X143464560Y-102600000D03*
G04 #@! TO.N,/MIPI/DSI_D1_N*
X145804840Y-104137537D03*
X143714939Y-104137537D03*
X138185440Y-125500000D03*
G04 #@! TO.N,/MIPI/DSI_D3_P*
X137355440Y-124541000D03*
G04 #@! TO.N,/MIPI/DSI_D3_N*
X137934560Y-124541000D03*
G04 #@! TO.N,/MIPI/DSI_D1_P*
X145804840Y-103558417D03*
X143714939Y-103558417D03*
X138764560Y-125500000D03*
G04 #@! TO.N,/MIPI/DSI_CK_N*
X142885440Y-102600000D03*
G04 #@! TO.N,/MIPI/DSI_D0_P*
X143175000Y-101078133D03*
X145804840Y-101078133D03*
X141204155Y-140505305D03*
G04 #@! TO.N,/MIPI/DSI_D2_N*
X139795845Y-142056752D03*
G04 #@! TO.N,/MIPI/CSI_P1_D0_N*
X137920000Y-158410440D03*
X147845000Y-158410440D03*
G04 #@! TO.N,/MIPI/CSI_P1_D0_P*
X137920000Y-158989560D03*
X147845000Y-158989560D03*
G04 #@! TO.N,/MIPI/CSI_P1_D1_P*
X137920000Y-162189560D03*
X143850000Y-162189560D03*
G04 #@! TO.N,/MIPI/CSI_P1_D1_N*
X137920000Y-161610440D03*
X143850000Y-161610440D03*
G04 #@! TO.N,/USB Hub + SDIO Bridge/WWAN_D_N*
X97960440Y-108350000D03*
X84295250Y-164895250D03*
G04 #@! TO.N,/USB Hub + SDIO Bridge/WWAN_D_P*
X98539560Y-108350000D03*
X84704750Y-165304750D03*
G04 #@! TO.N,/WLAN_D_P*
X84070000Y-166839560D03*
X135789560Y-119000000D03*
G04 #@! TO.N,/WLAN_D_N*
X84070000Y-166260440D03*
X135210440Y-119000000D03*
G04 #@! TO.N,/HDMI/HDMI_TX1_P*
X106092100Y-226300000D03*
X70190000Y-167392100D03*
G04 #@! TO.N,/HDMI/HDMI_TX1_N*
X105507900Y-226300000D03*
X70190000Y-166807900D03*
G04 #@! TO.N,/HDMI/HDMI_TX0_P*
X102727100Y-225965000D03*
X71890000Y-166192100D03*
G04 #@! TO.N,/HDMI/HDMI_TX0_N*
X102142900Y-225965000D03*
X71890000Y-165607900D03*
G04 #@! TO.N,/HDMI/HDMI_TX2_P*
X108292100Y-226085000D03*
X70190000Y-164992100D03*
G04 #@! TO.N,/HDMI/HDMI_TX2_N*
X107707900Y-226085000D03*
X70190000Y-164407900D03*
G04 #@! TO.N,/HDMI/HDMI_CLK_P*
X101092100Y-225800000D03*
X71890000Y-163792100D03*
G04 #@! TO.N,/HDMI/HDMI_CLK_N*
X100507900Y-225800000D03*
X71890000Y-163207900D03*
G04 #@! TO.N,/USB Hub + SDIO Bridge/USB2_D_N*
X77950000Y-166610440D03*
X72080000Y-136389560D03*
G04 #@! TO.N,/USB Hub + SDIO Bridge/USB2_D_P*
X77950000Y-167189560D03*
X72080000Y-135810440D03*
G04 #@! TO.N,/USB-C/USB1_TX_N*
X72080000Y-133589560D03*
X97419990Y-212812215D03*
G04 #@! TO.N,/USB-C/USB1_TX_P*
X72080000Y-133010440D03*
X96840870Y-212812215D03*
G04 #@! TO.N,/USB-C/USB1_D_N*
X70000000Y-132389560D03*
X89889560Y-222700000D03*
G04 #@! TO.N,/USB-C/USB1_D_P*
X70000000Y-131810440D03*
X89310440Y-222700000D03*
G04 #@! TO.N,/Smart Card/SMARTCARD_D_N*
X82438476Y-167632508D03*
X74389560Y-193550000D03*
G04 #@! TO.N,/Smart Card/SMARTCARD_D_P*
X81859356Y-167632508D03*
X73810440Y-193550000D03*
G04 #@! TO.N,Net-(C447-Pad1)*
X123725000Y-95750000D03*
X123000000Y-92975000D03*
G04 #@! TO.N,/CAPTOUCH_~RST*
X65850000Y-217000000D03*
G04 #@! TO.N,/MUTE*
X146700000Y-211500000D03*
X77400000Y-146700000D03*
G04 #@! TO.N,/MIPI/I2C3_SDA_1V8*
X144700000Y-115200000D03*
X82740000Y-149950000D03*
X82360000Y-220600000D03*
X97400000Y-144800000D03*
G04 #@! TO.N,/MIPI/I2C3_SCL_1V8*
X144100000Y-115200000D03*
X82345831Y-147400000D03*
X81360000Y-221100000D03*
X97400000Y-143800000D03*
G04 #@! TO.N,/I2C3_SCL*
X132200000Y-209484213D03*
X75400000Y-145790000D03*
X65222920Y-144800000D03*
X64300000Y-125700000D03*
X145100000Y-223650000D03*
X70022920Y-145670000D03*
X72800000Y-145670000D03*
G04 #@! TO.N,/MIC_SEL*
X137600000Y-221300000D03*
X74400000Y-145200000D03*
G04 #@! TO.N,/I2C3_SDA*
X132176472Y-208847684D03*
X76460000Y-145350000D03*
X70007389Y-144476318D03*
X64300000Y-124900000D03*
X143225000Y-224015000D03*
G04 #@! TO.N,/I2C1_SCL*
X82342800Y-133900000D03*
X103750000Y-173750000D03*
X67110000Y-142700000D03*
X117387000Y-169987000D03*
X84927080Y-136522920D03*
G04 #@! TO.N,/I2C1_SDA*
X81758597Y-133900000D03*
X81777895Y-137200000D03*
X103447000Y-174250000D03*
X114687000Y-169987000D03*
X68810000Y-142322916D03*
G04 #@! TO.N,Net-(C1823-Pad1)*
X111300000Y-93400000D03*
X112273846Y-92209565D03*
G04 #@! TO.N,/SAI1_TXD0(GPIO4_IO12)*
X68679050Y-145045919D03*
G04 #@! TO.N,/HDMI/HDMI_HEAC_P*
X100692100Y-232217389D03*
X104974783Y-228904039D03*
G04 #@! TO.N,/HDMI/HDMI_HEAC_N*
X100107900Y-232217389D03*
X104390583Y-228904039D03*
X71040000Y-170150000D03*
G04 #@! TO.N,/HDMI/HDMI_AUX_AC_P*
X104292100Y-226100000D03*
G04 #@! TO.N,/HDMI/HDMI_AUX_AC_N*
X103707900Y-226100000D03*
G04 #@! TO.N,Net-(J1502-Pad20)*
X91450000Y-108450000D03*
X70100000Y-112300000D03*
G04 #@! TO.N,/WLAN+BT M.2/M2_UART_RXD*
X130300000Y-114800000D03*
X121874155Y-120635756D03*
G04 #@! TO.N,/WLAN+BT M.2/M2_UART_TXD*
X128500000Y-115800000D03*
X121310683Y-120481477D03*
G04 #@! TO.N,/WLAN+BT M.2/M2_UART_RTS*
X120726826Y-120501825D03*
X127987989Y-116096961D03*
G04 #@! TO.N,/WLAN+BT M.2/M2_UART_CTS*
X120142618Y-120499858D03*
X127446215Y-115878367D03*
G04 #@! TO.N,/USB Hub + SDIO Bridge/D0_P*
X82489560Y-163200000D03*
X82617402Y-169277842D03*
G04 #@! TO.N,/USB Hub + SDIO Bridge/D0_N*
X81910440Y-163200000D03*
X82038282Y-169277842D03*
D39*
G04 #@! TO.N,22V4_P*
X141025000Y-99150000D03*
X140000000Y-98125000D03*
X142368990Y-99150000D03*
D38*
X131050000Y-170300000D03*
X131050000Y-169750000D03*
X131550000Y-169250000D03*
X132150000Y-169250000D03*
X132750000Y-169250000D03*
X132150000Y-168700000D03*
X132750000Y-168700000D03*
X132750000Y-168150000D03*
X130500000Y-170300000D03*
G04 #@! TD*
D40*
G04 #@! TO.N,*
X79075000Y-93425000D02*
X80775000Y-93425000D01*
X82275000Y-93425000D02*
X83575000Y-93425000D01*
X86575000Y-93425000D02*
X86575000Y-95125000D01*
X79075000Y-95125000D02*
X79075000Y-93425000D01*
X88075000Y-93425000D02*
X88075000Y-95125000D01*
X82275000Y-95125000D02*
X80775000Y-95125000D01*
X88075000Y-95125000D02*
X83575000Y-95125000D01*
X80775000Y-95125000D02*
X79075000Y-95125000D01*
X85075000Y-93425000D02*
X85075000Y-95125000D01*
X80575000Y-93425000D02*
X80575000Y-95125000D01*
X83575000Y-93425000D02*
X83575000Y-95125000D01*
X80775000Y-93425000D02*
X82275000Y-93425000D01*
X83575000Y-95125000D02*
X82275000Y-95125000D01*
X82075000Y-93425000D02*
X82075000Y-95125000D01*
X83575000Y-93425000D02*
X88075000Y-93425000D01*
G04 #@! TO.N,GND*
X70500000Y-155500000D02*
X69900000Y-156100000D01*
X71400000Y-155500000D02*
X70500000Y-155500000D01*
X86000000Y-154200000D02*
X86500000Y-154200000D01*
X86500000Y-154200000D02*
X86700000Y-154000000D01*
X86700000Y-154000000D02*
X89700000Y-154000000D01*
X89700000Y-154000000D02*
X94600000Y-149100000D01*
X94600000Y-149100000D02*
X94900000Y-149100000D01*
X94900000Y-149100000D02*
X95300000Y-148700000D01*
X94400000Y-148000000D02*
X94400000Y-148000000D01*
X86400000Y-153100000D02*
X86000000Y-153100000D01*
X94500000Y-147900000D02*
X94000000Y-148400000D01*
X94000000Y-148400000D02*
X94000000Y-148800000D01*
X94000000Y-148800000D02*
X89400000Y-153400000D01*
X86700000Y-153400000D02*
X86400000Y-153100000D01*
X89400000Y-153400000D02*
X86700000Y-153400000D01*
X98500000Y-142400000D02*
X114400000Y-142400000D01*
X98500000Y-142400000D02*
X98600000Y-142400000D01*
X115200000Y-141600000D02*
X115400000Y-141400000D01*
X114400000Y-142400000D02*
X115200000Y-141600000D01*
X115600000Y-142000000D02*
X115700000Y-141900000D01*
X79500000Y-155100000D02*
X79300000Y-154900000D01*
X79300000Y-154900000D02*
X76100000Y-154900000D01*
X72200000Y-155500000D02*
X71400000Y-155500000D01*
X72400000Y-155300000D02*
X72200000Y-155500000D01*
X76100000Y-154900000D02*
X75700000Y-155300000D01*
X75700000Y-155300000D02*
X72400000Y-155300000D01*
X71200000Y-155300000D02*
X71400000Y-155500000D01*
X71200000Y-154800000D02*
X71200000Y-155300000D01*
X71500000Y-154500000D02*
X71200000Y-154800000D01*
X79800000Y-153900000D02*
X79400000Y-154300000D01*
X79400000Y-154300000D02*
X75800000Y-154300000D01*
X75800000Y-154300000D02*
X75400000Y-154700000D01*
X75400000Y-154700000D02*
X72450000Y-154700000D01*
X72450000Y-154700000D02*
X72250000Y-154500000D01*
X72250000Y-154500000D02*
X71500000Y-154500000D01*
X128200000Y-127700000D02*
X127300000Y-128600000D01*
X129100000Y-127900000D02*
X128900000Y-127700000D01*
X129500000Y-127900000D02*
X129100000Y-127900000D01*
X129800000Y-127200000D02*
X129800000Y-127600000D01*
X129500000Y-126900000D02*
X129800000Y-127200000D01*
X129800000Y-127600000D02*
X129500000Y-127900000D01*
X126700000Y-130100000D02*
X126700000Y-128300000D01*
X129100000Y-126900000D02*
X129500000Y-126900000D01*
X127300000Y-130300000D02*
X115600000Y-142000000D01*
X115200000Y-141600000D02*
X126700000Y-130100000D01*
X127300000Y-128600000D02*
X127300000Y-130300000D01*
X126700000Y-128300000D02*
X127900000Y-127100000D01*
X127900000Y-127100000D02*
X128900000Y-127100000D01*
X128900000Y-127700000D02*
X128200000Y-127700000D01*
X128900000Y-127100000D02*
X129100000Y-126900000D01*
X141300000Y-114100000D02*
X139600000Y-115800000D01*
X143900000Y-112200000D02*
X142000000Y-114100000D01*
X144050000Y-111250000D02*
X144350000Y-111550000D01*
X143650000Y-111250000D02*
X144050000Y-111250000D01*
X129000000Y-128200000D02*
X129600000Y-128200000D01*
X138100000Y-117900000D02*
X138100000Y-119300000D01*
X137500000Y-117700000D02*
X139000000Y-116200000D01*
X144100000Y-112200000D02*
X143900000Y-112200000D01*
X128900000Y-128100000D02*
X129000000Y-128200000D01*
X144350000Y-111950000D02*
X144100000Y-112200000D01*
X128200000Y-128100000D02*
X128900000Y-128100000D01*
X127700000Y-129000000D02*
X127700000Y-128600000D01*
X129600000Y-128200000D02*
X130200000Y-127600000D01*
X138100000Y-119300000D02*
X130800000Y-126600000D01*
X139000000Y-116200000D02*
X139000000Y-115600000D01*
X144350000Y-111550000D02*
X144350000Y-111950000D01*
X127700000Y-128600000D02*
X128200000Y-128100000D01*
X142000000Y-114100000D02*
X141300000Y-114100000D01*
X130200000Y-127600000D02*
X130200000Y-126400000D01*
X139600000Y-115800000D02*
X139600000Y-116400000D01*
X130200000Y-126400000D02*
X137500000Y-119100000D01*
X139600000Y-116400000D02*
X138100000Y-117900000D01*
X137500000Y-119100000D02*
X137500000Y-117700000D01*
X130800000Y-126600000D02*
X130800000Y-128000000D01*
X139000000Y-115600000D02*
X141100000Y-113500000D01*
X130800000Y-128000000D02*
X129600000Y-129200000D01*
X141100000Y-113500000D02*
X141700000Y-113500000D01*
X129600000Y-129200000D02*
X127900000Y-129200000D01*
X141700000Y-113500000D02*
X143400000Y-111800000D01*
X127900000Y-129200000D02*
X127700000Y-129000000D01*
X143400000Y-111800000D02*
X143400000Y-111500000D01*
X143400000Y-111500000D02*
X143650000Y-111250000D01*
X97300000Y-142400000D02*
X98500000Y-142400000D01*
X95800000Y-146000000D02*
X95800000Y-143900000D01*
X95800000Y-143900000D02*
X97300000Y-142400000D01*
X97500000Y-143000000D02*
X114600000Y-143000000D01*
X114600000Y-143000000D02*
X115600000Y-142000000D01*
X96800000Y-146000000D02*
X96800000Y-143700000D01*
X96800000Y-143700000D02*
X97500000Y-143000000D01*
X108600000Y-204100000D02*
X108600000Y-207700000D01*
X107500000Y-207700000D02*
X107800000Y-208000000D01*
X107500000Y-204600000D02*
X107500000Y-207700000D01*
X105918000Y-201168000D02*
X105918000Y-203018000D01*
X105918000Y-203018000D02*
X107500000Y-204600000D01*
X106934000Y-200152000D02*
X105918000Y-201168000D01*
X85623262Y-156123262D02*
X113683256Y-156123262D01*
X106934000Y-202434000D02*
X108600000Y-204100000D01*
X108600000Y-207700000D02*
X108300000Y-208000000D01*
X120526738Y-162966744D02*
X120526738Y-199323262D01*
X85400000Y-155900000D02*
X85623262Y-156123262D01*
X107800000Y-208000000D02*
X108300000Y-208000000D01*
X106934000Y-201676000D02*
X106934000Y-202434000D01*
X113683256Y-156123262D02*
X120526738Y-162966744D01*
X120526738Y-199323262D02*
X119698000Y-200152000D01*
X121050000Y-199650000D02*
X119950000Y-200750000D01*
X119698000Y-200152000D02*
X106934000Y-200152000D01*
X107860000Y-200750000D02*
X106934000Y-201676000D01*
X113900000Y-155600000D02*
X121050000Y-162750000D01*
X119950000Y-200750000D02*
X107860000Y-200750000D01*
X121050000Y-162750000D02*
X121050000Y-199650000D01*
X86300000Y-155600000D02*
X113900000Y-155600000D01*
X85500000Y-154800000D02*
X86300000Y-155600000D01*
D41*
G04 #@! TO.N,3V3_OUT*
X139900000Y-160900000D02*
X137700000Y-160900000D01*
X122259210Y-162800000D02*
X121900000Y-162800000D01*
X137700000Y-160900000D02*
X135800000Y-162800000D01*
X135800000Y-162800000D02*
X122259210Y-162800000D01*
X114659210Y-172200000D02*
X114300000Y-172200000D01*
X116559210Y-172200000D02*
X114659210Y-172200000D01*
X118537000Y-170222210D02*
X116559210Y-172200000D01*
X118537000Y-162800000D02*
X118537000Y-170222210D01*
X99046001Y-168546005D02*
X99300000Y-168800004D01*
X98199996Y-167700000D02*
X99046001Y-168546005D01*
X97290400Y-167700000D02*
X98199996Y-167700000D01*
G04 #@! TO.N,/ENET_2V5*
X126800000Y-213700000D02*
X125849470Y-213700000D01*
X123715799Y-209958738D02*
X123816967Y-209857570D01*
X123715799Y-211566329D02*
X123715799Y-209958738D01*
X125849470Y-213700000D02*
X123715799Y-211566329D01*
X123715799Y-211566329D02*
X116343419Y-211566329D01*
X116343419Y-211566329D02*
X115400010Y-210622920D01*
X109650000Y-204700000D02*
X109887045Y-204462955D01*
X113962955Y-211462955D02*
X114500000Y-212000000D01*
X113962955Y-204462955D02*
X113962955Y-211462955D01*
X109887045Y-204462955D02*
X113962955Y-204462955D01*
X108700000Y-218376711D02*
X108700000Y-218700000D01*
X108700000Y-214100000D02*
X108700000Y-218376711D01*
X110015799Y-212784201D02*
X108700000Y-214100000D01*
X114500000Y-212000000D02*
X113715799Y-212784201D01*
X113715799Y-212784201D02*
X110015799Y-212784201D01*
G04 #@! TO.N,1V8_P*
X140300000Y-106950000D02*
X142449000Y-106950000D01*
X139750000Y-107500000D02*
X140300000Y-106950000D01*
X146322989Y-115346001D02*
X146068990Y-115600000D01*
X146666960Y-115002030D02*
X146322989Y-115346001D01*
X142449000Y-106950000D02*
X143399000Y-106000000D01*
X146666960Y-108366960D02*
X146666960Y-115002030D01*
X144300000Y-106000000D02*
X146666960Y-108366960D01*
X143399000Y-106000000D02*
X144300000Y-106000000D01*
G04 #@! TO.N,Net-(C216-Pad2)*
X94930000Y-230150000D02*
X94930000Y-229544022D01*
X94930000Y-229544022D02*
X95474022Y-229000000D01*
X95474022Y-229000000D02*
X96612500Y-229000000D01*
X86670000Y-230450000D02*
X86670000Y-230150000D01*
X88010399Y-231790399D02*
X86670000Y-230450000D01*
X94930000Y-230450000D02*
X93589601Y-231790399D01*
X94930000Y-230150000D02*
X94930000Y-230450000D01*
X88010399Y-231790399D02*
X93589601Y-231790399D01*
G04 #@! TO.N,3V3_P*
X137500000Y-219959210D02*
X137500000Y-219600000D01*
X137000000Y-220459210D02*
X137500000Y-219959210D01*
X137000000Y-221700000D02*
X137000000Y-220459210D01*
X137925000Y-222100000D02*
X137400000Y-222100000D01*
X137400000Y-222100000D02*
X137000000Y-221700000D01*
X135000000Y-224900000D02*
X135200000Y-224900000D01*
X136400000Y-223700000D02*
X137500000Y-223700000D01*
X135200000Y-224900000D02*
X136400000Y-223700000D01*
X135245246Y-116154754D02*
X135245246Y-116122622D01*
X133900000Y-117422920D02*
X133977080Y-117422920D01*
X133977080Y-117422920D02*
X135245246Y-116154754D01*
X133890399Y-117432521D02*
X133900000Y-117422920D01*
X113400000Y-115612500D02*
X114150000Y-116362500D01*
X113759210Y-116362500D02*
X114150000Y-116362500D01*
X113400000Y-116362500D02*
X113759210Y-116362500D01*
X114757500Y-116220000D02*
X113400000Y-114862500D01*
X114757500Y-116970000D02*
X114757500Y-116220000D01*
X114757500Y-116970000D02*
X115210420Y-117422920D01*
X114150000Y-116362500D02*
X114757500Y-116970000D01*
X113400000Y-114862500D02*
X113400000Y-115270000D01*
X113400000Y-114862500D02*
X113400000Y-115280000D01*
X113400000Y-115280000D02*
X115542920Y-117422920D01*
X115210420Y-117422920D02*
X115542920Y-117422920D01*
X133880798Y-117422920D02*
X133890399Y-117432521D01*
X115542920Y-117422920D02*
X133880798Y-117422920D01*
X124103999Y-123268999D02*
X123850000Y-123015000D01*
X124244601Y-123409601D02*
X124103999Y-123268999D01*
X128871790Y-123150000D02*
X128612189Y-123409601D01*
X123715000Y-123150000D02*
X123850000Y-123015000D01*
X122450000Y-123150000D02*
X123715000Y-123150000D01*
X128871790Y-123150000D02*
X129231000Y-123150000D01*
X130309000Y-124228000D02*
X129231000Y-123150000D01*
X130309000Y-125549000D02*
X130309000Y-124228000D01*
X128612189Y-123409601D02*
X126363000Y-123409601D01*
X126363000Y-123409601D02*
X124244601Y-123409601D01*
X127609601Y-123409601D02*
X126363000Y-123409601D01*
X129495001Y-125295001D02*
X127609601Y-123409601D01*
X130309000Y-125549000D02*
X130055001Y-125295001D01*
X130055001Y-125295001D02*
X129495001Y-125295001D01*
X123850000Y-123015000D02*
X122700000Y-121865000D01*
X122700000Y-121865000D02*
X122700000Y-120459212D01*
X122700000Y-120459212D02*
X122700000Y-120100002D01*
X126705991Y-120984201D02*
X128871790Y-123150000D01*
X122700000Y-120100002D02*
X123502212Y-120100002D01*
X123502212Y-120100002D02*
X124386411Y-120984201D01*
X124386411Y-120984201D02*
X126705991Y-120984201D01*
X136400000Y-117277376D02*
X135245246Y-116122622D01*
X135500000Y-120400000D02*
X136400000Y-119500000D01*
X136400000Y-119500000D02*
X136400000Y-117277376D01*
X133890399Y-119290399D02*
X133890399Y-117432521D01*
X135500000Y-120400000D02*
X135000000Y-120400000D01*
X135000000Y-120400000D02*
X133890399Y-119290399D01*
D40*
G04 #@! TO.N,Net-(C416-Pad1)*
X121050000Y-150650000D02*
X123250000Y-150650000D01*
X119057500Y-152613000D02*
X119087000Y-152613000D01*
X119087000Y-152613000D02*
X121050000Y-150650000D01*
D41*
G04 #@! TO.N,2V8_P*
X137597101Y-101497101D02*
X139200000Y-103100000D01*
X121100000Y-98825000D02*
X123772101Y-101497101D01*
X139200000Y-103100000D02*
X141500000Y-103100000D01*
X123772101Y-101497101D02*
X137597101Y-101497101D01*
X141500000Y-103100000D02*
X142500000Y-104100000D01*
X144800000Y-107550000D02*
X143900000Y-106650000D01*
X144800000Y-112900000D02*
X144800000Y-107550000D01*
X140510000Y-116060000D02*
X141640000Y-116060000D01*
X141640000Y-116060000D02*
X144800000Y-112900000D01*
G04 #@! TO.N,3V3_SNVS*
X143700000Y-157275990D02*
X143700000Y-151700000D01*
X140800000Y-148800000D02*
X140159210Y-148800000D01*
X140159210Y-148800000D02*
X139800000Y-148800000D01*
X141435000Y-186800000D02*
X146400000Y-181835000D01*
X143700000Y-151700000D02*
X140800000Y-148800000D01*
X146400000Y-159975990D02*
X143700000Y-157275990D01*
X146400000Y-181835000D02*
X146400000Y-159975990D01*
G04 #@! TO.N,3V3_SD*
X81340790Y-221800000D02*
X81340790Y-224040798D01*
X81340790Y-224040798D02*
X81845993Y-224546001D01*
X81845993Y-224546001D02*
X82099992Y-224800000D01*
X76950000Y-233950000D02*
X76950000Y-222700000D01*
X76950000Y-222700000D02*
X76950000Y-221800000D01*
X82100006Y-221800000D02*
X80100000Y-221800000D01*
X80100000Y-221800000D02*
X71987500Y-221800000D01*
X80100000Y-219600000D02*
X80100000Y-221800000D01*
X81600000Y-176800000D02*
X81600000Y-218100000D01*
X81600000Y-218100000D02*
X80100000Y-219600000D01*
D40*
G04 #@! TO.N,/SD2_~RST*
X75300000Y-165900000D02*
X75300000Y-168150000D01*
X115500014Y-98323289D02*
X115500014Y-98000000D01*
X115500014Y-112900014D02*
X115500014Y-98323289D01*
X119123480Y-116523480D02*
X115500014Y-112900014D01*
X128464699Y-116523480D02*
X119123480Y-116523480D01*
X129838369Y-115900000D02*
X129088179Y-115900000D01*
X129088179Y-115900000D02*
X128464699Y-116523480D01*
X115550000Y-154800000D02*
X115500000Y-154850000D01*
X119059996Y-154800000D02*
X115550000Y-154800000D01*
X123800000Y-155700000D02*
X125100000Y-157000000D01*
X119959996Y-155700000D02*
X123800000Y-155700000D01*
X129300000Y-157000000D02*
X125100000Y-157000000D01*
X119959996Y-155700000D02*
X119059996Y-154800000D01*
G04 #@! TO.N,/USB Hub + SDIO Bridge/RDRV5*
X85200000Y-174300000D02*
X86400000Y-173100000D01*
X86400000Y-171473289D02*
X86400000Y-171150000D01*
X86400000Y-173100000D02*
X86400000Y-171473289D01*
G04 #@! TO.N,Net-(C1301-Pad1)*
X145700000Y-117675000D02*
X148600000Y-120575000D01*
X148600000Y-120575000D02*
X148600000Y-155400000D01*
X148600000Y-155400000D02*
X148200000Y-155800000D01*
X148200000Y-155800000D02*
X146300000Y-155800000D01*
X146300000Y-155800000D02*
X144700000Y-154200000D01*
G04 #@! TO.N,/SYS_~RST*
X71250000Y-160200000D02*
X71250000Y-164300000D01*
X69400000Y-158350000D02*
X71250000Y-160200000D01*
X73100000Y-166150000D02*
X73100000Y-184450000D01*
X69400000Y-155174091D02*
X69400000Y-158350000D01*
X68100000Y-153100000D02*
X68100000Y-153874091D01*
X70100000Y-146500000D02*
X70622911Y-147022911D01*
X69400000Y-146500000D02*
X70100000Y-146500000D01*
X70622911Y-147022911D02*
X70622911Y-150577089D01*
X70622911Y-150577089D02*
X68100000Y-153100000D01*
X71250000Y-164300000D02*
X73100000Y-166150000D01*
X68100000Y-153874091D02*
X69400000Y-155174091D01*
G04 #@! TO.N,/ONOFF*
X111299998Y-158799998D02*
X111299998Y-157400000D01*
X117850000Y-165350000D02*
X111299998Y-158799998D01*
X106850000Y-176600000D02*
X106850000Y-175624091D01*
X106800000Y-176650000D02*
X106850000Y-176600000D01*
X106850000Y-175624091D02*
X111274091Y-171200000D01*
X111274091Y-171200000D02*
X116900000Y-171200000D01*
X116900000Y-171200000D02*
X117850000Y-170250000D01*
X117850000Y-170250000D02*
X117850000Y-165350000D01*
X64100000Y-122928599D02*
X61300000Y-120128599D01*
X61300000Y-120128599D02*
X61300000Y-116700000D01*
X64100000Y-124000000D02*
X64100000Y-122928599D01*
X67588370Y-127488370D02*
X64100000Y-124000000D01*
X66600000Y-143130000D02*
X66600000Y-142100000D01*
X67900000Y-138050000D02*
X67588370Y-137738370D01*
X67152000Y-143682000D02*
X66600000Y-143130000D01*
X67900000Y-140800000D02*
X67900000Y-138050000D01*
X66600000Y-142100000D02*
X67900000Y-140800000D01*
X67588370Y-137738370D02*
X67588370Y-127488370D01*
X69446056Y-143300000D02*
X71000000Y-143300000D01*
X69036238Y-142890182D02*
X69446056Y-143300000D01*
X67518000Y-143682000D02*
X68309818Y-142890182D01*
X67152000Y-143682000D02*
X67518000Y-143682000D01*
X78520000Y-143900000D02*
X78940000Y-144320000D01*
X68309818Y-142890182D02*
X69036238Y-142890182D01*
X71000000Y-143300000D02*
X71600000Y-143900000D01*
X71600000Y-143900000D02*
X78520000Y-143900000D01*
X78940000Y-144320000D02*
X78940000Y-145940000D01*
X78940000Y-145940000D02*
X79471401Y-146471401D01*
X79471401Y-146471401D02*
X79700000Y-146700000D01*
D41*
G04 #@! TO.N,Net-(C1604-Pad1)*
X139200000Y-209450000D02*
X139200000Y-207873289D01*
X138550000Y-210100000D02*
X139200000Y-209450000D01*
X139200000Y-207873289D02*
X139200000Y-207550000D01*
X134500000Y-211500000D02*
X134500000Y-211450000D01*
X136050000Y-209900000D02*
X137800000Y-209900000D01*
X137800000Y-209900000D02*
X138000000Y-210100000D01*
X134500000Y-211450000D02*
X136050000Y-209900000D01*
X138000000Y-210100000D02*
X138550000Y-210100000D01*
D40*
G04 #@! TO.N,Net-(C1606-Pad1)*
X135877080Y-211746209D02*
X135877080Y-211422920D01*
X135877080Y-213242920D02*
X135877080Y-211746209D01*
X135220000Y-213900000D02*
X135877080Y-213242920D01*
G04 #@! TO.N,Net-(C1607-Pad2)*
X140125002Y-214325002D02*
X140250500Y-214325002D01*
X136300000Y-210500000D02*
X140125002Y-214325002D01*
G04 #@! TO.N,Net-(C1608-Pad1)*
X134980000Y-213100000D02*
X133010000Y-211130000D01*
X133010000Y-211130000D02*
X133010000Y-210820000D01*
G04 #@! TO.N,Net-(C1622-Pad1)*
X138300000Y-209500000D02*
X138300000Y-206200000D01*
X138300000Y-206200000D02*
X136470000Y-204370000D01*
X136470000Y-204370000D02*
X136470000Y-186100000D01*
D41*
G04 #@! TO.N,Net-(C1703-Pad1)*
X118500000Y-213900000D02*
X121900000Y-213900000D01*
X123219324Y-212580676D02*
X123219324Y-212495315D01*
X121900000Y-213900000D02*
X123219324Y-212580676D01*
X118500000Y-213900000D02*
X113500000Y-213900000D01*
D40*
G04 #@! TO.N,/Ethernet/LED_ACT*
X112314089Y-213460000D02*
X121490000Y-213460000D01*
X121490000Y-213460000D02*
X122021401Y-212928599D01*
X110000000Y-219200000D02*
X110000000Y-215774089D01*
X122021401Y-212928599D02*
X122250000Y-212700000D01*
X110000000Y-215774089D02*
X112314089Y-213460000D01*
D42*
G04 #@! TO.N,Net-(C1711-Pad1)*
X114850000Y-210123289D02*
X114850000Y-209800000D01*
X115800000Y-212699994D02*
X115800000Y-211750000D01*
X115078599Y-209571401D02*
X114850000Y-209800000D01*
X115800000Y-211750000D02*
X114850000Y-210800000D01*
X115750000Y-208900000D02*
X115078599Y-209571401D01*
X115750000Y-205280000D02*
X115750000Y-208900000D01*
X114850000Y-210800000D02*
X114850000Y-210123289D01*
X119376711Y-213025000D02*
X119700000Y-213025000D01*
X116125006Y-213025000D02*
X119376711Y-213025000D01*
X115800000Y-212699994D02*
X116125006Y-213025000D01*
D41*
G04 #@! TO.N,/Ethernet/ENET_1V1*
X118199988Y-204800000D02*
X117700000Y-205299988D01*
X118700000Y-204800000D02*
X118199988Y-204800000D01*
G04 #@! TO.N,Net-(C1719-Pad1)*
X113085000Y-218810000D02*
X113085000Y-217500000D01*
X113085000Y-217500000D02*
X125900000Y-217500000D01*
X113085000Y-217500000D02*
X111159210Y-217500000D01*
X111159210Y-217500000D02*
X110800000Y-217500000D01*
D43*
G04 #@! TO.N,/USB1_SS_SEL*
X122050957Y-200049043D02*
X122049043Y-200049043D01*
D40*
X122500000Y-199600000D02*
X122050957Y-200049043D01*
X122500000Y-177050000D02*
X122500000Y-199600000D01*
X128600000Y-170950000D02*
X122500000Y-177050000D01*
X141000000Y-154900000D02*
X140000000Y-155900000D01*
X137400000Y-164200000D02*
X134000000Y-164200000D01*
X140600000Y-161000000D02*
X137400000Y-164200000D01*
X128600000Y-169600000D02*
X128600000Y-170950000D01*
X140000000Y-159300000D02*
X140600000Y-159900000D01*
X140000000Y-155900000D02*
X140000000Y-159300000D01*
X140600000Y-159900000D02*
X140600000Y-161000000D01*
X134000000Y-164200000D02*
X128600000Y-169600000D01*
D44*
G04 #@! TO.N,/USB-C/CC2*
X83405862Y-231205862D02*
X83405862Y-174194138D01*
X83200000Y-159200000D02*
X83200000Y-129840000D01*
X84300000Y-232100000D02*
X83405862Y-231205862D01*
X85200000Y-172400000D02*
X85200000Y-161200000D01*
X83405862Y-174194138D02*
X85200000Y-172400000D01*
X85200000Y-161200000D02*
X83200000Y-159200000D01*
X83200000Y-129840000D02*
X82800000Y-129440000D01*
G04 #@! TO.N,/USB-C/CC1*
X83530211Y-130426999D02*
X83657210Y-130300000D01*
X83860554Y-220435554D02*
X83860554Y-174339446D01*
X89800000Y-226375000D02*
X83860554Y-220435554D01*
X83860554Y-174339446D02*
X85600000Y-172600000D01*
X85600000Y-172600000D02*
X85600000Y-161050000D01*
X85600000Y-161050000D02*
X83530211Y-158980211D01*
X83530211Y-158980211D02*
X83530211Y-130426999D01*
D40*
G04 #@! TO.N,/~IRQ*
X112065000Y-157400000D02*
X112050000Y-157400000D01*
X117836000Y-163186000D02*
X112278599Y-157628599D01*
X112278599Y-157628599D02*
X112050000Y-157400000D01*
X117837000Y-164572000D02*
X117836000Y-164571000D01*
X117836000Y-164571000D02*
X117836000Y-163186000D01*
G04 #@! TO.N,/POR_B*
X72400000Y-170080000D02*
X72400000Y-185000000D01*
X70900000Y-168580000D02*
X72400000Y-170080000D01*
X72400000Y-185000000D02*
X72940000Y-185540000D01*
X70900000Y-163250000D02*
X70900000Y-168580000D01*
X67036499Y-139100000D02*
X65800000Y-140336499D01*
X72421401Y-186478599D02*
X72421401Y-208621401D01*
X68000000Y-154700000D02*
X68000000Y-160350000D01*
X72940000Y-185540000D02*
X72940000Y-185960000D01*
X67110000Y-139100000D02*
X67036499Y-139100000D01*
X65800000Y-140336499D02*
X65800000Y-152500000D01*
X72940000Y-185960000D02*
X72421401Y-186478599D01*
X65800000Y-152500000D02*
X68000000Y-154700000D01*
X72421401Y-208621401D02*
X72650000Y-208850000D01*
X68000000Y-160350000D02*
X70900000Y-163250000D01*
G04 #@! TO.N,Net-(D1302-Pad2)*
X69816711Y-148310000D02*
X70140000Y-148310000D01*
X69462920Y-148310000D02*
X69816711Y-148310000D01*
X66222920Y-151550000D02*
X69462920Y-148310000D01*
X145565824Y-113539113D02*
X145565824Y-113215824D01*
X145565824Y-115708265D02*
X145565824Y-113539113D01*
X143835720Y-117438369D02*
X145565824Y-115708265D01*
X141161631Y-117438369D02*
X143835720Y-117438369D01*
X140400000Y-118200000D02*
X141161631Y-117438369D01*
X139900000Y-118200000D02*
X140400000Y-118200000D01*
X139000000Y-119600000D02*
X139000000Y-119100000D01*
X139000000Y-119100000D02*
X139900000Y-118200000D01*
X128700000Y-130600000D02*
X130700000Y-130600000D01*
X113700000Y-145600000D02*
X128700000Y-130600000D01*
X97400000Y-145600000D02*
X113700000Y-145600000D01*
X133000000Y-128300000D02*
X133000000Y-125600000D01*
X130700000Y-130600000D02*
X133000000Y-128300000D01*
X133000000Y-125600000D02*
X139000000Y-119600000D01*
G04 #@! TO.N,Net-(D1502-Pad2)*
X139600000Y-147500000D02*
X139800000Y-147500000D01*
X139600000Y-147500000D02*
X140210000Y-147500000D01*
X148000000Y-155290000D02*
X148000000Y-155300000D01*
X140210000Y-147500000D02*
X148000000Y-155290000D01*
X75128599Y-119728599D02*
X74900000Y-119500000D01*
X75628599Y-120228599D02*
X75128599Y-119728599D01*
X75628599Y-123254508D02*
X75628599Y-120228599D01*
X96000000Y-147500000D02*
X87100000Y-138600000D01*
X139600000Y-147500000D02*
X96000000Y-147500000D01*
X87100000Y-138600000D02*
X87100000Y-130000000D01*
X83200000Y-126100000D02*
X78474091Y-126100000D01*
X87100000Y-130000000D02*
X83200000Y-126100000D01*
X78474091Y-126100000D02*
X75628599Y-123254508D01*
G04 #@! TO.N,/ENET_~RST*
X86422000Y-157378000D02*
X86891845Y-156908155D01*
X85500000Y-157378000D02*
X86422000Y-157378000D01*
X105410000Y-209610000D02*
X106271401Y-210471401D01*
X113358145Y-156908155D02*
X119700000Y-163250010D01*
X119700000Y-163250010D02*
X119700000Y-186624000D01*
X119700000Y-186624000D02*
X105410000Y-200914000D01*
X105410000Y-200914000D02*
X105410000Y-209610000D01*
X106271401Y-210471401D02*
X106500000Y-210700000D01*
X86891845Y-156908155D02*
X113358145Y-156908155D01*
G04 #@! TO.N,Net-(D1801-Pad2)*
X114028599Y-97128595D02*
X114028599Y-111928599D01*
X114028599Y-111928599D02*
X119100000Y-117000000D01*
X113300000Y-96399996D02*
X114028599Y-97128595D01*
X131411401Y-116388601D02*
X131640000Y-116160002D01*
X130800002Y-117000000D02*
X131411401Y-116388601D01*
X119100000Y-117000000D02*
X130800002Y-117000000D01*
G04 #@! TO.N,Net-(D1803-Pad2)*
X144350002Y-145400002D02*
X147850000Y-148900000D01*
X122700000Y-145400002D02*
X144350002Y-145400002D01*
X118800000Y-141500000D02*
X118800000Y-141500002D01*
X118800000Y-141500002D02*
X122700000Y-145400002D01*
X113150000Y-101050000D02*
X109600000Y-97500000D01*
X113150000Y-108150000D02*
X113150000Y-101050000D01*
X116700000Y-139400000D02*
X115800000Y-138500000D01*
X112900000Y-117950000D02*
X112900000Y-108400000D01*
X115800000Y-138500000D02*
X115800000Y-120850000D01*
X109600000Y-97500000D02*
X109600000Y-88500000D01*
X115800000Y-120850000D02*
X112900000Y-117950000D01*
X112900000Y-108400000D02*
X113150000Y-108150000D01*
G04 #@! TO.N,/HDMI_DDC_SDA*
X102300000Y-233210000D02*
X100600000Y-231510000D01*
X102300000Y-233550000D02*
X102300000Y-233210000D01*
X100600000Y-231510000D02*
X100600000Y-230073289D01*
X100600000Y-230073289D02*
X100600000Y-229750000D01*
X100371401Y-229521401D02*
X100600000Y-229750000D01*
X99950000Y-229100000D02*
X100371401Y-229521401D01*
X98292000Y-229100000D02*
X99950000Y-229100000D01*
X85050000Y-229737149D02*
X86679149Y-228108000D01*
X70850000Y-169300000D02*
X71750000Y-170200000D01*
X69300000Y-167750000D02*
X69300000Y-168800000D01*
X82650000Y-234750000D02*
X85050000Y-232350000D01*
X86679149Y-228108000D02*
X97300000Y-228108000D01*
X71750000Y-170200000D02*
X71750000Y-195450000D01*
X97300000Y-228108000D02*
X98292000Y-229100000D01*
X71750000Y-195450000D02*
X71000000Y-196200000D01*
X71000000Y-196200000D02*
X71000000Y-229150000D01*
X71000000Y-229150000D02*
X76600000Y-234750000D01*
X67110000Y-165560000D02*
X69300000Y-167750000D01*
X76600000Y-234750000D02*
X82650000Y-234750000D01*
X69800000Y-169300000D02*
X70850000Y-169300000D01*
X69300000Y-168800000D02*
X69800000Y-169300000D01*
X67110000Y-164100000D02*
X67110000Y-165560000D01*
X85050000Y-232350000D02*
X85050000Y-229737149D01*
G04 #@! TO.N,/HDMI_DDC_SCL*
X103800000Y-233550000D02*
X103800000Y-232350000D01*
X82560000Y-234440000D02*
X84750000Y-232250000D01*
X72050000Y-170100000D02*
X72050000Y-196500000D01*
X71500000Y-229163501D02*
X76776499Y-234440000D01*
X103800000Y-232350000D02*
X101578599Y-230128599D01*
X69950000Y-168950000D02*
X70900000Y-168950000D01*
X72050000Y-196500000D02*
X71500000Y-197050000D01*
X84750000Y-232250000D02*
X84750000Y-229650000D01*
X97700000Y-227842000D02*
X98658000Y-228800000D01*
X76776499Y-234440000D02*
X82560000Y-234440000D01*
X101121401Y-229671401D02*
X101350000Y-229900000D01*
X84750000Y-229650000D02*
X86558000Y-227842000D01*
X100250000Y-228800000D02*
X101121401Y-229671401D01*
X69650000Y-165340000D02*
X69650000Y-168650000D01*
X69650000Y-168650000D02*
X69950000Y-168950000D01*
X68810000Y-164500000D02*
X69650000Y-165340000D01*
X98658000Y-228800000D02*
X100250000Y-228800000D01*
X101578599Y-230128599D02*
X101350000Y-229900000D01*
X86558000Y-227842000D02*
X97700000Y-227842000D01*
X71500000Y-197050000D02*
X71500000Y-229163501D01*
X70900000Y-168950000D02*
X72050000Y-170100000D01*
G04 #@! TO.N,/HDMI/HDMI_CEC*
X102028599Y-232328599D02*
X101800000Y-232100000D01*
X102800000Y-233100000D02*
X102028599Y-232328599D01*
X71250000Y-194500000D02*
X69650000Y-196100000D01*
X102500000Y-234050000D02*
X102800000Y-233750000D01*
X71250000Y-183100000D02*
X71250000Y-194500000D01*
X64900000Y-176750000D02*
X71250000Y-183100000D01*
X64900000Y-171130000D02*
X64900000Y-176750000D01*
X66730000Y-169300000D02*
X64900000Y-171130000D01*
X96100000Y-237550000D02*
X96500000Y-237150000D01*
X98300000Y-234050000D02*
X102500000Y-234050000D01*
X69650000Y-228500000D02*
X76450000Y-235300000D01*
X83250000Y-235300000D02*
X85500000Y-237550000D01*
X76450000Y-235300000D02*
X83250000Y-235300000D01*
X85500000Y-237550000D02*
X96100000Y-237550000D01*
X96500000Y-237150000D02*
X96500000Y-235850000D01*
X69650000Y-196100000D02*
X69650000Y-228500000D01*
X96500000Y-235850000D02*
X98300000Y-234050000D01*
X102800000Y-233750000D02*
X102800000Y-233100000D01*
G04 #@! TO.N,/JTAG/JTAG_TMS*
X65071401Y-167228599D02*
X65300000Y-167000000D01*
X63400000Y-168900000D02*
X65071401Y-167228599D01*
X63400000Y-177300000D02*
X63400000Y-168900000D01*
X66000000Y-179900000D02*
X63400000Y-177300000D01*
X68590000Y-214140000D02*
X66000000Y-211550000D01*
X66000000Y-211550000D02*
X66000000Y-179900000D01*
G04 #@! TO.N,/JTAG/JTAG_TCK*
X66300000Y-210580000D02*
X68361401Y-212641401D01*
X66300000Y-179800000D02*
X66300000Y-210580000D01*
X63700000Y-177200000D02*
X66300000Y-179800000D01*
X68361401Y-212641401D02*
X68590000Y-212870000D01*
X66350000Y-166600000D02*
X63700000Y-169250000D01*
X63700000Y-169250000D02*
X63700000Y-177200000D01*
G04 #@! TO.N,/JTAG/JTAG_TDO*
X64000000Y-169600000D02*
X66771401Y-166828599D01*
X66600000Y-179700000D02*
X64000000Y-177100000D01*
X68590000Y-211600000D02*
X66600000Y-209610000D01*
X66771401Y-166828599D02*
X67000000Y-166600000D01*
X64000000Y-177100000D02*
X64000000Y-169600000D01*
X66600000Y-209610000D02*
X66600000Y-179700000D01*
G04 #@! TO.N,/JTAG/JTAG_TDI*
X64600000Y-176900000D02*
X64600000Y-170804091D01*
X67200000Y-179500000D02*
X64600000Y-176900000D01*
X69300000Y-204900000D02*
X67200000Y-202800000D01*
X69300000Y-209620000D02*
X69300000Y-204900000D01*
X64600000Y-170804091D02*
X67304091Y-168100000D01*
X67200000Y-202800000D02*
X67200000Y-179500000D01*
X68590000Y-210330000D02*
X69300000Y-209620000D01*
X67304091Y-168100000D02*
X68486711Y-168100000D01*
X68486711Y-168100000D02*
X68810000Y-168100000D01*
G04 #@! TO.N,/LCD_~RESET*
X145700000Y-156100000D02*
X144200000Y-154600000D01*
X148400000Y-156100000D02*
X145700000Y-156100000D01*
X149000000Y-155500000D02*
X148400000Y-156100000D01*
X149000000Y-102900000D02*
X149000000Y-155500000D01*
X148300000Y-102200000D02*
X149000000Y-102900000D01*
X145250000Y-102200000D02*
X148300000Y-102200000D01*
X144200000Y-154600000D02*
X144200000Y-153667389D01*
X142728385Y-105750000D02*
X143250000Y-105228385D01*
X144200000Y-153667389D02*
X144767389Y-153100000D01*
X143250000Y-105228385D02*
X143250000Y-103397447D01*
X141025000Y-105750000D02*
X142728385Y-105750000D01*
X143250000Y-103397447D02*
X143597447Y-103050000D01*
X143597447Y-103050000D02*
X144400000Y-103050000D01*
X144400000Y-103050000D02*
X145250000Y-102200000D01*
D41*
G04 #@! TO.N,/LCD_LEDK*
X144000000Y-99450000D02*
X145174998Y-99450000D01*
X145174998Y-99450000D02*
X145175000Y-99450002D01*
X145175000Y-99450002D02*
X144724998Y-99000000D01*
X144724998Y-99000000D02*
X144575000Y-99000000D01*
X144450000Y-99000000D02*
X144575000Y-99000000D01*
X144000000Y-99450000D02*
X144450000Y-99000000D01*
X126759000Y-177005700D02*
X127284000Y-177005700D01*
X126759000Y-177005700D02*
X126759000Y-177530700D01*
X126759000Y-177530700D02*
X127284000Y-177530700D01*
X127284000Y-177530700D02*
X127284000Y-177005700D01*
X127284000Y-177005700D02*
X126759000Y-177530700D01*
D40*
G04 #@! TO.N,Net-(J1301-Pad25)*
X143900000Y-111818886D02*
X143850000Y-111768886D01*
X143900000Y-111850000D02*
X143900000Y-111818886D01*
X139300000Y-116318886D02*
X139300000Y-115700000D01*
X139300000Y-115700000D02*
X141200000Y-113800000D01*
X130500000Y-127800000D02*
X130500000Y-126500000D01*
X129700000Y-128600000D02*
X130500000Y-127800000D01*
X128500000Y-128600000D02*
X129700000Y-128600000D01*
X141200000Y-113800000D02*
X141818886Y-113800000D01*
X130500000Y-126500000D02*
X137800000Y-119200000D01*
X141818886Y-113800000D02*
X143850000Y-111768886D01*
X137800000Y-119200000D02*
X137800000Y-117818886D01*
X137800000Y-117818886D02*
X139300000Y-116318886D01*
G04 #@! TO.N,/WWAN mPCIe/~WoWWAN_1V8*
X62700000Y-115300000D02*
X62000000Y-116000000D01*
X70900000Y-115300000D02*
X62700000Y-115300000D01*
G04 #@! TO.N,/WWAN mPCIe/~SIM_DETECT_O*
X68600000Y-108399998D02*
X86100006Y-108399998D01*
X86100006Y-108399998D02*
X86700000Y-107800004D01*
G04 #@! TO.N,/WWAN mPCIe/PCM_CLK*
X89500000Y-116400000D02*
X84628957Y-121271043D01*
X101200000Y-116400000D02*
X89500000Y-116400000D01*
X84628957Y-121271043D02*
X80276655Y-121271043D01*
G04 #@! TO.N,/WWAN mPCIe/PCM_IN*
X89200000Y-114100000D02*
X84200000Y-119100000D01*
X101500000Y-111900000D02*
X101500000Y-112413501D01*
X99813501Y-114100000D02*
X89200000Y-114100000D01*
X101500000Y-112413501D02*
X99813501Y-114100000D01*
X84200000Y-119100000D02*
X80300000Y-119100000D01*
G04 #@! TO.N,/WWAN mPCIe/PCM_OUT*
X89300000Y-114400000D02*
X83900000Y-119800000D01*
X100200000Y-114400000D02*
X89300000Y-114400000D01*
X102600000Y-112000000D02*
X100200000Y-114400000D01*
X83900000Y-119800000D02*
X80300000Y-119800000D01*
G04 #@! TO.N,/WWAN mPCIe/PCM_SYNC*
X103700000Y-112100000D02*
X101100000Y-114700000D01*
X90729998Y-114700000D02*
X84929998Y-120500000D01*
X101100000Y-114700000D02*
X90729998Y-114700000D01*
X84929998Y-120500000D02*
X80300010Y-120500000D01*
G04 #@! TO.N,/UART4_TXD*
X70334366Y-139100000D02*
X72800000Y-139100000D01*
G04 #@! TO.N,/UART4_CTS*
X68200000Y-136225911D02*
X68674089Y-136700000D01*
X68200000Y-134490922D02*
X68200000Y-136225911D01*
X69390922Y-133300000D02*
X68200000Y-134490922D01*
X69715469Y-133300000D02*
X69390922Y-133300000D01*
X73000000Y-132550000D02*
X70465469Y-132550000D01*
X70465469Y-132550000D02*
X69715469Y-133300000D01*
D41*
G04 #@! TO.N,Net-(L1701-Pad1)*
X115054236Y-206322475D02*
X115054236Y-206645764D01*
X115054236Y-204689618D02*
X115054236Y-206322475D01*
X112000000Y-203300000D02*
X113664618Y-203300000D01*
X113664618Y-203300000D02*
X115054236Y-204689618D01*
G04 #@! TO.N,Net-(MK1601-Pad2)*
X105100000Y-224600000D02*
X105100000Y-224591000D01*
X104900000Y-224800000D02*
X105100000Y-224600000D01*
X104900000Y-227432210D02*
X104900000Y-224800000D01*
X139375000Y-223100000D02*
X139375000Y-223423289D01*
X107467790Y-230000000D02*
X104900000Y-227432210D01*
X139375000Y-223423289D02*
X136998289Y-225800000D01*
X136998289Y-225800000D02*
X131700000Y-225800000D01*
X131700000Y-225800000D02*
X127500000Y-230000000D01*
X127500000Y-230000000D02*
X107467790Y-230000000D01*
D43*
G04 #@! TO.N,/Ethernet/ENET_TXC*
X137900000Y-175700000D02*
X137900000Y-172200000D01*
X136600000Y-181400000D02*
X136600000Y-177000000D01*
X129500000Y-188500000D02*
X136600000Y-181400000D01*
X129500000Y-201400000D02*
X129500000Y-188500000D01*
X129507521Y-201466756D02*
X129500000Y-201400000D01*
X129529709Y-201530165D02*
X129507521Y-201466756D01*
X129565450Y-201587046D02*
X129529709Y-201530165D01*
X129612953Y-201634549D02*
X129565450Y-201587046D01*
X129669834Y-201670290D02*
X129612953Y-201634549D01*
X129733243Y-201692478D02*
X129669834Y-201670290D01*
X129800000Y-201700000D02*
X129733243Y-201692478D01*
X130205485Y-201700000D02*
X129800000Y-201700000D01*
X130272241Y-201707521D02*
X130205485Y-201700000D01*
X130335650Y-201729709D02*
X130272241Y-201707521D01*
X130392531Y-201765450D02*
X130335650Y-201729709D01*
X130440034Y-201812953D02*
X130392531Y-201765450D01*
X130497963Y-201933243D02*
X130475775Y-201869834D01*
X130505485Y-202000000D02*
X130497963Y-201933243D01*
X130497963Y-202066756D02*
X130505485Y-202000000D01*
X130475775Y-202130165D02*
X130497963Y-202066756D01*
X130392531Y-202234549D02*
X130440034Y-202187046D01*
X130335650Y-202270290D02*
X130392531Y-202234549D01*
X130272241Y-202292478D02*
X130335650Y-202270290D01*
X130205485Y-202300000D02*
X130272241Y-202292478D01*
X129397257Y-202300000D02*
X130205485Y-202300000D01*
X129333199Y-202322415D02*
X129352679Y-202310174D01*
X129316931Y-202338683D02*
X129333199Y-202322415D01*
X129297091Y-202379879D02*
X129304690Y-202358163D01*
X129294515Y-202402742D02*
X129297091Y-202379879D01*
X129294515Y-202797258D02*
X129294515Y-202402742D01*
X128161724Y-204239076D02*
X128222249Y-204209930D01*
X128023220Y-204459504D02*
X128038168Y-204394010D01*
X128038167Y-204592178D02*
X128023219Y-204526684D01*
X128067315Y-204652704D02*
X128038167Y-204592178D01*
X128109201Y-204705225D02*
X128067315Y-204652704D01*
X129000841Y-205596864D02*
X128109201Y-204705225D01*
X129071873Y-205709913D02*
X129042726Y-205649387D01*
X130272241Y-202907521D02*
X130205485Y-202900000D01*
X128287744Y-204194980D02*
X128354922Y-204194981D01*
X129071873Y-205908080D02*
X129086822Y-205842586D01*
X128067316Y-204333484D02*
X128109201Y-204280961D01*
X129529709Y-203669834D02*
X129565450Y-203612953D01*
X128044134Y-205648426D02*
X128111313Y-205648426D01*
X128111313Y-205648426D02*
X128176807Y-205663375D01*
X129042726Y-205649387D02*
X129000841Y-205596864D01*
X130205485Y-202900000D02*
X129397257Y-202900000D01*
X125447115Y-205734408D02*
X127865592Y-205734408D01*
X128023219Y-204526684D02*
X128023220Y-204459504D01*
X127865592Y-205734408D02*
X127918114Y-205692522D01*
X128222249Y-204209930D02*
X128287744Y-204194980D01*
X128822298Y-206107110D02*
X128887792Y-206092162D01*
X130475775Y-203330165D02*
X130497963Y-203266756D01*
X129352679Y-202889825D02*
X129333199Y-202877584D01*
X127918114Y-205692522D02*
X127978640Y-205663375D01*
X127978640Y-205663375D02*
X128044134Y-205648426D01*
X128109201Y-204280961D02*
X128161724Y-204239076D01*
X137900000Y-172200000D02*
X141200000Y-168900000D01*
X128038168Y-204394010D02*
X128067316Y-204333484D01*
X130205485Y-203500000D02*
X130272241Y-203492478D01*
X128354922Y-204194981D02*
X128420417Y-204209929D01*
X129086822Y-205842586D02*
X129086822Y-205775407D01*
X130392531Y-202965450D02*
X130335650Y-202929709D01*
X128576577Y-206021129D02*
X128629099Y-206063014D01*
X129086822Y-205775407D02*
X129071873Y-205709913D01*
X130335650Y-202929709D02*
X130272241Y-202907521D01*
X128689625Y-206092162D02*
X128755119Y-206107110D01*
X128289856Y-205734408D02*
X128576577Y-206021129D01*
X129025336Y-204532651D02*
X129085862Y-204503503D01*
X129042726Y-205968606D02*
X129071873Y-205908080D01*
X129507521Y-203733243D02*
X129529709Y-203669834D01*
X129304690Y-202358163D02*
X129316931Y-202338683D01*
X129000841Y-206021129D02*
X129042726Y-205968606D01*
X128755119Y-206107110D02*
X128822298Y-206107110D01*
X129374395Y-202302575D02*
X129397257Y-202300000D01*
X128629099Y-206063014D02*
X128689625Y-206092162D01*
X129138385Y-204461618D02*
X129500000Y-204100000D01*
X128948318Y-206063014D02*
X129000841Y-206021129D01*
X128237333Y-205692522D02*
X128289856Y-205734408D01*
X128827170Y-204532650D02*
X128892664Y-204547598D01*
X130440034Y-202187046D02*
X130475775Y-202130165D01*
X128887792Y-206092162D02*
X128948318Y-206063014D01*
X130497963Y-203133243D02*
X130475775Y-203069834D01*
X128420417Y-204209929D02*
X128480942Y-204239077D01*
X128480942Y-204239077D02*
X128533465Y-204280962D01*
X128533465Y-204280962D02*
X128714121Y-204461618D01*
X129500000Y-204100000D02*
X129500000Y-203800000D01*
X128714121Y-204461618D02*
X128766644Y-204503502D01*
X129500000Y-203800000D02*
X129507521Y-203733243D01*
X128766644Y-204503502D02*
X128827170Y-204532650D01*
X128176807Y-205663375D02*
X128237333Y-205692522D01*
X128892664Y-204547598D02*
X128959842Y-204547599D01*
X128959842Y-204547599D02*
X129025336Y-204532651D01*
X129352679Y-202310174D02*
X129374395Y-202302575D01*
X129085862Y-204503503D02*
X129138385Y-204461618D01*
X129565450Y-203612953D02*
X129612953Y-203565450D01*
X129374395Y-202897424D02*
X129352679Y-202889825D01*
X129612953Y-203565450D02*
X129669834Y-203529709D01*
X129669834Y-203529709D02*
X129733243Y-203507521D01*
X129733243Y-203507521D02*
X129800000Y-203500000D01*
X129800000Y-203500000D02*
X130205485Y-203500000D01*
X130272241Y-203492478D02*
X130335650Y-203470290D01*
X130335650Y-203470290D02*
X130392531Y-203434549D01*
X130392531Y-203434549D02*
X130440034Y-203387046D01*
X130440034Y-203387046D02*
X130475775Y-203330165D01*
X130497963Y-203266756D02*
X130505485Y-203200000D01*
X130475775Y-201869834D02*
X130440034Y-201812953D01*
X129333199Y-202877584D02*
X129316931Y-202861316D01*
X130505485Y-203200000D02*
X130497963Y-203133243D01*
X130475775Y-203069834D02*
X130440034Y-203012953D01*
X130440034Y-203012953D02*
X130392531Y-202965450D01*
X129397257Y-202900000D02*
X129374395Y-202897424D01*
X129316931Y-202861316D02*
X129304690Y-202841836D01*
X136600000Y-177000000D02*
X137900000Y-175700000D01*
X129304690Y-202841836D02*
X129297091Y-202820120D01*
X129297091Y-202820120D02*
X129294515Y-202797258D01*
G04 #@! TO.N,/Ethernet/ENET_TD0*
X142626711Y-168290000D02*
X142950000Y-168290000D01*
X135900000Y-181100000D02*
X135900000Y-176700000D01*
X135900000Y-176700000D02*
X137400000Y-175200000D01*
X125999990Y-205300000D02*
X126323279Y-205300000D01*
X137400000Y-171800000D02*
X140910000Y-168290000D01*
X140910000Y-168290000D02*
X142626711Y-168290000D01*
X137400000Y-175200000D02*
X137400000Y-171800000D01*
X129000000Y-188000000D02*
X135900000Y-181100000D01*
X126323279Y-205300000D02*
X129000000Y-202623279D01*
X129000000Y-202623279D02*
X129000000Y-188000000D01*
G04 #@! TO.N,/Ethernet/ENET_TD1*
X128500000Y-202577410D02*
X126200330Y-204877080D01*
X128500000Y-187500000D02*
X128500000Y-202577410D01*
X140680000Y-167820000D02*
X136800000Y-171700000D01*
X141190000Y-167820000D02*
X140680000Y-167820000D01*
X136800000Y-171700000D02*
X136800000Y-174900000D01*
X136800000Y-174900000D02*
X135200000Y-176500000D01*
X135200000Y-176500000D02*
X135200000Y-180800000D01*
X126200330Y-204877080D02*
X125500000Y-204877080D01*
X135200000Y-180800000D02*
X128500000Y-187500000D01*
G04 #@! TO.N,/Ethernet/ENET_TD2*
X128000000Y-202407988D02*
X125953820Y-204454168D01*
X140700000Y-167300000D02*
X136300000Y-171700000D01*
X142890000Y-167300000D02*
X140700000Y-167300000D01*
X136300000Y-171700000D02*
X136300000Y-174500000D01*
X136300000Y-174500000D02*
X134500000Y-176300000D01*
X128000000Y-186900000D02*
X128000000Y-202407988D01*
X134500000Y-176300000D02*
X134500000Y-180400000D01*
X134500000Y-180400000D02*
X128000000Y-186900000D01*
G04 #@! TO.N,/Ethernet/ENET_TD3*
X133800000Y-180000000D02*
X127500000Y-186300000D01*
X133800000Y-176100000D02*
X133800000Y-180000000D01*
X135700000Y-171800000D02*
X135700000Y-174200000D01*
X141199996Y-166811212D02*
X140688788Y-166811212D01*
X135700000Y-174200000D02*
X133800000Y-176100000D01*
X127500000Y-186300000D02*
X127500000Y-201999976D01*
X140688788Y-166811212D02*
X135700000Y-171800000D01*
X127500000Y-201999976D02*
X125499976Y-204000000D01*
G04 #@! TO.N,/Ethernet/ENET_TX_CTL*
X140671401Y-166328599D02*
X142661401Y-166328599D01*
X133300000Y-179400000D02*
X133300000Y-175700000D01*
X127000000Y-191138847D02*
X127000000Y-185700000D01*
X127045602Y-191211422D02*
X127030329Y-191201825D01*
X142661401Y-166328599D02*
X142890000Y-166100000D01*
X127115504Y-191227377D02*
X127098478Y-191221419D01*
X127130777Y-191236974D02*
X127115504Y-191227377D01*
X127143532Y-191249729D02*
X127130777Y-191236974D01*
X127159087Y-191282028D02*
X127153129Y-191265002D01*
X127161107Y-191299953D02*
X127159087Y-191282028D01*
X127159087Y-191756771D02*
X127161107Y-191738847D01*
X127153129Y-191773797D02*
X127159087Y-191756771D01*
X127143532Y-191789070D02*
X127153129Y-191773797D01*
X127153129Y-191265002D02*
X127143532Y-191249729D01*
X127130777Y-191801825D02*
X127143532Y-191789070D01*
X127098478Y-191817380D02*
X127115504Y-191811422D01*
X126840913Y-193556771D02*
X126838893Y-193538847D01*
X126846871Y-192373797D02*
X126840913Y-192356771D01*
X126901522Y-193617380D02*
X126884496Y-193611422D01*
X127153129Y-194173844D02*
X127159087Y-194156818D01*
X135200000Y-171800000D02*
X140671401Y-166328599D01*
X126919446Y-193619400D02*
X126901522Y-193617380D01*
X126856468Y-191849729D02*
X126869223Y-191836974D01*
X126884496Y-193611422D02*
X126869223Y-193601825D01*
X127000000Y-193619447D02*
X127000000Y-193619400D01*
X124946520Y-205846520D02*
X124946520Y-203750000D01*
X127080553Y-193619447D02*
X127000000Y-193619447D01*
X127098478Y-191221419D02*
X127062628Y-191217380D01*
X127159087Y-192956771D02*
X127161107Y-192938847D01*
X127098478Y-193621466D02*
X127080553Y-193619447D01*
X127143532Y-193649776D02*
X127130777Y-193637021D01*
X135200000Y-173800000D02*
X135200000Y-171800000D01*
X127159087Y-193682075D02*
X127153129Y-193665049D01*
X127153129Y-193665049D02*
X127143532Y-193649776D01*
X127161107Y-193700000D02*
X127159087Y-193682075D01*
X126919446Y-193019400D02*
X127080554Y-193019400D01*
X127007977Y-191173797D02*
X127002019Y-191156771D01*
X127143532Y-192449729D02*
X127130777Y-192436974D01*
X127080554Y-191819400D02*
X127098478Y-191817380D01*
X126869223Y-193036974D02*
X126884496Y-193027377D01*
X127161107Y-194138894D02*
X127161107Y-193700000D01*
X126838893Y-191899953D02*
X126840913Y-191882028D01*
X127130777Y-193637021D02*
X127115504Y-193627424D01*
X127000000Y-201696520D02*
X127000000Y-194300000D01*
X133300000Y-175700000D02*
X135200000Y-173800000D01*
X126838893Y-193099953D02*
X126840913Y-193082028D01*
X127098478Y-193017380D02*
X127115504Y-193011422D01*
X127000000Y-194300000D02*
X127002019Y-194282075D01*
X126869223Y-193601825D02*
X126856468Y-193589070D01*
X124946520Y-203750000D02*
X127000000Y-201696520D01*
X127143532Y-194189117D02*
X127153129Y-194173844D01*
X127030329Y-194237021D02*
X127045602Y-194227424D01*
X126000014Y-206200000D02*
X125300000Y-206200000D01*
X125300000Y-206200000D02*
X124946520Y-205846520D01*
X126901522Y-192417380D02*
X126884496Y-192411422D01*
X127080554Y-193019400D02*
X127098478Y-193017380D01*
X126846871Y-191865002D02*
X126856468Y-191849729D01*
X127062628Y-194221466D02*
X127098478Y-194217427D01*
X127098478Y-194217427D02*
X127115504Y-194211469D01*
X126884496Y-193027377D02*
X126901522Y-193021419D01*
X126869223Y-192401825D02*
X126856468Y-192389070D01*
X127000000Y-185700000D02*
X133300000Y-179400000D01*
X127115504Y-193627424D02*
X127098478Y-193621466D01*
X127002019Y-194282075D02*
X127007977Y-194265049D01*
X127115504Y-193011422D02*
X127130777Y-193001825D01*
X127161107Y-191738847D02*
X127161107Y-191299953D01*
X127007977Y-194265049D02*
X127017574Y-194249776D01*
X127017574Y-194249776D02*
X127030329Y-194237021D01*
X126919446Y-192419400D02*
X126901522Y-192417380D01*
X126846871Y-193573797D02*
X126840913Y-193556771D01*
X127017574Y-191189070D02*
X127007977Y-191173797D01*
X127153129Y-192465002D02*
X127143532Y-192449729D01*
X126856468Y-193589070D02*
X126846871Y-193573797D01*
X126919446Y-191819400D02*
X127080554Y-191819400D01*
X126838893Y-192338847D02*
X126838893Y-191899953D01*
X127130777Y-194201872D02*
X127143532Y-194189117D01*
X127080554Y-192419400D02*
X126919446Y-192419400D01*
X126838893Y-193538847D02*
X126838893Y-193099953D01*
X126840913Y-193082028D02*
X126846871Y-193065002D01*
X127045602Y-194227424D02*
X127062628Y-194221466D01*
X126846871Y-193065002D02*
X126856468Y-193049729D01*
X126901522Y-191821419D02*
X126919446Y-191819400D01*
X127130777Y-193001825D02*
X127143532Y-192989070D01*
X126901522Y-193021419D02*
X126919446Y-193019400D01*
X127159087Y-194156818D02*
X127161107Y-194138894D01*
X126840913Y-192356771D02*
X126838893Y-192338847D01*
X127143532Y-192989070D02*
X127153129Y-192973797D01*
X127000000Y-193619400D02*
X126919446Y-193619400D01*
X127115504Y-194211469D02*
X127130777Y-194201872D01*
X127153129Y-192973797D02*
X127159087Y-192956771D01*
X127098478Y-192421419D02*
X127080554Y-192419400D01*
X127062628Y-191217380D02*
X127045602Y-191211422D01*
X126856468Y-193049729D02*
X126869223Y-193036974D01*
X127161107Y-192938847D02*
X127161107Y-192499953D01*
X126869223Y-191836974D02*
X126884496Y-191827377D01*
X127161107Y-192499953D02*
X127159087Y-192482028D01*
X127030329Y-191201825D02*
X127017574Y-191189070D01*
X127159087Y-192482028D02*
X127153129Y-192465002D01*
X127002019Y-191156771D02*
X127000000Y-191138847D01*
X127115504Y-191811422D02*
X127130777Y-191801825D01*
X127130777Y-192436974D02*
X127115504Y-192427377D01*
X127115504Y-192427377D02*
X127098478Y-192421419D01*
X126884496Y-192411422D02*
X126869223Y-192401825D01*
X126856468Y-192389070D02*
X126846871Y-192373797D01*
X126840913Y-191882028D02*
X126846871Y-191865002D01*
X126884496Y-191827377D02*
X126901522Y-191821419D01*
G04 #@! TO.N,/Ethernet/ENET_RD3*
X125500000Y-206790000D02*
X125500000Y-209867606D01*
X124684892Y-205974892D02*
X125500000Y-206790000D01*
X125500000Y-209867606D02*
X124667620Y-210699986D01*
X124684892Y-203528617D02*
X124684892Y-205974892D01*
X126500000Y-201713509D02*
X124684892Y-203528617D01*
X126500000Y-185200000D02*
X126500000Y-201713509D01*
X140700000Y-165800000D02*
X134676711Y-171823289D01*
X124667620Y-210699986D02*
X124300000Y-210699986D01*
X134676711Y-171823289D02*
X134676711Y-173423289D01*
X141200000Y-165800000D02*
X140700000Y-165800000D01*
X132700000Y-175400000D02*
X132700000Y-179000000D01*
X134676711Y-173423289D02*
X132700000Y-175400000D01*
X132700000Y-179000000D02*
X126500000Y-185200000D01*
G04 #@! TO.N,/Ethernet/ENET_RD2*
X124423261Y-206113261D02*
X125200000Y-206890000D01*
X124423261Y-203420246D02*
X124423261Y-206113261D01*
X126000000Y-201843507D02*
X124423261Y-203420246D01*
X126000000Y-184600000D02*
X126000000Y-201843507D01*
X142671401Y-165318599D02*
X140581401Y-165318599D01*
X125200000Y-206890000D02*
X125200000Y-209541697D01*
X142900000Y-165090000D02*
X142671401Y-165318599D01*
X140581401Y-165318599D02*
X134100000Y-171800000D01*
X125200000Y-209541697D02*
X124614566Y-210127131D01*
X134100000Y-171800000D02*
X134100000Y-173100000D01*
X131400000Y-179200000D02*
X126000000Y-184600000D01*
X134100000Y-173100000D02*
X131400000Y-175800000D01*
X131400000Y-175800000D02*
X131400000Y-179200000D01*
G04 #@! TO.N,/Ethernet/ENET_RD1*
X124324996Y-209224996D02*
X124500000Y-209400000D01*
X123400000Y-209224996D02*
X124324996Y-209224996D01*
X124861630Y-209038370D02*
X124500000Y-209400000D01*
X124861630Y-206951630D02*
X124861630Y-209038370D01*
X124161630Y-203311877D02*
X124161630Y-206251630D01*
X125500000Y-201973507D02*
X124161630Y-203311877D01*
X124161630Y-206251630D02*
X124861630Y-206951630D01*
X125500000Y-184100000D02*
X125500000Y-201973507D01*
X140390000Y-164810000D02*
X133600000Y-171600000D01*
X130700000Y-175700000D02*
X130700000Y-178900000D01*
X133600000Y-172800000D02*
X130700000Y-175700000D01*
X141260000Y-164810000D02*
X140390000Y-164810000D01*
X133600000Y-171600000D02*
X133600000Y-172800000D01*
X130700000Y-178900000D02*
X125500000Y-184100000D01*
G04 #@! TO.N,/Ethernet/ENET_RD0*
X123899999Y-206359999D02*
X124599999Y-207059999D01*
X124599999Y-207845673D02*
X123791467Y-208654205D01*
X125000000Y-202103505D02*
X123899999Y-203203506D01*
X142661401Y-164328599D02*
X140171401Y-164328599D01*
X123899999Y-203203506D02*
X123899999Y-206359999D01*
X130100000Y-178400000D02*
X125000000Y-183500000D01*
X142890000Y-164100000D02*
X142661401Y-164328599D01*
X140171401Y-164328599D02*
X133100000Y-171400000D01*
X124599999Y-207059999D02*
X124599999Y-207845673D01*
X125000000Y-183500000D02*
X125000000Y-202103505D01*
X133100000Y-172500000D02*
X130100000Y-175500000D01*
X130100000Y-175500000D02*
X130100000Y-178400000D01*
X133100000Y-171400000D02*
X133100000Y-172500000D01*
G04 #@! TO.N,/Ethernet/ENET_RX_CTL*
X132800000Y-171200000D02*
X140180000Y-163820000D01*
X131950000Y-171200000D02*
X132800000Y-171200000D01*
X129500000Y-173650000D02*
X131950000Y-171200000D01*
X129500000Y-177900000D02*
X129500000Y-173650000D01*
X124500000Y-182900000D02*
X129500000Y-177900000D01*
X124613838Y-197409184D02*
X124572396Y-197404515D01*
X124633519Y-197416071D02*
X124613838Y-197409184D01*
X124686235Y-197913733D02*
X124686235Y-197499967D01*
X124683900Y-197934453D02*
X124686235Y-197913733D01*
X124651175Y-197986534D02*
X124665919Y-197971790D01*
X124633519Y-197997628D02*
X124651175Y-197986534D01*
X124613838Y-198004515D02*
X124633519Y-197997628D01*
X124593118Y-198006850D02*
X124613838Y-198004515D01*
X124406882Y-198006850D02*
X124593118Y-198006850D01*
X124348825Y-198027165D02*
X124366481Y-198016071D01*
X124334081Y-198041909D02*
X124348825Y-198027165D01*
X124322987Y-198554134D02*
X124316100Y-198534453D01*
X124334081Y-198571790D02*
X124322987Y-198554134D01*
X124348825Y-198586534D02*
X124334081Y-198571790D01*
X124613838Y-198609184D02*
X124593118Y-198606850D01*
X124633519Y-198616071D02*
X124613838Y-198609184D01*
X124651175Y-198627165D02*
X124633519Y-198616071D01*
X124552715Y-197397628D02*
X124535059Y-197386534D01*
X124686235Y-199113733D02*
X124686235Y-198699967D01*
X124572396Y-197404515D02*
X124552715Y-197397628D01*
X124683900Y-199134453D02*
X124686235Y-199113733D01*
X124677013Y-199154134D02*
X124683900Y-199134453D01*
X124683900Y-197479246D02*
X124677013Y-197459565D01*
X124665919Y-199171790D02*
X124677013Y-199154134D01*
X124686235Y-197499967D02*
X124683900Y-197479246D01*
X124386162Y-198009184D02*
X124406882Y-198006850D01*
X124651175Y-199186534D02*
X124665919Y-199171790D01*
X124633519Y-199197628D02*
X124651175Y-199186534D01*
X124613838Y-199204515D02*
X124633519Y-199197628D01*
X124593118Y-199206850D02*
X124613838Y-199204515D01*
X124334081Y-200971790D02*
X124322987Y-200954134D01*
X124386162Y-198604515D02*
X124366481Y-198597628D01*
X124520315Y-201641942D02*
X124535059Y-201627198D01*
X124348825Y-200986534D02*
X124334081Y-200971790D01*
X124500000Y-201006883D02*
X124500000Y-201006850D01*
X124322987Y-200459565D02*
X124334081Y-200441909D01*
X124593117Y-201006883D02*
X124500000Y-201006883D01*
X124686235Y-199899967D02*
X124683900Y-199879246D01*
X124316100Y-198079246D02*
X124322987Y-198059565D01*
X124677013Y-198659565D02*
X124665919Y-198641909D01*
X124665919Y-201571823D02*
X124677013Y-201554167D01*
X124683900Y-201079279D02*
X124677013Y-201059598D01*
X124686235Y-201513766D02*
X124686235Y-201100000D01*
X124502334Y-197334453D02*
X124500000Y-197313733D01*
X124316100Y-199734453D02*
X124313765Y-199713733D01*
X124386162Y-199209184D02*
X124406882Y-199206850D01*
X124366481Y-200997628D02*
X124348825Y-200986534D01*
X124613838Y-201009217D02*
X124593117Y-201006883D01*
X124683900Y-201534486D02*
X124686235Y-201513766D01*
X124686235Y-200313733D02*
X124686235Y-199899967D01*
X124366481Y-199216071D02*
X124386162Y-199209184D01*
X124677013Y-201554167D02*
X124683900Y-201534486D01*
X124406882Y-198606850D02*
X124386162Y-198604515D01*
X124406882Y-201006850D02*
X124386162Y-201004515D01*
X124535059Y-197386534D02*
X124520315Y-197371790D01*
X124686235Y-198699967D02*
X124683900Y-198679246D01*
X124633519Y-201597661D02*
X124651175Y-201586567D01*
X124677013Y-197459565D02*
X124665919Y-197441909D01*
X124334081Y-200441909D02*
X124348825Y-200427165D01*
X124500000Y-202233503D02*
X124500000Y-201700000D01*
X123631411Y-206451411D02*
X123631411Y-203102092D01*
X123783000Y-207997000D02*
X124219996Y-207560004D01*
X124665919Y-197971790D02*
X124677013Y-197954134D01*
X124593118Y-198606850D02*
X124406882Y-198606850D01*
X124572396Y-201609217D02*
X124613838Y-201604548D01*
X124665919Y-201041942D02*
X124651175Y-201027198D01*
X124665919Y-200371790D02*
X124677013Y-200354134D01*
X124406882Y-199206850D02*
X124593118Y-199206850D01*
X124322987Y-200954134D02*
X124316100Y-200934453D01*
X124219996Y-207039996D02*
X123631411Y-206451411D01*
X124520315Y-197371790D02*
X124509221Y-197354134D01*
X124313765Y-198099967D02*
X124316100Y-198079246D01*
X124683900Y-198679246D02*
X124677013Y-198659565D01*
X124651175Y-201586567D02*
X124665919Y-201571823D01*
X124219996Y-207560004D02*
X124219996Y-207039996D01*
X124313765Y-198513733D02*
X124313765Y-198099967D01*
X124593118Y-199806850D02*
X124406882Y-199806850D01*
X124677013Y-197954134D02*
X124683900Y-197934453D01*
X124613838Y-201604548D02*
X124633519Y-201597661D01*
X124366481Y-198597628D02*
X124348825Y-198586534D01*
X124500000Y-201700000D02*
X124502334Y-201679279D01*
X124651175Y-201027198D02*
X124633519Y-201016104D01*
X124677013Y-200354134D02*
X124683900Y-200334453D01*
X123631411Y-203102092D02*
X124500000Y-202233503D01*
X124386162Y-199804515D02*
X124366481Y-199797628D01*
X140180000Y-163820000D02*
X141180000Y-163820000D01*
X124322987Y-199754134D02*
X124316100Y-199734453D01*
X124509221Y-201659598D02*
X124520315Y-201641942D01*
X124313765Y-199299967D02*
X124316100Y-199279246D01*
X124500000Y-201006850D02*
X124406882Y-201006850D01*
X124552715Y-201616104D02*
X124572396Y-201609217D01*
X124686235Y-201100000D02*
X124683900Y-201079279D01*
X124386162Y-200409184D02*
X124406882Y-200406850D01*
X124386162Y-201004515D02*
X124366481Y-200997628D01*
X124633519Y-201016104D02*
X124613838Y-201009217D01*
X124535059Y-201627198D02*
X124552715Y-201616104D01*
X124316100Y-200934453D02*
X124313765Y-200913733D01*
X124313765Y-200913733D02*
X124313765Y-200499967D01*
X124313765Y-200499967D02*
X124316100Y-200479246D01*
X124316100Y-200479246D02*
X124322987Y-200459565D01*
X124665919Y-197441909D02*
X124651175Y-197427165D01*
X124348825Y-200427165D02*
X124366481Y-200416071D01*
X124651175Y-197427165D02*
X124633519Y-197416071D01*
X124502334Y-201679279D02*
X124509221Y-201659598D01*
X124366481Y-200416071D02*
X124386162Y-200409184D01*
X124665919Y-198641909D02*
X124651175Y-198627165D01*
X124406882Y-200406850D02*
X124593118Y-200406850D01*
X124593118Y-200406850D02*
X124613838Y-200404515D01*
X124613838Y-200404515D02*
X124633519Y-200397628D01*
X124322987Y-198059565D02*
X124334081Y-198041909D01*
X124633519Y-200397628D02*
X124651175Y-200386534D01*
X124500000Y-197313733D02*
X124500000Y-182900000D01*
X124313765Y-199713733D02*
X124313765Y-199299967D01*
X124677013Y-201059598D02*
X124665919Y-201041942D01*
X124651175Y-200386534D02*
X124665919Y-200371790D01*
X124683900Y-200334453D02*
X124686235Y-200313733D01*
X124348825Y-199227165D02*
X124366481Y-199216071D01*
X124677013Y-199859565D02*
X124665919Y-199841909D01*
X124665919Y-199841909D02*
X124651175Y-199827165D01*
X124651175Y-199827165D02*
X124633519Y-199816071D01*
X124366481Y-198016071D02*
X124386162Y-198009184D01*
X124633519Y-199816071D02*
X124613838Y-199809184D01*
X124316100Y-198534453D02*
X124313765Y-198513733D01*
X124613838Y-199809184D02*
X124593118Y-199806850D01*
X124509221Y-197354134D02*
X124502334Y-197334453D01*
X124406882Y-199806850D02*
X124386162Y-199804515D01*
X124683900Y-199879246D02*
X124677013Y-199859565D01*
X124366481Y-199797628D02*
X124348825Y-199786534D01*
X124348825Y-199786534D02*
X124334081Y-199771790D01*
X124334081Y-199771790D02*
X124322987Y-199754134D01*
X124316100Y-199279246D02*
X124322987Y-199259565D01*
X124322987Y-199259565D02*
X124334081Y-199241909D01*
X124334081Y-199241909D02*
X124348825Y-199227165D01*
G04 #@! TO.N,/Ethernet/ENET_RXC*
X128800000Y-172800000D02*
X128800000Y-177600000D01*
X123361631Y-206795631D02*
X123554401Y-206988401D01*
X142890000Y-162500000D02*
X142167087Y-163222913D01*
X123554401Y-206988401D02*
X123783000Y-207217000D01*
X142167087Y-163222913D02*
X140177087Y-163222913D01*
X140177087Y-163222913D02*
X132600000Y-170800000D01*
X124000000Y-202363501D02*
X123361631Y-203001870D01*
X123361631Y-203001870D02*
X123361631Y-206795631D01*
X132600000Y-170800000D02*
X130800000Y-170800000D01*
X128800000Y-177600000D02*
X124000000Y-182400000D01*
X130800000Y-170800000D02*
X128800000Y-172800000D01*
X124000000Y-182400000D02*
X124000000Y-202363501D01*
G04 #@! TO.N,/Ethernet/ENET_MDIO*
X123500000Y-200218631D02*
X122502201Y-201216430D01*
X123500000Y-181700000D02*
X123500000Y-200218631D01*
X140200000Y-162600000D02*
X137500000Y-165300000D01*
X141200008Y-162600000D02*
X140200000Y-162600000D01*
X137500000Y-165300000D02*
X134578999Y-165300000D01*
X134578999Y-165300000D02*
X129800000Y-170078999D01*
X126200000Y-174500000D02*
X126200000Y-179000000D01*
X129800000Y-170078999D02*
X129800000Y-170900000D01*
X126200000Y-179000000D02*
X123500000Y-181700000D01*
X129800000Y-170900000D02*
X126200000Y-174500000D01*
X114377090Y-202800000D02*
X116977090Y-205400000D01*
X107441998Y-201930000D02*
X108311998Y-202800000D01*
X108311998Y-202800000D02*
X114377090Y-202800000D01*
X120707679Y-202700000D02*
X121119803Y-203112124D01*
X119600000Y-202950000D02*
X119850000Y-202700000D01*
X116977090Y-205400000D02*
X117527090Y-205950000D01*
X119850000Y-202700000D02*
X120707679Y-202700000D01*
X119600911Y-205950000D02*
X120022912Y-205527999D01*
X117527090Y-205950000D02*
X119600911Y-205950000D01*
X119600000Y-203350000D02*
X119600000Y-202950000D01*
X120022912Y-205527999D02*
X120022912Y-203772912D01*
X120022912Y-203772912D02*
X119600000Y-203350000D01*
D40*
G04 #@! TO.N,/Ethernet/ENET_MDC*
X120268599Y-203378599D02*
X120040000Y-203150000D01*
X120890002Y-204000002D02*
X120268599Y-203378599D01*
X120900000Y-204000002D02*
X120890002Y-204000002D01*
D43*
X120905000Y-204005002D02*
X120900000Y-204000002D01*
X120905000Y-205895000D02*
X120905000Y-204005002D01*
X116300000Y-206499992D02*
X120300008Y-206499992D01*
X120300008Y-206499992D02*
X120905000Y-205895000D01*
X129200000Y-170714612D02*
X129200000Y-169900000D01*
X134300000Y-164800000D02*
X137400000Y-164800000D01*
X129200000Y-169900000D02*
X134300000Y-164800000D01*
X137400000Y-164800000D02*
X140900927Y-161299073D01*
X123000000Y-199833994D02*
X123000000Y-176914612D01*
X140900927Y-161299073D02*
X142564981Y-161299073D01*
X121666000Y-201167994D02*
X123000000Y-199833994D01*
X123000000Y-176914612D02*
X129200000Y-170714612D01*
X142564981Y-161299073D02*
X142888270Y-161299073D01*
D40*
G04 #@! TO.N,/TCPC_~INT*
X101700000Y-154400000D02*
X85628599Y-138328599D01*
X85628599Y-138328599D02*
X85628599Y-134128599D01*
X119029998Y-154400000D02*
X101700000Y-154400000D01*
X85628599Y-134128599D02*
X85400000Y-133900000D01*
X120029998Y-155370002D02*
X120059996Y-155400000D01*
X120000000Y-155370002D02*
X120029998Y-155370002D01*
X120000000Y-155370002D02*
X119029998Y-154400000D01*
X123900000Y-155400000D02*
X125000000Y-156500000D01*
X120059996Y-155400000D02*
X123900000Y-155400000D01*
X137960000Y-156500000D02*
X125000000Y-156500000D01*
G04 #@! TO.N,/~WWAN_DISABLE*
X103600000Y-153900000D02*
X103500000Y-153900000D01*
X101600000Y-153900000D02*
X103600000Y-153900000D01*
X74800000Y-121200000D02*
X74800000Y-123600000D01*
X85896689Y-138196689D02*
X101600000Y-153900000D01*
X70099997Y-116499997D02*
X74800000Y-121200000D01*
X74800000Y-123600000D02*
X77900000Y-126700000D01*
X77900000Y-126700000D02*
X82500000Y-126700000D01*
X85896689Y-130103311D02*
X85896689Y-138196689D01*
X83393378Y-127600000D02*
X85896689Y-130103311D01*
X83393378Y-127593378D02*
X83393378Y-127600000D01*
X82500000Y-126700000D02*
X83393378Y-127593378D01*
X118900000Y-153900000D02*
X120071401Y-155071401D01*
X103600000Y-153900000D02*
X118900000Y-153900000D01*
X120071401Y-155071401D02*
X137076711Y-155071401D01*
X137076711Y-155071401D02*
X137400000Y-155071401D01*
G04 #@! TO.N,/~WIFI_DISABLE*
X129900000Y-118800000D02*
X129500000Y-118800000D01*
X129500000Y-118800000D02*
X131500000Y-118800000D01*
X131500000Y-118800000D02*
X134071401Y-121371401D01*
X134071401Y-121371401D02*
X134300000Y-121600000D01*
X117598829Y-119300000D02*
X115223289Y-119300000D01*
X115223289Y-119300000D02*
X114900000Y-119300000D01*
X118098829Y-118800000D02*
X117598829Y-119300000D01*
X129500000Y-118800000D02*
X118098829Y-118800000D01*
G04 #@! TO.N,/WWAN_RESET*
X68000000Y-108300000D02*
X72800000Y-103500000D01*
X68000000Y-108800000D02*
X68000000Y-108300000D01*
X69300000Y-109100000D02*
X68300000Y-109100000D01*
X68300000Y-109100000D02*
X68000000Y-108800000D01*
X95900000Y-147000000D02*
X87400000Y-138500000D01*
X87400000Y-129500000D02*
X76251689Y-118351689D01*
X141100000Y-147000000D02*
X95900000Y-147000000D01*
X72800000Y-103500000D02*
X72800000Y-102900000D01*
X76251689Y-118351689D02*
X76251689Y-116051689D01*
X87400000Y-138500000D02*
X87400000Y-129500000D01*
X76251689Y-116051689D02*
X69300000Y-109100000D01*
G04 #@! TO.N,/~WoWWAN*
X139976711Y-148199994D02*
X140300000Y-148199994D01*
X96299994Y-148199994D02*
X139976711Y-148199994D01*
X86800000Y-138700000D02*
X96299994Y-148199994D01*
X86800000Y-130500000D02*
X86800000Y-138700000D01*
X82700000Y-126400000D02*
X86800000Y-130500000D01*
X68974085Y-117000000D02*
X69896999Y-116077086D01*
X67700000Y-117000000D02*
X68974085Y-117000000D01*
X78100000Y-126400000D02*
X82700000Y-126400000D01*
X69896999Y-116077086D02*
X70577086Y-116077086D01*
X70577086Y-116077086D02*
X75200000Y-120700000D01*
X75200000Y-120700000D02*
X75200000Y-123500000D01*
X75200000Y-123500000D02*
X78100000Y-126400000D01*
G04 #@! TO.N,/CAPTOUCH_~INT*
X127563501Y-214900000D02*
X127363501Y-215100000D01*
X137300000Y-182100000D02*
X137300000Y-179100000D01*
X130100000Y-212363501D02*
X130099311Y-212362812D01*
X127563501Y-214900000D02*
X130100000Y-212363501D01*
X142200000Y-156900000D02*
X142200000Y-151200000D01*
X138400000Y-173600000D02*
X144994311Y-167005689D01*
X130099311Y-212362812D02*
X130099311Y-207000689D01*
X130099311Y-207000689D02*
X135200000Y-201900000D01*
X144994311Y-167005689D02*
X144994311Y-159694311D01*
X137300000Y-179100000D02*
X138400000Y-178000000D01*
X135200000Y-201900000D02*
X135200000Y-184200000D01*
X144994311Y-159694311D02*
X142200000Y-156900000D01*
X138400000Y-178000000D02*
X138400000Y-173600000D01*
X135200000Y-184200000D02*
X137300000Y-182100000D01*
X99578599Y-227771401D02*
X99350000Y-228000000D01*
X99628599Y-225981401D02*
X99628599Y-227721401D01*
X100300000Y-225310000D02*
X99628599Y-225981401D01*
X100300000Y-223900000D02*
X100300000Y-225310000D01*
X110600000Y-218600000D02*
X110600000Y-219400000D01*
X113700000Y-214900000D02*
X113100000Y-215500000D01*
X99628599Y-227721401D02*
X99578599Y-227771401D01*
X127563501Y-214900000D02*
X113700000Y-214900000D01*
X110600000Y-219400000D02*
X109800000Y-220200000D01*
X110800000Y-215500000D02*
X110300000Y-216000000D01*
X113100000Y-215500000D02*
X110800000Y-215500000D01*
X109800000Y-220200000D02*
X104000000Y-220200000D01*
X110300000Y-216000000D02*
X110300000Y-218300000D01*
X104000000Y-220200000D02*
X100300000Y-223900000D01*
X110300000Y-218300000D02*
X110600000Y-218600000D01*
G04 #@! TO.N,/JTAG/JTAG_~TRST*
X66900000Y-179600000D02*
X64300000Y-177000000D01*
X66900000Y-203200002D02*
X66900000Y-179600000D01*
X68849998Y-205150000D02*
X66900000Y-203200002D01*
X66821401Y-167488599D02*
X67050000Y-167260000D01*
X64300000Y-177000000D02*
X64300000Y-170010000D01*
X64300000Y-170010000D02*
X66821401Y-167488599D01*
G04 #@! TO.N,/CSI_PWDN*
X111400000Y-146200000D02*
X112220000Y-146200000D01*
X99100000Y-146200000D02*
X111400000Y-146200000D01*
X145350000Y-116500000D02*
X145400000Y-116500000D01*
X144100000Y-117700000D02*
X145300000Y-116500000D01*
X141300000Y-117700000D02*
X144100000Y-117700000D01*
X140500000Y-118500000D02*
X141300000Y-117700000D01*
X140100000Y-118500000D02*
X140500000Y-118500000D01*
X139300000Y-119300000D02*
X140100000Y-118500000D01*
X145300000Y-116500000D02*
X145350000Y-116500000D01*
X113500000Y-146200000D02*
X128800000Y-130900000D01*
X111400000Y-146200000D02*
X113500000Y-146200000D01*
X139300000Y-119700000D02*
X139300000Y-119300000D01*
X133300000Y-125700000D02*
X139300000Y-119700000D01*
X128800000Y-130900000D02*
X130800000Y-130900000D01*
X130800000Y-130900000D02*
X133300000Y-128400000D01*
X133300000Y-128400000D02*
X133300000Y-125700000D01*
G04 #@! TO.N,/PWR_EN*
X97000000Y-132800000D02*
X97000000Y-130499998D01*
X104971399Y-122528599D02*
X105199998Y-122300000D01*
X97000000Y-130499998D02*
X104971399Y-122528599D01*
G04 #@! TO.N,/ENET_WoL*
X120265107Y-198884893D02*
X120100000Y-199050000D01*
X113574885Y-156384893D02*
X120265107Y-163075115D01*
X120265107Y-163075115D02*
X120265107Y-198884893D01*
X85219452Y-156864638D02*
X85572459Y-156511631D01*
X86675103Y-156384893D02*
X113574885Y-156384893D01*
X85572459Y-156511631D02*
X86548365Y-156511631D01*
X86548365Y-156511631D02*
X86675103Y-156384893D01*
G04 #@! TO.N,/ENET_~INT*
X86494450Y-156935548D02*
X86783474Y-156646524D01*
X113466516Y-156646524D02*
X119988369Y-163168378D01*
X86783474Y-156646524D02*
X113466516Y-156646524D01*
X85882562Y-156935548D02*
X86494450Y-156935548D01*
X119988369Y-163168378D02*
X119988369Y-198561631D01*
D43*
X119988369Y-198561631D02*
X119500000Y-199050000D01*
D40*
G04 #@! TO.N,/PROX_~INT*
X64071401Y-152071401D02*
X66650000Y-154650000D01*
X64300000Y-126500000D02*
X64071401Y-126728599D01*
X66650000Y-155676711D02*
X66650000Y-156000000D01*
X66650000Y-154650000D02*
X66650000Y-155676711D01*
X64071401Y-126728599D02*
X64071401Y-152071401D01*
G04 #@! TO.N,/CHRG_~INT*
X100300000Y-176300000D02*
X86104546Y-162104546D01*
X103720000Y-175080000D02*
X102500000Y-176300000D01*
X104800000Y-175080000D02*
X103720000Y-175080000D01*
X102500000Y-176300000D02*
X100300000Y-176300000D01*
X86104546Y-160504546D02*
X85728599Y-160128599D01*
X85728599Y-160128599D02*
X85500000Y-159900000D01*
X86104546Y-162104546D02*
X86104546Y-160504546D01*
X72228599Y-159888599D02*
X72000000Y-159660000D01*
X72240000Y-159900000D02*
X72228599Y-159888599D01*
X76900000Y-159900000D02*
X72240000Y-159900000D01*
G04 #@! TO.N,/SAI5_TXD*
X77800000Y-158000000D02*
X77100000Y-157300000D01*
X77100000Y-157300000D02*
X70273289Y-157300000D01*
X70273289Y-157300000D02*
X69950000Y-157300000D01*
G04 #@! TO.N,/CLKO2*
X107398000Y-200450000D02*
X106426000Y-201422000D01*
X85500000Y-155300000D02*
X86061631Y-155861631D01*
X119850000Y-200450000D02*
X107398000Y-200450000D01*
X108000000Y-207106711D02*
X108000000Y-207430000D01*
X113791629Y-155861631D02*
X120788369Y-162858371D01*
X120788369Y-162858371D02*
X120788369Y-199511631D01*
X86061631Y-155861631D02*
X113791629Y-155861631D01*
X120788369Y-199511631D02*
X119850000Y-200450000D01*
X108000000Y-204300000D02*
X108000000Y-207106711D01*
X106426000Y-201422000D02*
X106426000Y-202726000D01*
X106426000Y-202726000D02*
X108000000Y-204300000D01*
X85100000Y-155300000D02*
X85500000Y-155300000D01*
G04 #@! TO.N,/LED*
X68971401Y-218921401D02*
X69200000Y-219150000D01*
X62851689Y-212801689D02*
X68971401Y-218921401D01*
X62851689Y-161158311D02*
X62851689Y-212801689D01*
X67110000Y-156900000D02*
X62851689Y-161158311D01*
G04 #@! TO.N,/Audio/SAI2_TXC*
X80000000Y-157500000D02*
X79300000Y-156800000D01*
X72550000Y-156800000D02*
X71950000Y-156200000D01*
X79300000Y-156800000D02*
X72550000Y-156800000D01*
G04 #@! TO.N,/CLKO1*
X129300000Y-127400000D02*
X128100000Y-127400000D01*
X128100000Y-127400000D02*
X127000000Y-128500000D01*
X127000000Y-129300000D02*
X127000000Y-129400000D01*
X127000000Y-128500000D02*
X127000000Y-129300000D01*
X89500000Y-153700000D02*
X94600000Y-148600000D01*
X85500000Y-153700000D02*
X89500000Y-153700000D01*
X75500000Y-155000000D02*
X71900000Y-155000000D01*
X75900000Y-154600000D02*
X75500000Y-155000000D01*
X80000000Y-154600000D02*
X75900000Y-154600000D01*
X127000000Y-130200000D02*
X127000000Y-129300000D01*
X97400000Y-142700000D02*
X114500000Y-142700000D01*
X114500000Y-142700000D02*
X127000000Y-130200000D01*
X96300000Y-146500000D02*
X96300000Y-143800000D01*
X96300000Y-143800000D02*
X97400000Y-142700000D01*
G04 #@! TO.N,/SAI2_TXFS*
X69823289Y-154200004D02*
X69500000Y-154200004D01*
X79200000Y-153600000D02*
X76000000Y-153600000D01*
X76000000Y-153600000D02*
X75399996Y-154200004D01*
X75399996Y-154200004D02*
X69823289Y-154200004D01*
G04 #@! TO.N,/SAI2_RXD*
X70398469Y-152400000D02*
X69428025Y-153370444D01*
X79100000Y-152200000D02*
X78900000Y-152400000D01*
X69428025Y-153370444D02*
X69199426Y-153599043D01*
X78900000Y-152400000D02*
X70398469Y-152400000D01*
G04 #@! TO.N,/Audio/SAI2_MCLK*
X72700000Y-152900000D02*
X71900000Y-153700000D01*
X79300000Y-152900000D02*
X72700000Y-152900000D01*
G04 #@! TO.N,/I2C2_SCL*
X78500000Y-144500000D02*
X70584211Y-144500000D01*
X70022920Y-145061291D02*
X70584211Y-144500000D01*
D43*
G04 #@! TO.N,/I2C2_SDA*
X78066000Y-142866000D02*
X70007289Y-142866000D01*
X79670000Y-144470000D02*
X78066000Y-142866000D01*
X70007289Y-142866000D02*
X69684000Y-142866000D01*
D40*
G04 #@! TO.N,/UART3_TXD*
X74085458Y-134685458D02*
X74221401Y-134821401D01*
X71418627Y-134685458D02*
X74085458Y-134685458D01*
X69225000Y-140375000D02*
X69225000Y-136879085D01*
X69377080Y-140527080D02*
X69225000Y-140375000D01*
X69377080Y-141000000D02*
X69377080Y-140527080D01*
X69225000Y-136879085D02*
X71418627Y-134685458D01*
X74221401Y-134821401D02*
X74450000Y-135050000D01*
G04 #@! TO.N,/UART3_RXD*
X71378599Y-134221401D02*
X74221401Y-134221401D01*
X74221401Y-134221401D02*
X74450000Y-134450000D01*
X69484000Y-136116000D02*
X71378599Y-134221401D01*
X68700000Y-136116000D02*
X69484000Y-136116000D01*
G04 #@! TO.N,/USB-C/USB1_VBUS*
X94770000Y-167699998D02*
X94770000Y-167726711D01*
X82394050Y-127544050D02*
X85250000Y-130400000D01*
X94770000Y-167726711D02*
X94770000Y-168050000D01*
X73254050Y-127544050D02*
X82394050Y-127544050D01*
X85250000Y-132900000D02*
X84375000Y-133775000D01*
X85250000Y-130400000D02*
X85250000Y-132900000D01*
X84375000Y-157304998D02*
X94770000Y-167699998D01*
X84375000Y-133775000D02*
X84375000Y-157304998D01*
G04 #@! TO.N,/EN_SNK*
X83100000Y-171600000D02*
X82600000Y-172100000D01*
X79800000Y-136261821D02*
X81938179Y-138400000D01*
X79800000Y-130600000D02*
X79800000Y-136261821D01*
X81938179Y-138400000D02*
X81922911Y-138415268D01*
X81922911Y-138415268D02*
X81922911Y-159972911D01*
X81922911Y-159972911D02*
X83100000Y-161150000D01*
X83100000Y-161150000D02*
X83100000Y-171600000D01*
D42*
G04 #@! TO.N,Net-(R307-Pad1)*
X107300000Y-187412500D02*
X104942500Y-189770000D01*
X107300000Y-187412500D02*
X107300000Y-175800000D01*
D40*
G04 #@! TO.N,Net-(R408-Pad1)*
X120459500Y-154600000D02*
X119057500Y-153198000D01*
X123950000Y-154600000D02*
X120459500Y-154600000D01*
G04 #@! TO.N,Net-(R1721-Pad2)*
X119519000Y-205028711D02*
X119519000Y-205352000D01*
X119519000Y-205009000D02*
X119519000Y-205028711D01*
X114180000Y-202300000D02*
X116810000Y-202300000D01*
X116810000Y-202300000D02*
X119519000Y-205009000D01*
G04 #@! TO.N,Net-(SW1301-Pad4)*
X138625000Y-223125000D02*
X138625000Y-218625000D01*
X138625000Y-218625000D02*
X132200000Y-212200000D01*
X132200000Y-212200000D02*
X132200000Y-210100000D01*
X132200000Y-210100000D02*
X135800000Y-206500000D01*
X135800000Y-186100000D02*
X135800000Y-206500000D01*
G04 #@! TO.N,/EN_SRC*
X100776711Y-175720000D02*
X101100000Y-175720000D01*
X93900000Y-169300000D02*
X100320000Y-175720000D01*
X100320000Y-175720000D02*
X100776711Y-175720000D01*
X93900000Y-167600000D02*
X93900000Y-169300000D01*
X84080122Y-130502999D02*
X83826132Y-130756989D01*
X83826132Y-157526132D02*
X93900000Y-167600000D01*
X81749999Y-129000001D02*
X82983122Y-129000001D01*
X82983122Y-129000001D02*
X84080122Y-130097001D01*
X84080122Y-130097001D02*
X84080122Y-130502999D01*
X81350000Y-129400000D02*
X81749999Y-129000001D01*
X83826132Y-130756989D02*
X83826132Y-157526132D01*
D45*
G04 #@! TO.N,/USB Hub + SDIO Bridge/USB2_D_N*
X80188211Y-142156643D02*
X80184424Y-142164506D01*
X80321686Y-142312218D02*
X80330194Y-142310276D01*
X74691710Y-136592757D02*
X80193653Y-142094701D01*
X73811815Y-136276299D02*
X73819210Y-136280945D01*
X80338058Y-142306491D02*
X80351706Y-142295607D01*
X80479877Y-164255640D02*
X80473702Y-164261815D01*
X80359569Y-142291820D02*
X80368077Y-142289877D01*
X80202850Y-165040637D02*
X80199061Y-165048505D01*
X80376805Y-142289878D02*
X80385313Y-142291819D01*
X80385303Y-164858186D02*
X80376789Y-164860129D01*
X80385313Y-142291819D02*
X80393176Y-142295606D01*
X80393176Y-142295606D02*
X80400000Y-142301048D01*
X74588277Y-136598201D02*
X74596142Y-136601989D01*
X80400000Y-142301048D02*
X80543193Y-142444241D01*
X80542215Y-142658678D02*
X80539330Y-142666921D01*
X80534684Y-142674316D02*
X80528509Y-142680491D01*
X74100000Y-136206807D02*
X74305759Y-136206807D01*
X80528509Y-142680491D02*
X80521114Y-142685137D01*
X80521114Y-142685137D02*
X80512871Y-142688022D01*
X80512871Y-142688022D02*
X80495514Y-142689977D01*
X80487271Y-142692862D02*
X80479876Y-142697508D01*
X80466170Y-142719321D02*
X80465193Y-142728000D01*
X80465193Y-142863868D02*
X80466170Y-142872546D01*
X73827453Y-136283830D02*
X73836132Y-136284807D01*
X80469055Y-142880789D02*
X80473701Y-142888184D01*
X80487271Y-142899005D02*
X80495514Y-142901890D01*
X80543193Y-142444241D02*
X80543193Y-142650000D01*
X80495514Y-142901890D02*
X80512871Y-142903845D01*
X79029443Y-166114722D02*
X79021579Y-166118509D01*
X80521114Y-142906730D02*
X80528509Y-142911376D01*
X80528509Y-142911376D02*
X80534684Y-142917551D01*
X80184425Y-142190252D02*
X80188212Y-142198115D01*
X80473701Y-142703683D02*
X80469055Y-142711078D01*
X80534684Y-142917551D02*
X80539330Y-142924946D01*
X80539330Y-142666921D02*
X80534684Y-142674316D01*
X78807857Y-166435635D02*
X78799348Y-166437578D01*
X74064862Y-136228886D02*
X74069508Y-136221491D01*
X80539330Y-142924946D02*
X80542215Y-142933189D01*
X80543193Y-164705759D02*
X80400000Y-164848952D01*
X80542216Y-164216810D02*
X80539331Y-164225053D01*
X74677021Y-136583527D02*
X74684885Y-136587314D01*
X80182482Y-142181742D02*
X80184425Y-142190252D01*
X80534685Y-164232448D02*
X80528510Y-164238623D01*
X80351706Y-142295607D02*
X80359569Y-142291820D01*
X80469055Y-142711078D02*
X80466170Y-142719321D01*
X80512871Y-142903845D02*
X80521114Y-142906730D01*
X80479876Y-142894359D02*
X80487271Y-142899005D01*
X80199095Y-142142995D02*
X80193653Y-142149819D01*
X80521115Y-164243269D02*
X80512872Y-164246154D01*
X80542216Y-164491321D02*
X80543193Y-164500000D01*
X78605023Y-166554436D02*
X78606965Y-166562945D01*
X80512872Y-164246154D02*
X80495515Y-164248109D01*
X80473702Y-164261815D02*
X80469056Y-164269210D01*
X80469056Y-164269210D02*
X80466171Y-164277453D01*
X78927878Y-166315612D02*
X78924091Y-166323476D01*
X74659781Y-136581584D02*
X74668510Y-136581584D01*
X80466171Y-164277453D02*
X80465193Y-164286132D01*
X74440769Y-136446616D02*
X74444556Y-136454480D01*
X80465193Y-164286132D02*
X80465193Y-164422000D01*
X80193616Y-164945025D02*
X80188171Y-164951853D01*
X74455442Y-136357872D02*
X74459230Y-136365737D01*
X80182483Y-142173016D02*
X80182482Y-142181742D01*
X74455442Y-136399352D02*
X74444556Y-136413001D01*
X74461172Y-136374247D02*
X74461172Y-136382977D01*
X80466171Y-164430678D02*
X80469056Y-164438921D01*
X80473702Y-164446316D02*
X80479877Y-164452491D01*
X80528510Y-164238623D02*
X80521115Y-164243269D01*
X74091321Y-136207785D02*
X74100000Y-136206807D01*
X80495515Y-164460022D02*
X80512872Y-164461977D01*
X80512872Y-164461977D02*
X80521115Y-164464862D01*
X80521115Y-164464862D02*
X80528510Y-164469508D01*
X80542215Y-142933189D02*
X80543193Y-142941868D01*
X72080000Y-136389560D02*
X72262753Y-136206807D01*
X80487272Y-164250994D02*
X80479877Y-164255640D01*
X80202850Y-165014875D02*
X80204793Y-165023389D01*
X80539331Y-164483078D02*
X80542216Y-164491321D01*
X80304450Y-142310276D02*
X80312958Y-142312218D01*
X80400000Y-164848952D02*
X80393172Y-164854397D01*
X80393172Y-164854397D02*
X80385303Y-164858186D01*
X80539331Y-164225053D02*
X80534685Y-164232448D01*
X74046316Y-136276299D02*
X74052491Y-136270124D01*
X80368056Y-164860129D02*
X80359541Y-164858186D01*
X78913207Y-166268354D02*
X78924091Y-166282002D01*
X73796154Y-136237129D02*
X73798109Y-136254486D01*
X80359541Y-164858186D02*
X80351673Y-164854397D01*
X80351673Y-164854397D02*
X80338017Y-164843506D01*
X80338017Y-164843506D02*
X80330148Y-164839717D01*
X74621892Y-136601989D02*
X74629757Y-136598201D01*
X78929820Y-166307103D02*
X78927878Y-166315612D01*
X80312958Y-142312218D02*
X80321686Y-142312218D01*
X78625423Y-166618067D02*
X78621636Y-166625931D01*
X80543193Y-164500000D02*
X80543193Y-164705759D01*
X78924091Y-166282002D02*
X78927878Y-166289866D01*
X78924091Y-166323476D02*
X78918649Y-166330300D01*
X80188212Y-142198115D02*
X80193654Y-142204939D01*
X78799348Y-166437578D02*
X78790620Y-166437578D01*
X80193654Y-142204939D02*
X80289764Y-142301049D01*
X80330194Y-142310276D02*
X80338058Y-142306491D01*
X80465193Y-164422000D02*
X80466171Y-164430678D01*
X80368077Y-142289877D02*
X80376805Y-142289878D01*
X80188171Y-164951853D02*
X80184382Y-164959721D01*
X74305759Y-136206807D02*
X74450000Y-136351048D01*
X78815721Y-166431848D02*
X78807857Y-166435635D01*
X80479876Y-142697508D02*
X80473701Y-142703683D01*
X78752734Y-166417177D02*
X78744225Y-166415235D01*
X78610752Y-166570809D02*
X78621636Y-166584457D01*
X78782110Y-166435635D02*
X78774247Y-166431848D01*
X78918649Y-166220056D02*
X78913207Y-166226880D01*
X78790620Y-166437578D02*
X78782110Y-166435635D01*
X80495514Y-142689977D02*
X80487271Y-142692862D01*
X79037952Y-166112780D02*
X79029443Y-166114722D01*
X78760598Y-166420964D02*
X78752734Y-166417177D01*
X78735497Y-166415235D02*
X78726988Y-166417177D01*
X78132753Y-166793193D02*
X77950000Y-166610440D01*
X78726988Y-166417177D02*
X78719124Y-166420964D01*
X78625423Y-166592321D02*
X78627365Y-166600830D01*
X78774247Y-166431848D02*
X78760598Y-166420964D01*
X79046680Y-166112780D02*
X79037952Y-166112780D01*
X79093075Y-166135123D02*
X79084565Y-166133180D01*
X78744225Y-166415235D02*
X78735497Y-166415235D01*
X80469056Y-164438921D02*
X80473702Y-164446316D01*
X78712300Y-166426406D02*
X78616194Y-166522511D01*
X78927878Y-166289866D02*
X78929820Y-166298375D01*
X80199095Y-142101525D02*
X80202882Y-142109389D01*
X73798109Y-136254486D02*
X73800994Y-136262729D01*
X80193654Y-142149821D02*
X80188211Y-142156643D01*
X80543193Y-142650000D02*
X80542215Y-142658678D01*
X74083078Y-136210670D02*
X74091321Y-136207785D01*
X78918649Y-166330300D02*
X78822545Y-166426407D01*
X78605023Y-166545708D02*
X78605023Y-166554436D01*
X78627365Y-166609558D02*
X78625423Y-166618067D01*
X78616194Y-166632755D02*
X78455759Y-166793193D01*
X74449999Y-136461305D02*
X74581452Y-136592758D01*
X80184424Y-142164506D02*
X80182483Y-142173016D01*
X79101803Y-166135123D02*
X79093075Y-166135123D01*
X80495515Y-164248109D02*
X80487272Y-164250994D01*
X80376789Y-164860129D02*
X80368056Y-164860129D01*
X78455759Y-166793193D02*
X78132753Y-166793193D01*
X78616194Y-166522511D02*
X78610752Y-166529335D01*
X78627365Y-166600830D02*
X78627365Y-166609558D01*
X78621636Y-166584457D02*
X78625423Y-166592321D01*
X78929820Y-166298375D02*
X78929820Y-166307103D01*
X78909420Y-166260490D02*
X78913207Y-166268354D01*
X74057137Y-136262729D02*
X74060022Y-136254486D01*
X80543193Y-164208132D02*
X80542216Y-164216810D01*
X78610752Y-166529335D02*
X78606965Y-166537199D01*
X78719124Y-166420964D02*
X78712300Y-166426406D01*
X78606965Y-166537199D02*
X78605023Y-166545708D01*
X80473701Y-142888184D02*
X80479876Y-142894359D01*
X73782448Y-136215316D02*
X73788623Y-136221491D01*
X78907478Y-166251981D02*
X78909420Y-166260490D01*
X74440769Y-136420866D02*
X74438826Y-136429376D01*
X80188171Y-164993351D02*
X80199061Y-165007006D01*
X78907478Y-166243253D02*
X78907478Y-166251981D01*
X78606965Y-166562945D02*
X78610752Y-166570809D01*
X74461172Y-136382977D02*
X74459230Y-136391487D01*
X74069508Y-136221491D02*
X74075683Y-136215316D01*
X78909420Y-166234744D02*
X78907478Y-166243253D01*
X80199061Y-165048505D02*
X80193616Y-165055336D01*
X74684885Y-136587314D02*
X74691710Y-136592757D01*
X74060022Y-136254486D02*
X74061977Y-136237129D01*
X78913207Y-166226880D02*
X78909420Y-166234744D01*
X80184382Y-164959721D02*
X80182439Y-164968235D01*
X80466170Y-142872546D02*
X80469055Y-142880789D01*
X74668510Y-136581584D02*
X74677021Y-136583527D01*
X80479877Y-164452491D02*
X80487272Y-164457137D01*
X79014755Y-166123951D02*
X78918649Y-166220056D01*
X78621636Y-166625931D02*
X78616194Y-166632755D01*
X79021579Y-166118509D02*
X79014755Y-166123951D01*
X80199061Y-165007006D02*
X80202850Y-165014875D01*
X79055189Y-166114722D02*
X79046680Y-166112780D01*
X79063053Y-166118509D02*
X79055189Y-166114722D01*
X79084565Y-166133180D02*
X79076702Y-166129393D01*
X79110312Y-166133180D02*
X79101803Y-166135123D01*
X80182439Y-164968235D02*
X80182439Y-164976968D01*
X79118176Y-166129393D02*
X79110312Y-166133180D01*
X79125000Y-166123952D02*
X79118176Y-166129393D01*
X80193616Y-165055336D02*
X79125000Y-166123952D01*
X80289690Y-164848952D02*
X80193616Y-164945025D01*
X80204793Y-165032122D02*
X80202850Y-165040637D01*
X80528510Y-164469508D02*
X80534685Y-164475683D01*
X78822545Y-166426407D02*
X78815721Y-166431848D01*
X80184382Y-164985483D02*
X80188171Y-164993351D01*
X80204793Y-165023389D02*
X80204793Y-165032122D01*
X79076702Y-166129393D02*
X79063053Y-166118509D01*
X80465193Y-142728000D02*
X80465193Y-142863868D01*
X80534685Y-164475683D02*
X80539331Y-164483078D01*
X80296518Y-164843506D02*
X80289690Y-164848952D01*
X80182439Y-164976968D02*
X80184382Y-164985483D01*
X74459230Y-136391487D02*
X74455442Y-136399352D01*
X80296588Y-142306491D02*
X80304450Y-142310276D01*
X80543193Y-142941868D02*
X80543193Y-164208132D01*
X80193653Y-142094701D02*
X80199095Y-142101525D01*
X80487272Y-164457137D02*
X80495515Y-164460022D01*
X74459230Y-136365737D02*
X74461172Y-136374247D01*
X80304386Y-164839717D02*
X80296518Y-164843506D01*
X80312901Y-164837774D02*
X80304386Y-164839717D01*
X80289764Y-142301049D02*
X80296588Y-142306491D01*
X80330148Y-164839717D02*
X80321634Y-164837774D01*
X80321634Y-164837774D02*
X80312901Y-164837774D01*
X80193653Y-142149819D02*
X80193654Y-142149821D01*
X80202882Y-142135133D02*
X80199095Y-142142995D01*
X74438826Y-136438105D02*
X74440769Y-136446616D01*
X80204824Y-142126625D02*
X80202882Y-142135133D01*
X80204824Y-142117897D02*
X80204824Y-142126625D01*
X80202882Y-142109389D02*
X80204824Y-142117897D01*
X74651271Y-136583527D02*
X74659781Y-136581584D01*
X74643406Y-136587314D02*
X74651271Y-136583527D01*
X74629757Y-136598201D02*
X74643406Y-136587314D01*
X74038921Y-136280945D02*
X74046316Y-136276299D01*
X74030678Y-136283830D02*
X74038921Y-136280945D01*
X74613382Y-136603931D02*
X74621892Y-136601989D01*
X74604652Y-136603931D02*
X74613382Y-136603931D01*
X74596142Y-136601989D02*
X74604652Y-136603931D01*
X73836132Y-136284807D02*
X74022000Y-136284807D01*
X74581452Y-136592758D02*
X74588277Y-136598201D01*
X74444556Y-136454480D02*
X74449999Y-136461305D01*
X74438826Y-136429376D02*
X74438826Y-136438105D01*
X74075683Y-136215316D02*
X74083078Y-136210670D01*
X72262753Y-136206807D02*
X73758132Y-136206807D01*
X74444556Y-136413001D02*
X74440769Y-136420866D01*
X73819210Y-136280945D02*
X73827453Y-136283830D01*
X74450000Y-136351048D02*
X74455442Y-136357872D01*
X74061977Y-136237129D02*
X74064862Y-136228886D01*
X74052491Y-136270124D02*
X74057137Y-136262729D01*
X74022000Y-136284807D02*
X74030678Y-136283830D01*
X73805640Y-136270124D02*
X73811815Y-136276299D01*
X73800994Y-136262729D02*
X73805640Y-136270124D01*
X73793269Y-136228886D02*
X73796154Y-136237129D01*
X73788623Y-136221491D02*
X73793269Y-136228886D01*
X73775053Y-136210670D02*
X73782448Y-136215316D01*
X73766810Y-136207785D02*
X73775053Y-136210670D01*
X73758132Y-136206807D02*
X73766810Y-136207785D01*
G04 #@! TO.N,/USB Hub + SDIO Bridge/USB2_D_P*
X72262753Y-135993193D02*
X74394241Y-135993193D01*
X78544241Y-167006807D02*
X78132753Y-167006807D01*
X78132753Y-167006807D02*
X77950000Y-167189560D01*
X80756807Y-164794241D02*
X78544241Y-167006807D01*
X80756807Y-142355759D02*
X80756807Y-164794241D01*
X74394241Y-135993193D02*
X80756807Y-142355759D01*
X72080000Y-135810440D02*
X72262753Y-135993193D01*
G04 #@! TO.N,/Smart Card/SMARTCARD_D_N*
X82255723Y-168295325D02*
X74206807Y-176344241D01*
X74206807Y-193367247D02*
X74389560Y-193550000D01*
X82438476Y-167632508D02*
X82255723Y-167815261D01*
X82255723Y-167815261D02*
X82255723Y-168295325D01*
X74206807Y-176344241D02*
X74206807Y-193367247D01*
G04 #@! TO.N,/Smart Card/SMARTCARD_D_P*
X82042109Y-168206843D02*
X73993193Y-176255759D01*
X82042109Y-167815261D02*
X82042109Y-168206843D01*
X81859356Y-167632508D02*
X82042109Y-167815261D01*
X73993193Y-193367247D02*
X73810440Y-193550000D01*
X73993193Y-176255759D02*
X73993193Y-193367247D01*
D41*
G04 #@! TO.N,Net-(C447-Pad1)*
X123725000Y-93700000D02*
X123000000Y-92975000D01*
X123725000Y-95750000D02*
X123725000Y-93700000D01*
D40*
G04 #@! TO.N,/MIPI/I2C3_SDA_1V8*
X84548311Y-172021689D02*
X84548311Y-172000000D01*
X82740000Y-159740000D02*
X82740000Y-150273289D01*
X83867002Y-160867002D02*
X82740000Y-159740000D01*
X83867002Y-165267002D02*
X83867002Y-160867002D01*
X84548311Y-172000000D02*
X84548311Y-165948311D01*
X82740000Y-150273289D02*
X82740000Y-149950000D01*
X84548311Y-165948311D02*
X83867002Y-165267002D01*
X84548311Y-172000000D02*
X84548311Y-172251689D01*
X82683289Y-220600000D02*
X82360000Y-220600000D01*
X84548311Y-172251689D02*
X83109942Y-173690058D01*
X83109942Y-173690058D02*
X83109942Y-220173347D01*
X83109942Y-220173347D02*
X82683289Y-220600000D01*
X142723262Y-117176738D02*
X144700000Y-115200000D01*
X141023262Y-117176738D02*
X142723262Y-117176738D01*
X140400000Y-117800000D02*
X141023262Y-117176738D01*
X138700000Y-118900000D02*
X139800000Y-117800000D01*
X138700000Y-119500000D02*
X138700000Y-118900000D01*
X114100000Y-144800000D02*
X128600000Y-130300000D01*
X139800000Y-117800000D02*
X140400000Y-117800000D01*
X128600000Y-130300000D02*
X130600000Y-130300000D01*
X97400000Y-144800000D02*
X114100000Y-144800000D01*
X130600000Y-130300000D02*
X132700000Y-128200000D01*
X132700000Y-128200000D02*
X132700000Y-125500000D01*
X132700000Y-125500000D02*
X138700000Y-119500000D01*
G04 #@! TO.N,/MIPI/I2C3_SCL_1V8*
X83400000Y-161000000D02*
X83400000Y-172800000D01*
X82345831Y-147400000D02*
X82345831Y-147723289D01*
X81360000Y-219340000D02*
X81360000Y-220776711D01*
X82345831Y-147723289D02*
X82310000Y-147759120D01*
X82800000Y-173400000D02*
X82800000Y-217900000D01*
X82800000Y-217900000D02*
X81360000Y-219340000D01*
X83400000Y-172800000D02*
X82800000Y-173400000D01*
X81360000Y-220776711D02*
X81360000Y-221100000D01*
X82310000Y-147759120D02*
X82310000Y-159910000D01*
X82310000Y-159910000D02*
X83400000Y-161000000D01*
X140400000Y-117400000D02*
X140910004Y-116889996D01*
X139700000Y-117400000D02*
X140400000Y-117400000D01*
X138400000Y-118700000D02*
X139700000Y-117400000D01*
X142410004Y-116889996D02*
X144100000Y-115200000D01*
X138400000Y-119400000D02*
X138400000Y-118700000D01*
X140910004Y-116889996D02*
X142410004Y-116889996D01*
X114700000Y-143800000D02*
X128500000Y-130000000D01*
X132400000Y-128100000D02*
X132400000Y-125400000D01*
X97400000Y-143800000D02*
X114700000Y-143800000D01*
X128500000Y-130000000D02*
X130500000Y-130000000D01*
X130500000Y-130000000D02*
X132400000Y-128100000D01*
X132400000Y-125400000D02*
X138400000Y-119400000D01*
G04 #@! TO.N,/I2C3_SCL*
X64528599Y-125928599D02*
X64300000Y-125700000D01*
X65222920Y-126622920D02*
X64528599Y-125928599D01*
X65222920Y-144800000D02*
X65222920Y-126622920D01*
G04 #@! TO.N,/I2C3_SDA*
X67600000Y-138120000D02*
X66500000Y-137020000D01*
X66200000Y-141900000D02*
X67600000Y-140500000D01*
X67600000Y-140500000D02*
X67600000Y-138120000D01*
X66500000Y-137020000D02*
X66500000Y-127100000D01*
X67176318Y-144476318D02*
X66200000Y-143500000D01*
X66200000Y-143500000D02*
X66200000Y-141900000D01*
X64528599Y-125128599D02*
X64300000Y-124900000D01*
X66500000Y-127100000D02*
X64528599Y-125128599D01*
X70007389Y-144476318D02*
X67176318Y-144476318D01*
G04 #@! TO.N,/I2C1_SCL*
X116800000Y-169400000D02*
X117387000Y-169987000D01*
X107330000Y-169400000D02*
X116800000Y-169400000D01*
X107100000Y-169400000D02*
X104700000Y-169400000D01*
X107330000Y-169400000D02*
X107100000Y-169400000D01*
X104700000Y-169400000D02*
X103889189Y-170210811D01*
X103500000Y-171481001D02*
X103500000Y-170210811D01*
X103332139Y-171648862D02*
X103500000Y-171481001D01*
X103332139Y-173332139D02*
X103332139Y-171648862D01*
X103750000Y-173750000D02*
X103332139Y-173332139D01*
X103889189Y-170210811D02*
X103500000Y-170210811D01*
X85550000Y-130250000D02*
X85550000Y-133000000D01*
X84927080Y-133622920D02*
X84927080Y-136522920D01*
X82300000Y-127000000D02*
X85550000Y-130250000D01*
X68300000Y-141510000D02*
X68300000Y-137400000D01*
X68300000Y-137400000D02*
X67850000Y-136950000D01*
X67850000Y-136950000D02*
X67850000Y-132350000D01*
X67850000Y-132350000D02*
X73200000Y-127000000D01*
X85550000Y-133000000D02*
X84927080Y-133622920D01*
X67110000Y-142700000D02*
X68300000Y-141510000D01*
X73200000Y-127000000D02*
X82300000Y-127000000D01*
X85300000Y-136895840D02*
X84927080Y-136522920D01*
X84650000Y-138000000D02*
X85300000Y-137350000D01*
X84650000Y-157200000D02*
X84650000Y-138000000D01*
X85300000Y-137350000D02*
X85300000Y-136895840D01*
X103500000Y-170210811D02*
X97660811Y-170210811D01*
X97660811Y-170210811D02*
X84650000Y-157200000D01*
G04 #@! TO.N,/I2C1_SDA*
X81250000Y-136672105D02*
X81777895Y-137200000D01*
X81250000Y-136672105D02*
X81250000Y-133650000D01*
X81700000Y-128738370D02*
X81411630Y-128738370D01*
X81700000Y-128738370D02*
X80926630Y-128738370D01*
X80621630Y-128738370D02*
X80926630Y-128738370D01*
X80621630Y-128738370D02*
X80621630Y-133021630D01*
X80621630Y-133021630D02*
X81250000Y-133650000D01*
X103875909Y-174250000D02*
X103447000Y-174250000D01*
X104172911Y-173952998D02*
X103875909Y-174250000D01*
X114400000Y-169700000D02*
X106600000Y-169700000D01*
X104177961Y-172122039D02*
X104177961Y-172447948D01*
X114687000Y-169987000D02*
X114400000Y-169700000D01*
X106600000Y-169700000D02*
X104177961Y-172122039D01*
X104172911Y-172452998D02*
X104172911Y-173952998D01*
X104177961Y-172447948D02*
X104172911Y-172452998D01*
X83188370Y-128738370D02*
X81700000Y-128738370D01*
X84945821Y-130495821D02*
X83188370Y-128738370D01*
X84945821Y-132784179D02*
X84945821Y-130495821D01*
X84100000Y-133630000D02*
X84945821Y-132784179D01*
X103447000Y-174250000D02*
X103024089Y-174672911D01*
X94200000Y-169100000D02*
X94200000Y-167500000D01*
X84100000Y-157400000D02*
X84100000Y-133630000D01*
X103024089Y-174672911D02*
X99772911Y-174672911D01*
X99772911Y-174672911D02*
X94200000Y-169100000D01*
X94200000Y-167500000D02*
X84100000Y-157400000D01*
X75000000Y-134360000D02*
X80621630Y-128738370D01*
X75000000Y-135250000D02*
X75000000Y-134360000D01*
X74777089Y-135472911D02*
X75000000Y-135250000D01*
X71526998Y-134947089D02*
X73747089Y-134947089D01*
X68810000Y-142322916D02*
X69416993Y-142322916D01*
X74272911Y-135472911D02*
X74777089Y-135472911D01*
X69810000Y-139710000D02*
X69489000Y-139389000D01*
X73747089Y-134947089D02*
X74272911Y-135472911D01*
X69416993Y-142322916D02*
X69810000Y-141929909D01*
X69810000Y-141929909D02*
X69810000Y-139710000D01*
X69489000Y-139389000D02*
X69489000Y-136985087D01*
X69489000Y-136985087D02*
X71526998Y-134947089D01*
D46*
G04 #@! TO.N,/HDMI/HDMI_HEAC_N*
X99879301Y-231988790D02*
X100107900Y-232217389D01*
X97200000Y-229309489D02*
X99879301Y-231988790D01*
X97200000Y-228750000D02*
X97200000Y-229309489D01*
X96798000Y-228348000D02*
X97200000Y-228750000D01*
X86777001Y-228348000D02*
X96798000Y-228348000D01*
X85300178Y-229824823D02*
X86777001Y-228348000D01*
X85300178Y-232449822D02*
X85300178Y-229824823D01*
X71500000Y-170610000D02*
X71500000Y-195300000D01*
X71040000Y-170150000D02*
X71500000Y-170610000D01*
X71500000Y-195300000D02*
X70700000Y-196100000D01*
X70700000Y-229200000D02*
X76550000Y-235050000D01*
X70700000Y-196100000D02*
X70700000Y-229200000D01*
X82700000Y-235050000D02*
X85300178Y-232449822D01*
X76550000Y-235050000D02*
X82700000Y-235050000D01*
D41*
G04 #@! TO.N,22V4_P*
X140000000Y-98125000D02*
X141025000Y-99150000D01*
X141025000Y-99150000D02*
X142368990Y-99150000D01*
X141343990Y-98125000D02*
X142368990Y-99150000D01*
X140000000Y-98125000D02*
X141343990Y-98125000D01*
X141650000Y-99150000D02*
X140625000Y-98125000D01*
X140950000Y-98125000D02*
X141975000Y-99150000D01*
X140000000Y-98125000D02*
X140950000Y-98125000D01*
X142368990Y-99150000D02*
X141975000Y-99150000D01*
X141975000Y-99150000D02*
X141650000Y-99150000D01*
G04 #@! TD*
D42*
G04 #@! TO.N,Net-(C216-Pad2)*
G36*
X96743000Y-229273000D02*
X96100000Y-229273000D01*
X96051399Y-229282667D01*
X96010197Y-229310197D01*
X95982667Y-229351399D01*
X95973000Y-229400000D01*
X95973000Y-235137494D01*
X95935357Y-235228371D01*
X95935357Y-235423543D01*
X95973000Y-235514420D01*
X95973000Y-237073000D01*
X93551000Y-237073000D01*
X93551000Y-236982361D01*
X93472444Y-236792710D01*
X93327290Y-236647556D01*
X93137639Y-236569000D01*
X92932361Y-236569000D01*
X92742710Y-236647556D01*
X92597556Y-236792710D01*
X92519000Y-236982361D01*
X92519000Y-237073000D01*
X85627000Y-237073000D01*
X85627000Y-236227000D01*
X85656000Y-236227000D01*
X85656000Y-236527000D01*
X85754384Y-236767608D01*
X85937355Y-236952251D01*
X86084203Y-237013784D01*
X86183000Y-236976681D01*
X86183000Y-236227000D01*
X86437000Y-236227000D01*
X86437000Y-236976681D01*
X86535797Y-237013784D01*
X86682645Y-236952251D01*
X86865616Y-236767608D01*
X86964000Y-236527000D01*
X86964000Y-236227000D01*
X86437000Y-236227000D01*
X86183000Y-236227000D01*
X85656000Y-236227000D01*
X85627000Y-236227000D01*
X85627000Y-235673000D01*
X85656000Y-235673000D01*
X85656000Y-235973000D01*
X86183000Y-235973000D01*
X86183000Y-235223319D01*
X86437000Y-235223319D01*
X86437000Y-235973000D01*
X86964000Y-235973000D01*
X86964000Y-235947361D01*
X90184000Y-235947361D01*
X90184000Y-236152639D01*
X90262556Y-236342290D01*
X90407710Y-236487444D01*
X90597361Y-236566000D01*
X90802639Y-236566000D01*
X90992290Y-236487444D01*
X91137444Y-236342290D01*
X91216000Y-236152639D01*
X91216000Y-235947361D01*
X92384000Y-235947361D01*
X92384000Y-236152639D01*
X92462556Y-236342290D01*
X92607710Y-236487444D01*
X92797361Y-236566000D01*
X93002639Y-236566000D01*
X93192290Y-236487444D01*
X93337444Y-236342290D01*
X93385198Y-236227000D01*
X94636000Y-236227000D01*
X94636000Y-236527000D01*
X94734384Y-236767608D01*
X94917355Y-236952251D01*
X95064203Y-237013784D01*
X95163000Y-236976681D01*
X95163000Y-236227000D01*
X95417000Y-236227000D01*
X95417000Y-236976681D01*
X95515797Y-237013784D01*
X95662645Y-236952251D01*
X95845616Y-236767608D01*
X95944000Y-236527000D01*
X95944000Y-236227000D01*
X95417000Y-236227000D01*
X95163000Y-236227000D01*
X94636000Y-236227000D01*
X93385198Y-236227000D01*
X93416000Y-236152639D01*
X93416000Y-235947361D01*
X93337444Y-235757710D01*
X93192290Y-235612556D01*
X93002639Y-235534000D01*
X92797361Y-235534000D01*
X92607710Y-235612556D01*
X92462556Y-235757710D01*
X92384000Y-235947361D01*
X91216000Y-235947361D01*
X91137444Y-235757710D01*
X90992290Y-235612556D01*
X90802639Y-235534000D01*
X90597361Y-235534000D01*
X90407710Y-235612556D01*
X90262556Y-235757710D01*
X90184000Y-235947361D01*
X86964000Y-235947361D01*
X86964000Y-235673000D01*
X86865616Y-235432392D01*
X86682645Y-235247749D01*
X86574454Y-235202414D01*
X93309400Y-235202414D01*
X93309400Y-235397586D01*
X93384090Y-235577902D01*
X93522098Y-235715910D01*
X93702414Y-235790600D01*
X93897586Y-235790600D01*
X94077902Y-235715910D01*
X94120812Y-235673000D01*
X94636000Y-235673000D01*
X94636000Y-235973000D01*
X95163000Y-235973000D01*
X95163000Y-235223319D01*
X95417000Y-235223319D01*
X95417000Y-235973000D01*
X95944000Y-235973000D01*
X95944000Y-235673000D01*
X95845616Y-235432392D01*
X95662645Y-235247749D01*
X95515797Y-235186216D01*
X95417000Y-235223319D01*
X95163000Y-235223319D01*
X95064203Y-235186216D01*
X94917355Y-235247749D01*
X94734384Y-235432392D01*
X94636000Y-235673000D01*
X94120812Y-235673000D01*
X94215910Y-235577902D01*
X94290600Y-235397586D01*
X94290600Y-235202414D01*
X94215910Y-235022098D01*
X94077902Y-234884090D01*
X93897586Y-234809400D01*
X93702414Y-234809400D01*
X93522098Y-234884090D01*
X93384090Y-235022098D01*
X93309400Y-235202414D01*
X86574454Y-235202414D01*
X86535797Y-235186216D01*
X86437000Y-235223319D01*
X86183000Y-235223319D01*
X86084203Y-235186216D01*
X85937355Y-235247749D01*
X85754384Y-235432392D01*
X85656000Y-235673000D01*
X85627000Y-235673000D01*
X85627000Y-231102414D01*
X88784400Y-231102414D01*
X88784400Y-231297586D01*
X88859090Y-231477902D01*
X88997098Y-231615910D01*
X89177414Y-231690600D01*
X89372586Y-231690600D01*
X89552902Y-231615910D01*
X89690910Y-231477902D01*
X89765600Y-231297586D01*
X89765600Y-231102414D01*
X89707610Y-230962414D01*
X89769840Y-230962414D01*
X89769840Y-231157586D01*
X89844530Y-231337902D01*
X89982538Y-231475910D01*
X90162854Y-231550600D01*
X90358026Y-231550600D01*
X90538342Y-231475910D01*
X90550000Y-231464252D01*
X90561658Y-231475910D01*
X90741974Y-231550600D01*
X90937146Y-231550600D01*
X91117462Y-231475910D01*
X91255470Y-231337902D01*
X91330160Y-231157586D01*
X91330160Y-230962414D01*
X91255470Y-230782098D01*
X91117462Y-230644090D01*
X90937146Y-230569400D01*
X90741974Y-230569400D01*
X90561658Y-230644090D01*
X90550000Y-230655748D01*
X90538342Y-230644090D01*
X90358026Y-230569400D01*
X90162854Y-230569400D01*
X89982538Y-230644090D01*
X89844530Y-230782098D01*
X89769840Y-230962414D01*
X89707610Y-230962414D01*
X89690910Y-230922098D01*
X89552902Y-230784090D01*
X89372586Y-230709400D01*
X89177414Y-230709400D01*
X88997098Y-230784090D01*
X88859090Y-230922098D01*
X88784400Y-231102414D01*
X85627000Y-231102414D01*
X85627000Y-230277000D01*
X86016000Y-230277000D01*
X86016000Y-230577000D01*
X86114384Y-230817608D01*
X86297355Y-231002251D01*
X86444203Y-231063784D01*
X86543000Y-231026681D01*
X86543000Y-230277000D01*
X86797000Y-230277000D01*
X86797000Y-231026681D01*
X86895797Y-231063784D01*
X87042645Y-231002251D01*
X87225616Y-230817608D01*
X87324000Y-230577000D01*
X87324000Y-230277000D01*
X94276000Y-230277000D01*
X94276000Y-230577000D01*
X94374384Y-230817608D01*
X94557355Y-231002251D01*
X94704203Y-231063784D01*
X94803000Y-231026681D01*
X94803000Y-230277000D01*
X95057000Y-230277000D01*
X95057000Y-231026681D01*
X95155797Y-231063784D01*
X95302645Y-231002251D01*
X95485616Y-230817608D01*
X95584000Y-230577000D01*
X95584000Y-230277000D01*
X95057000Y-230277000D01*
X94803000Y-230277000D01*
X94276000Y-230277000D01*
X87324000Y-230277000D01*
X86797000Y-230277000D01*
X86543000Y-230277000D01*
X86016000Y-230277000D01*
X85627000Y-230277000D01*
X85627000Y-229931566D01*
X85631566Y-229927000D01*
X86016000Y-229927000D01*
X86016000Y-230023000D01*
X86543000Y-230023000D01*
X86543000Y-230003000D01*
X86797000Y-230003000D01*
X86797000Y-230023000D01*
X87324000Y-230023000D01*
X87324000Y-229927000D01*
X94276000Y-229927000D01*
X94276000Y-230023000D01*
X94803000Y-230023000D01*
X94803000Y-230003000D01*
X95057000Y-230003000D01*
X95057000Y-230023000D01*
X95584000Y-230023000D01*
X95584000Y-229723000D01*
X95485616Y-229482392D01*
X95302645Y-229297749D01*
X95155797Y-229236216D01*
X95057002Y-229273318D01*
X95057002Y-229261657D01*
X95135643Y-229143963D01*
X95552606Y-228727000D01*
X96743000Y-228727000D01*
X96743000Y-229273000D01*
X96743000Y-229273000D01*
G37*
X96743000Y-229273000D02*
X96100000Y-229273000D01*
X96051399Y-229282667D01*
X96010197Y-229310197D01*
X95982667Y-229351399D01*
X95973000Y-229400000D01*
X95973000Y-235137494D01*
X95935357Y-235228371D01*
X95935357Y-235423543D01*
X95973000Y-235514420D01*
X95973000Y-237073000D01*
X93551000Y-237073000D01*
X93551000Y-236982361D01*
X93472444Y-236792710D01*
X93327290Y-236647556D01*
X93137639Y-236569000D01*
X92932361Y-236569000D01*
X92742710Y-236647556D01*
X92597556Y-236792710D01*
X92519000Y-236982361D01*
X92519000Y-237073000D01*
X85627000Y-237073000D01*
X85627000Y-236227000D01*
X85656000Y-236227000D01*
X85656000Y-236527000D01*
X85754384Y-236767608D01*
X85937355Y-236952251D01*
X86084203Y-237013784D01*
X86183000Y-236976681D01*
X86183000Y-236227000D01*
X86437000Y-236227000D01*
X86437000Y-236976681D01*
X86535797Y-237013784D01*
X86682645Y-236952251D01*
X86865616Y-236767608D01*
X86964000Y-236527000D01*
X86964000Y-236227000D01*
X86437000Y-236227000D01*
X86183000Y-236227000D01*
X85656000Y-236227000D01*
X85627000Y-236227000D01*
X85627000Y-235673000D01*
X85656000Y-235673000D01*
X85656000Y-235973000D01*
X86183000Y-235973000D01*
X86183000Y-235223319D01*
X86437000Y-235223319D01*
X86437000Y-235973000D01*
X86964000Y-235973000D01*
X86964000Y-235947361D01*
X90184000Y-235947361D01*
X90184000Y-236152639D01*
X90262556Y-236342290D01*
X90407710Y-236487444D01*
X90597361Y-236566000D01*
X90802639Y-236566000D01*
X90992290Y-236487444D01*
X91137444Y-236342290D01*
X91216000Y-236152639D01*
X91216000Y-235947361D01*
X92384000Y-235947361D01*
X92384000Y-236152639D01*
X92462556Y-236342290D01*
X92607710Y-236487444D01*
X92797361Y-236566000D01*
X93002639Y-236566000D01*
X93192290Y-236487444D01*
X93337444Y-236342290D01*
X93385198Y-236227000D01*
X94636000Y-236227000D01*
X94636000Y-236527000D01*
X94734384Y-236767608D01*
X94917355Y-236952251D01*
X95064203Y-237013784D01*
X95163000Y-236976681D01*
X95163000Y-236227000D01*
X95417000Y-236227000D01*
X95417000Y-236976681D01*
X95515797Y-237013784D01*
X95662645Y-236952251D01*
X95845616Y-236767608D01*
X95944000Y-236527000D01*
X95944000Y-236227000D01*
X95417000Y-236227000D01*
X95163000Y-236227000D01*
X94636000Y-236227000D01*
X93385198Y-236227000D01*
X93416000Y-236152639D01*
X93416000Y-235947361D01*
X93337444Y-235757710D01*
X93192290Y-235612556D01*
X93002639Y-235534000D01*
X92797361Y-235534000D01*
X92607710Y-235612556D01*
X92462556Y-235757710D01*
X92384000Y-235947361D01*
X91216000Y-235947361D01*
X91137444Y-235757710D01*
X90992290Y-235612556D01*
X90802639Y-235534000D01*
X90597361Y-235534000D01*
X90407710Y-235612556D01*
X90262556Y-235757710D01*
X90184000Y-235947361D01*
X86964000Y-235947361D01*
X86964000Y-235673000D01*
X86865616Y-235432392D01*
X86682645Y-235247749D01*
X86574454Y-235202414D01*
X93309400Y-235202414D01*
X93309400Y-235397586D01*
X93384090Y-235577902D01*
X93522098Y-235715910D01*
X93702414Y-235790600D01*
X93897586Y-235790600D01*
X94077902Y-235715910D01*
X94120812Y-235673000D01*
X94636000Y-235673000D01*
X94636000Y-235973000D01*
X95163000Y-235973000D01*
X95163000Y-235223319D01*
X95417000Y-235223319D01*
X95417000Y-235973000D01*
X95944000Y-235973000D01*
X95944000Y-235673000D01*
X95845616Y-235432392D01*
X95662645Y-235247749D01*
X95515797Y-235186216D01*
X95417000Y-235223319D01*
X95163000Y-235223319D01*
X95064203Y-235186216D01*
X94917355Y-235247749D01*
X94734384Y-235432392D01*
X94636000Y-235673000D01*
X94120812Y-235673000D01*
X94215910Y-235577902D01*
X94290600Y-235397586D01*
X94290600Y-235202414D01*
X94215910Y-235022098D01*
X94077902Y-234884090D01*
X93897586Y-234809400D01*
X93702414Y-234809400D01*
X93522098Y-234884090D01*
X93384090Y-235022098D01*
X93309400Y-235202414D01*
X86574454Y-235202414D01*
X86535797Y-235186216D01*
X86437000Y-235223319D01*
X86183000Y-235223319D01*
X86084203Y-235186216D01*
X85937355Y-235247749D01*
X85754384Y-235432392D01*
X85656000Y-235673000D01*
X85627000Y-235673000D01*
X85627000Y-231102414D01*
X88784400Y-231102414D01*
X88784400Y-231297586D01*
X88859090Y-231477902D01*
X88997098Y-231615910D01*
X89177414Y-231690600D01*
X89372586Y-231690600D01*
X89552902Y-231615910D01*
X89690910Y-231477902D01*
X89765600Y-231297586D01*
X89765600Y-231102414D01*
X89707610Y-230962414D01*
X89769840Y-230962414D01*
X89769840Y-231157586D01*
X89844530Y-231337902D01*
X89982538Y-231475910D01*
X90162854Y-231550600D01*
X90358026Y-231550600D01*
X90538342Y-231475910D01*
X90550000Y-231464252D01*
X90561658Y-231475910D01*
X90741974Y-231550600D01*
X90937146Y-231550600D01*
X91117462Y-231475910D01*
X91255470Y-231337902D01*
X91330160Y-231157586D01*
X91330160Y-230962414D01*
X91255470Y-230782098D01*
X91117462Y-230644090D01*
X90937146Y-230569400D01*
X90741974Y-230569400D01*
X90561658Y-230644090D01*
X90550000Y-230655748D01*
X90538342Y-230644090D01*
X90358026Y-230569400D01*
X90162854Y-230569400D01*
X89982538Y-230644090D01*
X89844530Y-230782098D01*
X89769840Y-230962414D01*
X89707610Y-230962414D01*
X89690910Y-230922098D01*
X89552902Y-230784090D01*
X89372586Y-230709400D01*
X89177414Y-230709400D01*
X88997098Y-230784090D01*
X88859090Y-230922098D01*
X88784400Y-231102414D01*
X85627000Y-231102414D01*
X85627000Y-230277000D01*
X86016000Y-230277000D01*
X86016000Y-230577000D01*
X86114384Y-230817608D01*
X86297355Y-231002251D01*
X86444203Y-231063784D01*
X86543000Y-231026681D01*
X86543000Y-230277000D01*
X86797000Y-230277000D01*
X86797000Y-231026681D01*
X86895797Y-231063784D01*
X87042645Y-231002251D01*
X87225616Y-230817608D01*
X87324000Y-230577000D01*
X87324000Y-230277000D01*
X94276000Y-230277000D01*
X94276000Y-230577000D01*
X94374384Y-230817608D01*
X94557355Y-231002251D01*
X94704203Y-231063784D01*
X94803000Y-231026681D01*
X94803000Y-230277000D01*
X95057000Y-230277000D01*
X95057000Y-231026681D01*
X95155797Y-231063784D01*
X95302645Y-231002251D01*
X95485616Y-230817608D01*
X95584000Y-230577000D01*
X95584000Y-230277000D01*
X95057000Y-230277000D01*
X94803000Y-230277000D01*
X94276000Y-230277000D01*
X87324000Y-230277000D01*
X86797000Y-230277000D01*
X86543000Y-230277000D01*
X86016000Y-230277000D01*
X85627000Y-230277000D01*
X85627000Y-229931566D01*
X85631566Y-229927000D01*
X86016000Y-229927000D01*
X86016000Y-230023000D01*
X86543000Y-230023000D01*
X86543000Y-230003000D01*
X86797000Y-230003000D01*
X86797000Y-230023000D01*
X87324000Y-230023000D01*
X87324000Y-229927000D01*
X94276000Y-229927000D01*
X94276000Y-230023000D01*
X94803000Y-230023000D01*
X94803000Y-230003000D01*
X95057000Y-230003000D01*
X95057000Y-230023000D01*
X95584000Y-230023000D01*
X95584000Y-229723000D01*
X95485616Y-229482392D01*
X95302645Y-229297749D01*
X95155797Y-229236216D01*
X95057002Y-229273318D01*
X95057002Y-229261657D01*
X95135643Y-229143963D01*
X95552606Y-228727000D01*
X96743000Y-228727000D01*
X96743000Y-229273000D01*
G04 #@! TO.N,GND*
G36*
X109973000Y-136573000D02*
X107727000Y-136573000D01*
X107727000Y-134327000D01*
X109973000Y-134327000D01*
X109973000Y-136573000D01*
X109973000Y-136573000D01*
G37*
X109973000Y-136573000D02*
X107727000Y-136573000D01*
X107727000Y-134327000D01*
X109973000Y-134327000D01*
X109973000Y-136573000D01*
G36*
X107923000Y-174085377D02*
X107635377Y-174373000D01*
X105177000Y-174373000D01*
X105177000Y-171627000D01*
X107923000Y-171627000D01*
X107923000Y-174085377D01*
X107923000Y-174085377D01*
G37*
X107923000Y-174085377D02*
X107635377Y-174373000D01*
X105177000Y-174373000D01*
X105177000Y-171627000D01*
X107923000Y-171627000D01*
X107923000Y-174085377D01*
G36*
X121248000Y-154157000D02*
X120802000Y-154157000D01*
X120802000Y-151993000D01*
X121248000Y-151993000D01*
X121248000Y-154157000D01*
X121248000Y-154157000D01*
G37*
X121248000Y-154157000D02*
X120802000Y-154157000D01*
X120802000Y-151993000D01*
X121248000Y-151993000D01*
X121248000Y-154157000D01*
G36*
X107383000Y-124268000D02*
X106617000Y-124268000D01*
X106617000Y-122732000D01*
X107383000Y-122732000D01*
X107383000Y-124268000D01*
X107383000Y-124268000D01*
G37*
X107383000Y-124268000D02*
X106617000Y-124268000D01*
X106617000Y-122732000D01*
X107383000Y-122732000D01*
X107383000Y-124268000D01*
G36*
X126865000Y-159309000D02*
X125329000Y-159309000D01*
X125329000Y-158543000D01*
X126865000Y-158543000D01*
X126865000Y-159309000D01*
X126865000Y-159309000D01*
G37*
X126865000Y-159309000D02*
X125329000Y-159309000D01*
X125329000Y-158543000D01*
X126865000Y-158543000D01*
X126865000Y-159309000D01*
G36*
X124573000Y-177473000D02*
X123827000Y-177473000D01*
X123827000Y-176547937D01*
X124347937Y-176027000D01*
X124573000Y-176027000D01*
X124573000Y-177473000D01*
X124573000Y-177473000D01*
G37*
X124573000Y-177473000D02*
X123827000Y-177473000D01*
X123827000Y-176547937D01*
X124347937Y-176027000D01*
X124573000Y-176027000D01*
X124573000Y-177473000D01*
G04 #@! TD*
M02*
