G04 #@! TF.GenerationSoftware,KiCad,Pcbnew,5.0.0*
G04 #@! TF.CreationDate,2018-09-25T20:09:45-04:00*
G04 #@! TF.ProjectId,dvk-mx8m-bsb,64766B2D6D78386D2D6273622E6B6963,v0.1.3*
G04 #@! TF.SameCoordinates,Original*
G04 #@! TF.FileFunction,Profile,NP*
%FSLAX46Y46*%
G04 Gerber Fmt 4.6, Leading zero omitted, Abs format (unit mm)*
G04 Created by KiCad (PCBNEW 5.0.0) date Tue Sep 25 20:09:45 2018*
%MOMM*%
%LPD*%
G01*
G04 APERTURE LIST*
%ADD10C,0.150000*%
G04 #@! TA.AperFunction,NonConductor*
%ADD11C,0.150000*%
G04 #@! TD*
G04 APERTURE END LIST*
D10*
X150000000Y-232800000D02*
X150000000Y-64200000D01*
X119150000Y-58500000D02*
X144300000Y-58500000D01*
X119150000Y-61200000D02*
X119150000Y-58500000D01*
X116850000Y-61200000D02*
X119150000Y-61200000D01*
X116850000Y-58500000D02*
X116850000Y-61200000D01*
X144300000Y-238500000D02*
G75*
G03X150000000Y-232800000I0J5700000D01*
G01*
X65700000Y-238500000D02*
X144300000Y-238500000D01*
X150000000Y-64200000D02*
G75*
G03X144300000Y-58500000I-5700000J0D01*
G01*
X116850000Y-58500000D02*
X60000000Y-58500000D01*
X60000000Y-58500000D02*
X60000000Y-232800000D01*
X60000000Y-232800000D02*
G75*
G03X65700000Y-238500000I5700000J0D01*
G01*
D11*
G04 #@! TO.C,LS1601*
X106025000Y-60690000D02*
X92800000Y-60690000D01*
X91375000Y-69365000D02*
X91375000Y-62115000D01*
X106025000Y-70790000D02*
X92800000Y-70790000D01*
X106025000Y-70790000D02*
X106025000Y-60690000D01*
X91375000Y-69365000D02*
X92800000Y-70790000D01*
X92800000Y-60690000D02*
X91375000Y-62115000D01*
G04 #@! TO.C,J1803*
X117500000Y-108640000D02*
G75*
G03X116500000Y-109640000I-500000J-500000D01*
G01*
X137500000Y-113450000D02*
X137500000Y-109640000D01*
X136500000Y-108640000D02*
X117500000Y-108640000D01*
X116500000Y-109640000D02*
X116500000Y-113450000D01*
X116500000Y-113450000D02*
X137500000Y-113450000D01*
X136500000Y-108640000D02*
G75*
G02X137500000Y-109640000I500000J-500000D01*
G01*
G04 #@! TD*
M02*
