M48
;DRILL file {KiCad 5.0.0} date Thu Aug 16 14:39:31 2018
;FORMAT={-:-/ absolute / inch / decimal}
FMAT,2
INCH,TZ
T1C0.0079
T2C0.0080
T3C0.0091
T4C0.0100
T5C0.0118
T6C0.0197
T7C0.0256
T8C0.0315
T9C0.0335
T10C0.0350
T11C0.0394
T12C0.0402
T13C0.0433
T14C0.0622
T15C0.0709
T16C0.0866
T17C0.1260
T18C0.1469
T19C0.1693
%
G90
G05
M72
T1
X3.7697Y-8.4522
X3.7697Y-8.4876
T2
X2.4134Y-4.5945
X2.4409Y-4.5669
X2.4606Y-4.5866
X2.5217Y-3.7185
X2.5315Y-3.811
X2.5315Y-4.9173
X2.5315Y-4.9488
X2.5315Y-4.9803
X2.5422Y-3.7288
X2.565Y-3.7185
X2.5663Y-6.0906
X2.5678Y-5.7008
X2.5709Y-6.5748
X2.5709Y-4.0945
X2.5748Y-4.0669
X2.5925Y-8.5433
X2.5984Y-4.1299
X2.599Y-4.4189
X2.6043Y-8.8465
X2.6072Y-5.9665
X2.6122Y-6.5591
X2.6142Y-5.7598
X2.6142Y-5.8661
X2.622Y-5.4414
X2.622Y-5.465
X2.624Y-6.1417
X2.6272Y-6.6654
X2.6378Y-6.5591
X2.6398Y-6.585
X2.6402Y-5.2343
X2.6417Y-4.1102
X2.6421Y-5.1772
X2.6421Y-5.4764
X2.6421Y-5.6181
X2.6421Y-6.1772
X2.6421Y-6.3504
X2.6421Y-6.4606
X2.6438Y-5.6568
X2.6555Y-8.8465
X2.6654Y-4.6063
X2.6693Y-8.8858
X2.6732Y-4.2402
X2.6929Y-8.8858
X2.7004Y-8.2807
X2.7004Y-8.3307
X2.7004Y-8.3807
X2.7004Y-8.4307
X2.7008Y-4.2677
X2.7008Y-6.0354
X2.7037Y-5.3819
X2.7039Y-5.7105
X2.7047Y-5.3589
X2.7054Y-5.6709
X2.7067Y-5.4469
X2.7067Y-5.4921
X2.7081Y-6.1148
X2.7084Y-5.4073
X2.7087Y-6.1417
X2.7087Y-6.2559
X2.7091Y-5.5394
X2.7091Y-5.57
X2.7091Y-5.6033
X2.7091Y-6.2102
X2.7091Y-6.4764
X2.7091Y-6.5154
X2.7091Y-6.6181
X2.7093Y-6.1707
X2.7098Y-5.6445
X2.7106Y-8.0768
X2.7126Y-6.315
X2.7244Y-6.0472
X2.7244Y-8.628
X2.725Y-5.5866
X2.7283Y-4.0512
X2.7292Y-6.3346
X2.7314Y-5.5512
X2.7323Y-4.1811
X2.7323Y-5.7677
X2.7339Y-5.2717
X2.7362Y-6.0709
X2.7402Y-5.3307
X2.7435Y-5.6246
X2.7449Y-6.3567
X2.7451Y-6.0973
X2.748Y-5.7874
X2.7529Y-5.4016
X2.7539Y-6.1929
X2.7559Y-5.1894
X2.7559Y-5.2122
X2.7559Y-5.2839
X2.7559Y-5.3067
X2.7559Y-6.2862
X2.7562Y-5.688
X2.7568Y-5.7111
X2.7568Y-5.735
X2.7598Y-4.5866
X2.7598Y-4.4213
X2.7614Y-5.839
X2.7634Y-6.4728
X2.7634Y-6.4958
X2.7634Y-6.5672
X2.7634Y-6.5902
X2.7691Y-5.4764
X2.7913Y-4.5394
X2.7969Y-6.6988
X2.8138Y-7.7323
X2.8303Y-5.7913
X2.8303Y-6.4255
X2.8303Y-6.4485
X2.8303Y-6.52
X2.8303Y-6.543
X2.8303Y-6.6145
X2.8303Y-6.6375
X2.8307Y-5.566
X2.8307Y-6.0512
X2.8307Y-6.1024
X2.8327Y-6.1496
X2.8346Y-6.2858
X2.8378Y-5.2366
X2.8378Y-5.2594
X2.8378Y-5.3469
X2.8378Y-5.3697
X2.8425Y-6.3248
X2.8445Y-6.3803
X2.8543Y-7.311
X2.8602Y-8.2224
X2.861Y-6.3606
X2.8661Y-4.0512
X2.8661Y-5.4764
X2.8661Y-5.735
X2.8681Y-5.3295
X2.8701Y-9.1969
X2.874Y-5.2185
X2.878Y-7.2618
X2.8784Y-7.2869
X2.8819Y-5.6024
X2.884Y-5.0214
X2.8858Y-5.2441
X2.9016Y-6.3465
X2.9055Y-9.1969
X2.9059Y-7.6201
X2.9287Y-7.6201
X2.9291Y-5.7165
X2.9311Y-5.2933
X2.9311Y-5.3169
X2.9488Y-4.7047
X2.9646Y-6.5315
X2.9646Y-6.6201
X2.9665Y-7.4232
X2.9685Y-5.7398
X2.9843Y-7.4055
X3.Y-4.7953
X3.002Y-7.3878
X3.0039Y-4.7283
X3.0102Y-5.7224
X3.0118Y-4.752
X3.0197Y-7.3701
X3.0276Y-6.2953
X3.0374Y-3.7874
X3.0384Y-4.7199
X3.0472Y-5.7756
X3.0472Y-6.2717
X3.063Y-6.2205
X3.063Y-9.2126
X3.0633Y-5.2717
X3.0669Y-4.9173
X3.0689Y-6.5595
X3.0689Y-6.5823
X3.0709Y-5.8189
X3.0906Y-5.689
X3.0937Y-4.9278
X3.0945Y-4.8976
X3.1142Y-5.9921
X3.1181Y-6.0472
X3.122Y-6.0197
X3.1366Y-5.6878
X3.1378Y-4.6142
X3.1378Y-4.9016
X3.1378Y-5.7756
X3.1417Y-5.1417
X3.1457Y-9.2126
X3.1496Y-6.0866
X3.1496Y-6.2008
X3.1605Y-4.7745
X3.1614Y-4.689
X3.1614Y-4.7165
X3.1614Y-4.7441
X3.1693Y-4.4252
X3.1772Y-4.5669
X3.1791Y-5.2717
X3.2028Y-5.0945
X3.2031Y-8.7047
X3.2087Y-6.2008
X3.2188Y-5.2717
X3.2196Y-5.4016
X3.2224Y-6.7031
X3.2228Y-6.5997
X3.2244Y-4.3001
X3.2248Y-6.4252
X3.2283Y-6.7598
X3.2283Y-6.9331
X3.2299Y-6.6645
X3.2418Y-5.2717
X3.242Y-5.8031
X3.2425Y-8.685
X3.2456Y-6.5997
X3.2476Y-6.4252
X3.252Y-6.7205
X3.252Y-6.7756
X3.2527Y-6.6645
X3.2575Y-5.9035
X3.2598Y-5.0961
X3.2677Y-2.5409
X3.2677Y-2.6354
X3.277Y-4.1299
X3.2874Y-4.0945
X3.2936Y-5.1299
X3.2967Y-4.1163
X3.2967Y-4.1163
X3.3098Y-6.5457
X3.3098Y-6.5685
X3.3098Y-6.6102
X3.311Y-6.6398
X3.3187Y-6.4919
X3.3189Y-4.1083
X3.3189Y-9.1378
X3.3277Y-5.187
X3.3302Y-6.8606
X3.3348Y-6.5081
X3.3436Y-5.3749
X3.3543Y-6.8622
X3.3551Y-6.1758
X3.3622Y-5.2717
X3.3661Y-6.0512
X3.3661Y-6.196
X3.3661Y-6.2953
X3.3701Y-8.1752
X3.3701Y-8.2017
X3.3701Y-8.2283
X3.3701Y-8.2549
X3.3701Y-8.3549
X3.3701Y-8.4549
X3.3812Y-6.1786
X3.4016Y-6.7382
X3.4055Y-5.5394
X3.4134Y-4.2441
X3.4331Y-5.5394
X3.4409Y-8.5093
X3.4764Y-4.3001
X3.5148Y-9.1024
X3.5162Y-8.7677
X3.539Y-8.7677
X3.5536Y-9.0969
X3.5634Y-9.0193
X3.5764Y-9.0969
X3.5862Y-9.0193
X3.6004Y-4.2697
X3.6043Y-8.9175
X3.6155Y-4.566
X3.6929Y-9.2638
X3.7008Y-5.8071
X3.7244Y-5.8504
X3.7311Y-6.6161
X3.7347Y-8.2185
X3.7382Y-8.5374
X3.7421Y-4.566
X3.7575Y-8.2185
X3.7913Y-5.7677
X3.7963Y-9.2648
X3.8012Y-4.7047
X3.8126Y-8.3784
X3.8189Y-5.2283
X3.8228Y-6.2519
X3.8346Y-5.6614
X3.8346Y-5.7008
X3.8346Y-5.7323
X3.8354Y-8.3784
X3.8425Y-4.6398
X3.8567Y-4.2657
X3.8795Y-4.2657
X3.8971Y-7.0807
X3.8974Y-8.748
X3.9016Y-5.7559
X3.9035Y-9.0453
X3.9114Y-8.9764
X3.9161Y-6.7618
X3.9161Y-6.8012
X3.9161Y-6.8406
X3.9331Y-9.0413
X3.9413Y-9.1424
X3.9498Y-6.7421
X3.9498Y-6.7815
X3.9498Y-6.8209
X3.9498Y-6.8602
X3.957Y-8.8898
X3.9606Y-9.0453
X3.9626Y-4.566
X3.9643Y-9.1424
X3.98Y-8.8898
X3.9803Y-6.9181
X3.9835Y-6.7618
X3.9835Y-6.8012
X3.9835Y-6.8406
X3.9843Y-4.5827
X3.9902Y-9.0512
X3.9906Y-6.6153
X3.9961Y-4.4055
X4.0079Y-9.1378
X4.0172Y-6.7815
X4.0172Y-6.8209
X4.0172Y-6.8602
X4.0212Y-7.0807
X4.0214Y-8.8963
X4.0276Y-9.1949
X4.0394Y-4.4094
X4.0444Y-8.8963
X4.0512Y-6.8012
X4.0608Y-6.8406
X4.0727Y-6.8602
X4.0827Y-4.3793
X4.0827Y-4.4134
X4.083Y-8.9016
X4.0846Y-6.8406
X4.0848Y-6.7813
X4.0866Y-9.1949
X4.106Y-8.9016
X4.1099Y-9.012
X4.1102Y-4.6681
X4.126Y-6.8929
X4.1316Y-7.4713
X4.1329Y-9.012
X4.1365Y-5.2242
X4.1417Y-4.815
X4.1539Y-8.9094
X4.1575Y-6.6486
X4.1769Y-8.9094
X4.1825Y-5.2242
X4.189Y-6.937
X4.1929Y-8.2953
X4.2047Y-6.9547
X4.2244Y-6.9213
X4.23Y-7.95
X4.2405Y-8.901
X4.2406Y-4.633
X4.2434Y-6.9685
X4.252Y-8.1665
X4.2635Y-8.901
X4.2795Y-8.6102
X4.2835Y-3.6457
X4.3035Y-8.128
X4.31Y-5.1831
X4.315Y-3.4843
X4.3169Y-8.0591
X4.3228Y-4.8189
X4.3268Y-8.1024
X4.3307Y-8.6299
X4.3342Y-7.064
X4.3622Y-3.6378
X4.3721Y-3.754
X4.3819Y-6.1969
X4.3819Y-3.6772
X4.3858Y-3.5512
X4.3976Y-8.4567
X4.4028Y-8.3543
X4.4094Y-8.0039
X4.4114Y-6.1969
X4.4193Y-3.1321
X4.4202Y-3.6303
X4.4606Y-3.7953
X4.4626Y-3.1321
X4.4724Y-3.9173
X4.4867Y-8.0497
X4.4953Y-7.9646
X4.5079Y-3.8622
X4.5079Y-8.3465
X4.5152Y-6.6924
X4.5217Y-8.2598
X4.5236Y-4.6969
X4.5256Y-8.185
X4.5297Y-8.1357
X4.5433Y-8.2922
X4.5472Y-6.0965
X4.5472Y-3.8583
X4.5492Y-2.8533
X4.5571Y-8.0819
X4.5591Y-8.374
X4.5787Y-8.1299
X4.5945Y-5.4882
X4.6054Y-8.0866
X4.6215Y-6.6924
X4.6358Y-4.6663
X4.6393Y-6.4792
X4.6535Y-2.9571
X4.6654Y-8.4213
X4.6732Y-8.063
X4.6772Y-5.5709
X4.6873Y-6.0084
X4.6873Y-6.0314
X4.7047Y-7.8366
X4.7055Y-8.0847
X4.7126Y-8.3868
X4.726Y-7.998
X4.7283Y-7.8366
X4.73Y-4.7441
X4.7402Y-4.5709
X4.7432Y-8.0748
X4.753Y-4.7442
X4.7685Y-7.9965
X4.776Y-4.7434
X4.7835Y-4.5709
X4.79Y-7.92
X4.7982Y-4.7494
X4.8051Y-7.8759
X4.813Y-8.374
X4.815Y-4.5709
X4.8229Y-7.9219
X4.8425Y-3.6604
X4.8504Y-4.5709
X4.8512Y-8.366
X4.8524Y-5.9311
X4.8583Y-8.2372
X4.8711Y-3.7697
X4.8733Y-8.1581
X4.8733Y-8.1889
X4.8737Y-8.2147
X4.8747Y-8.2621
X4.8799Y-6.0866
X4.8937Y-8.2953
X4.9016Y-8.2441
X4.9061Y-8.2727
X4.9389Y-8.0998
X4.9409Y-8.0315
X4.9409Y-8.066
X4.9567Y-8.563
X4.9588Y-8.0494
X4.9606Y-8.0827
X4.9606Y-8.1181
X4.9724Y-5.0354
X4.9843Y-4.7402
X4.9905Y-6.9687
X4.9905Y-6.9894
X4.9921Y-8.4134
X5.0112Y-6.9687
X5.0112Y-6.9894
X5.0118Y-4.7402
X5.0176Y-4.5621
X5.0236Y-6.2244
X5.0276Y-5.0787
X5.0315Y-9.1732
X5.0389Y-4.5707
X5.0419Y-4.7381
X5.0591Y-4.5591
X5.0591Y-5.063
X5.0709Y-4.7362
X5.0906Y-5.0157
X5.0906Y-6.1811
X5.0975Y-8.685
X5.1102Y-6.0669
X5.1117Y-4.563
X5.1299Y-4.5197
X5.1358Y-5.0906
X5.1378Y-6.7047
X5.1594Y-6.6831
X5.1594Y-6.7047
X5.1791Y-6.6634
X5.1831Y-4.5728
X5.189Y-8.1742
X5.2019Y-8.1994
X5.2028Y-6.6417
X5.2028Y-6.6634
X5.2038Y-8.2223
X5.2047Y-8.2474
X5.2087Y-8.1457
X5.2264Y-6.6201
X5.2264Y-6.6417
X5.2264Y-6.6634
X5.2323Y-8.1732
X5.2323Y-8.6535
X5.2359Y-4.5753
X5.2366Y-8.3
X5.2559Y-4.561
X5.2616Y-8.1282
X5.2756Y-6.2087
X5.2795Y-4.5748
X5.2874Y-4.7874
X5.2953Y-6.1811
X5.2953Y-8.3268
X5.3031Y-4.561
X5.3142Y-8.3898
X5.3232Y-4.685
X5.3236Y-8.4213
X5.3268Y-6.1811
X5.3268Y-6.2303
X5.346Y-4.685
X5.3465Y-6.2441
X5.3465Y-7.3268
X5.3495Y-8.3237
X5.3661Y-6.1811
X5.3661Y-8.2874
X5.3728Y-7.3268
X5.3839Y-6.124
X5.4055Y-7.4055
X5.4077Y-4.9032
X5.4094Y-6.1052
X5.4134Y-7.0118
X5.4173Y-8.7126
X5.4252Y-7.4252
X5.4299Y-6.2366
X5.4299Y-6.2594
X5.4299Y-6.3626
X5.4299Y-6.3854
X5.4305Y-4.9032
X5.4315Y-6.1614
X5.4404Y-4.9409
X5.4449Y-8.248
X5.4577Y-8.7844
X5.4632Y-4.9409
X5.4803Y-8.1713
X5.4872Y-8.7835
X5.5038Y-5.5928
X5.5217Y-8.438
X5.5236Y-5.8346
X5.5266Y-5.5928
X5.5315Y-6.2264
X5.5354Y-6.2697
X5.5364Y-5.5317
X5.5492Y-6.2042
X5.5512Y-6.0984
X5.5512Y-6.1299
X5.5512Y-6.1575
X5.5512Y-6.1811
X5.5522Y-4.1634
X5.5551Y-5.7874
X5.5551Y-6.2874
X5.5551Y-6.3268
X5.5583Y-6.4496
X5.5587Y-6.0669
X5.5587Y-6.6071
X5.5591Y-6.5674
X5.5591Y-6.5276
X5.5591Y-6.6496
X5.5591Y-6.4016
X5.5592Y-5.5317
X5.5614Y-6.4886
X5.5984Y-5.9528
X5.6248Y-6.3031
X5.6254Y-4.0394
X5.6255Y-6.3504
X5.6256Y-6.3976
X5.6256Y-6.4606
X5.6256Y-6.5394
X5.6256Y-6.5866
X5.626Y-8.7323
X5.626Y-6.0354
X5.626Y-6.4996
X5.626Y-6.6256
X5.6368Y-3.9795
X5.6368Y-4.0023
X5.6388Y-8.8195
X5.6482Y-4.0394
X5.6496Y-5.6575
X5.6581Y-4.0771
X5.6581Y-4.0999
X5.663Y-6.523
X5.6634Y-4.4003
X5.6634Y-6.3626
X5.6634Y-6.3854
X5.6693Y-3.9154
X5.6732Y-4.5354
X5.6919Y-3.8976
X5.6969Y-4.5354
X5.6969Y-6.0709
X5.6995Y-6.0276
X5.7047Y-8.9094
X5.7126Y-8.8051
X5.7156Y-3.9154
X5.7238Y-8.7441
X5.7244Y-4.3386
X5.7244Y-4.5866
X5.7309Y-4.4573
X5.7362Y-4.6329
X5.7403Y-3.9795
X5.7403Y-4.0023
X5.7403Y-4.0771
X5.7403Y-4.0999
X5.7638Y-8.7953
X5.7638Y-8.8307
X5.7756Y-8.3268
X5.7815Y-7.7283
X5.7953Y-8.7441
X5.8207Y-6.2366
X5.8207Y-6.2594
X5.8209Y-5.8622
X5.8212Y-6.3803
X5.8268Y-6.1142
X5.8425Y-8.9069
X5.8598Y-7.7283
T3
X5.2795Y-8.2165
X5.2795Y-8.2559
X5.2992Y-8.2362
X5.3189Y-8.2165
X5.3189Y-8.2559
T4
X2.3807Y-3.4197
X2.3858Y-5.6805
X2.3917Y-3.9665
X2.3937Y-6.3104
X2.3958Y-6.0045
X2.3965Y-6.5054
X2.3965Y-6.5349
X2.3965Y-6.5645
X2.3965Y-6.594
X2.3965Y-6.6235
X2.3965Y-6.6531
X2.3965Y-6.78
X2.3965Y-6.8095
X2.3965Y-6.8391
X2.3965Y-6.8686
X2.3965Y-6.8981
X2.3965Y-6.9277
X2.3976Y-3.5394
X2.4201Y-3.4394
X2.4594Y-3.4197
X2.4685Y-4.0602
X2.4685Y-4.2126
X2.4705Y-4.1378
X2.4921Y-7.1585
X2.4988Y-3.4394
X2.5039Y-8.0079
X2.5039Y-8.6496
X2.5118Y-4.3156
X2.5122Y-8.4693
X2.5382Y-3.4197
X2.5394Y-4.5591
X2.5413Y-5.3278
X2.5457Y-5.2154
X2.5535Y-8.6181
X2.5555Y-4.6275
X2.5596Y-4.185
X2.5748Y-3.811
X2.5776Y-3.4394
X2.6146Y-5.5272
X2.6146Y-5.6933
X2.6169Y-3.4197
X2.6421Y-6.252
X2.6421Y-6.3031
X2.6563Y-3.4394
X2.6614Y-4.4882
X2.6693Y-4.2087
X2.689Y-4.0602
X2.6957Y-3.4197
X2.7028Y-3.3322
X2.7031Y-5.1425
X2.7087Y-6.5512
X2.7205Y-7.8661
X2.7323Y-4.563
X2.735Y-3.4394
X2.7376Y-3.3445
X2.7402Y-4.2382
X2.7402Y-4.3504
X2.7461Y-9.1827
X2.752Y-6.1457
X2.7542Y-4.4574
X2.7559Y-5.4528
X2.7559Y-6.0512
X2.7582Y-5.6641
X2.7598Y-6.4213
X2.7602Y-3.3066
X2.7632Y-3.372
X2.7638Y-6.2402
X2.7638Y-6.5315
X2.7638Y-8.7205
X2.7638Y-6.626
X2.7642Y-8.4693
X2.7648Y-7.7365
X2.7688Y-5.5863
X2.7795Y-3.4134
X2.8035Y-9.3129
X2.8177Y-3.3322
X2.8287Y-5.4035
X2.8303Y-5.1772
X2.8307Y-2.9646
X2.8307Y-3.0433
X2.8307Y-3.122
X2.8307Y-3.2008
X2.8342Y-8.7323
X2.8342Y-8.7815
X2.835Y-3.3764
X2.836Y-5.7301
X2.8374Y-8.2807
X2.8374Y-8.3803
X2.861Y-5.3797
X2.8622Y-2.9354
X2.8622Y-3.0039
X2.8622Y-3.0827
X2.8622Y-3.1614
X2.8661Y-3.3071
X2.8705Y-5.7745
X2.874Y-6.5079
X2.8747Y-7.6267
X2.8858Y-3.2008
X2.8884Y-6.4606
X2.8904Y-5.4448
X2.8917Y-3.3504
X2.8967Y-2.9724
X2.9075Y-3.1289
X2.9197Y-5.1772
X2.9213Y-2.9354
X2.9213Y-5.977
X2.9222Y-3.378
X2.9225Y-6.8578
X2.9232Y-3.5472
X2.9233Y-6.2564
X2.9301Y-9.328
X2.9305Y-6.1496
X2.9409Y-4.3342
X2.9409Y-4.5792
X2.9472Y-2.3307
X2.9472Y-2.4094
X2.9472Y-2.4882
X2.9472Y-2.5669
X2.9472Y-2.6457
X2.9472Y-2.7244
X2.9472Y-2.8031
X2.9472Y-2.8819
X2.9488Y-6.0407
X2.9517Y-7.6339
X2.9537Y-3.1614
X2.9537Y-3.3465
X2.9606Y-2.9567
X2.9724Y-3.5472
X2.9737Y-5.1573
X2.9737Y-5.2104
X2.9797Y-5.4467
X2.9823Y-3.9272
X2.9833Y-3.378
X2.9843Y-3.1289
X2.9866Y-2.3701
X2.9866Y-2.4488
X2.9866Y-2.5276
X2.9866Y-2.6063
X2.9866Y-2.685
X2.9866Y-2.7638
X2.9866Y-2.8425
X2.9866Y-2.9213
X2.9911Y-6.3904
X2.9961Y-7.9183
X3.0157Y-3.1575
X3.0157Y-3.3504
X3.0195Y-3.2539
X3.0197Y-4.6142
X3.0202Y-6.906
X3.0283Y-7.9724
X3.0295Y-9.2106
X3.063Y-4.8898
X3.0689Y-6.5197
X3.0689Y-6.6083
X3.0689Y-6.6575
X3.0689Y-6.6831
X3.0689Y-6.7579
X3.0876Y-9.3337
X3.1035Y-5.4134
X3.1105Y-5.1573
X3.1122Y-4.6693
X3.1299Y-6.1063
X3.1386Y-7.8622
X3.1417Y-6.0591
X3.1481Y-5.04
X3.1614Y-4.8937
X3.1791Y-5.3759
X3.189Y-4.7953
X3.1909Y-4.2441
X3.1988Y-5.5189
X3.1988Y-5.6858
X3.2106Y-6.8917
X3.2126Y-6.9606
X3.2165Y-8.9337
X3.2165Y-8.9907
X3.2165Y-9.0478
X3.2165Y-9.1049
X3.2224Y-4.2441
X3.232Y-5.0976
X3.2323Y-8.8504
X3.2323Y-8.7795
X3.2323Y-8.7323
X3.2492Y-8.6545
X3.2805Y-9.3593
X3.2992Y-4.4252
X3.311Y-6.6988
X3.3397Y-5.3986
X3.3504Y-6.1142
X3.3543Y-6.9798
X3.3583Y-7.0512
X3.3622Y-4.9921
X3.3622Y-4.9028
X3.3622Y-6.1378
X3.3661Y-6.0945
X3.3701Y-8.4049
X3.3858Y-6.0276
X3.3858Y-6.0709
X3.3957Y-4.4272
X3.397Y-8.7323
X3.3994Y-5.2271
X3.4055Y-6.5807
X3.4134Y-5.6535
X3.4134Y-5.8071
X3.4252Y-7.0512
X3.4264Y-7.0787
X3.427Y-8.8309
X3.4488Y-2.5882
X3.4539Y-6.474
X3.4587Y-6.6363
X3.4591Y-5.2717
X3.4604Y-5.1376
X3.4616Y-9.0193
X3.4665Y-8.9524
X3.4764Y-4.2107
X3.4764Y-4.5787
X3.5039Y-6.878
X3.5157Y-7.0787
X3.5177Y-8.0315
X3.5182Y-5.4378
X3.5207Y-9.0193
X3.5256Y-8.9524
X3.532Y-5.4673
X3.5354Y-8.9124
X3.5413Y-8.8268
X3.5531Y-6.3189
X3.5615Y-5.4673
X3.5615Y-5.4969
X3.5669Y-7.9888
X3.5669Y-8.0246
X3.5669Y-8.2715
X3.5669Y-8.3072
X3.5689Y-4.2441
X3.5709Y-9.2933
X3.5802Y-8.6776
X3.5827Y-6.3484
X3.591Y-5.4969
X3.591Y-5.5264
X3.5941Y-8.3715
X3.5941Y-8.4305
X3.5941Y-8.5683
X3.5941Y-8.6244
X3.5942Y-8.5093
X3.5984Y-4.9685
X3.5984Y-7.9888
X3.5984Y-8.0246
X3.5984Y-8.2715
X3.5984Y-8.3072
X3.6142Y-7.7873
X3.6161Y-4.4291
X3.6191Y-9.0193
X3.6201Y-8.8268
X3.624Y-8.9524
X3.6299Y-7.9888
X3.6299Y-8.0246
X3.6299Y-8.2715
X3.6299Y-8.3072
X3.6575Y-9.2933
X3.6614Y-4.9685
X3.6614Y-5.0762
X3.6614Y-7.9888
X3.6614Y-8.0246
X3.6614Y-8.2715
X3.6614Y-8.3072
X3.6628Y-9.3341
X3.6634Y-4.2441
X3.6781Y-9.0193
X3.6783Y-4.6142
X3.6831Y-8.9524
X3.6949Y-4.2441
X3.7002Y-8.8283
X3.7106Y-4.4291
X3.7205Y-5.8228
X3.7372Y-8.8652
X3.7421Y-4.4291
X3.752Y-5.8543
X3.7691Y-8.087
X3.7717Y-5.748
X3.7756Y-8.8406
X3.7796Y-8.0246
X3.783Y-7.9715
X3.8012Y-8.8701
X3.8031Y-9.0709
X3.8036Y-9.0157
X3.811Y-5.748
X3.813Y-3.6142
X3.8209Y-4.2441
X3.8228Y-8.2177
X3.8303Y-6.6024
X3.8307Y-4.7402
X3.8327Y-6.7185
X3.8346Y-8.3071
X3.8351Y-7.0925
X3.8674Y-9.0432
X3.8768Y-2.9705
X3.8843Y-6.2194
X3.8947Y-5.0886
X3.8976Y-4.4291
X3.8976Y-8.9547
X3.8976Y-9.2717
X3.8992Y-4.7847
X3.8992Y-4.8143
X3.8992Y-4.8438
X3.8992Y-4.8733
X3.8992Y-4.9029
X3.8996Y-4.565
X3.9093Y-6.3366
X3.9093Y-6.3635
X3.9093Y-6.3904
X3.9093Y-6.4173
X3.9093Y-6.4442
X3.9093Y-6.4711
X3.9093Y-6.498
X3.9094Y-6.6457
X3.9154Y-4.2441
X3.9232Y-8.8701
X3.9252Y-5.0738
X3.9287Y-4.7847
X3.9287Y-4.8143
X3.9287Y-4.8438
X3.9287Y-4.8733
X3.9287Y-4.9029
X3.9291Y-9.3091
X3.9331Y-8.75
X3.937Y-6.6153
X3.9374Y-6.2194
X3.9453Y-8.3872
X3.9453Y-8.5526
X3.9453Y-8.6116
X3.9499Y-6.3366
X3.9499Y-6.3635
X3.9499Y-6.3904
X3.9499Y-6.4173
X3.9499Y-6.4442
X3.9499Y-6.4711
X3.9499Y-6.498
X3.9563Y-5.0741
X3.9583Y-4.7847
X3.9583Y-4.8143
X3.9583Y-4.8438
X3.9583Y-4.8733
X3.9583Y-4.9029
X3.9602Y-5.1136
X3.9626Y-4.4291
X3.9743Y-5.3051
X3.9743Y-5.3346
X3.978Y-9.2967
X3.9858Y-8.9567
X3.9878Y-5.1339
X3.9906Y-6.2194
X3.9906Y-6.3366
X3.9906Y-6.3635
X3.9906Y-6.3904
X3.9906Y-6.4173
X3.9906Y-6.4442
X3.9906Y-6.4711
X3.9906Y-6.498
X3.9921Y-8.9823
X4.0153Y-5.427
X4.0191Y-6.656
X4.0272Y-5.1339
X4.0276Y-4.6142
X4.0276Y-4.6142
X4.0276Y-9.3091
X4.0394Y-8.5
X4.0394Y-8.5256
X4.05Y-6.6166
X4.0543Y-6.7456
X4.061Y-3.0052
X4.065Y-5.3248
X4.065Y-5.3543
X4.065Y-5.3839
X4.0657Y-8.7608
X4.0665Y-5.1339
X4.0728Y-4.2441
X4.0787Y-6.5891
X4.0792Y-2.9429
X4.0797Y-5.2362
X4.0797Y-5.2657
X4.0797Y-5.2953
X4.0807Y-8.6535
X4.0857Y-6.937
X4.0866Y-9.3091
X4.0941Y-5.1135
X4.0945Y-5.3248
X4.0945Y-5.3543
X4.0945Y-5.3839
X4.0974Y-6.7384
X4.098Y-5.0741
X4.1043Y-4.2441
X4.1142Y-5.288
X4.1305Y-6.998
X4.1319Y-6.5891
X4.1372Y-4.5675
X4.1404Y-5.1634
X4.1425Y-4.926
X4.1453Y-9.3091
X4.1559Y-5.3014
X4.1778Y-5.0492
X4.1831Y-8.5689
X4.1924Y-7.5
X4.1963Y-5.5039
X4.2028Y-8.5492
X4.2047Y-2.3465
X4.2047Y-2.4055
X4.2047Y-2.4646
X4.2047Y-2.5236
X4.2047Y-2.5827
X4.2047Y-2.6417
X4.2047Y-2.7008
X4.2047Y-2.7598
X4.2047Y-2.8189
X4.2047Y-2.878
X4.2106Y-8.1024
X4.2126Y-2.9331
X4.2159Y-5.1043
X4.2205Y-8.9567
X4.2244Y-9.013
X4.2402Y-8.6969
X4.2421Y-2.9626
X4.2461Y-8.9469
X4.2502Y-6.9995
X4.2512Y-4.804
X4.252Y-8.4606
X4.2538Y-4.9579
X4.2717Y-2.9331
X4.2742Y-6.9099
X4.2819Y-5.1358
X4.3008Y-6.8787
X4.3012Y-2.9626
X4.3077Y-6.9995
X4.3189Y-8.2431
X4.3228Y-4.7598
X4.3248Y-8.4744
X4.3278Y-6.7185
X4.3307Y-2.9331
X4.3307Y-3.8873
X4.3307Y-3.9168
X4.3307Y-3.9464
X4.3307Y-4.5221
X4.3307Y-4.5517
X4.3307Y-4.5812
X4.3307Y-4.6102
X4.3315Y-4.8514
X4.3315Y-4.8809
X4.3315Y-4.9104
X4.3445Y-9.1476
X4.3482Y-5.5294
X4.3514Y-8.2785
X4.3543Y-6.7026
X4.3543Y-6.7291
X4.3553Y-4.0039
X4.3583Y-4.2195
X4.3583Y-4.249
X4.3602Y-2.9626
X4.3618Y-5.4793
X4.3622Y-8.563
X4.3661Y-3.4764
X4.3701Y-3.8578
X4.3701Y-4.7008
X4.3776Y-5.5193
X4.3809Y-6.7185
X4.3898Y-2.9331
X4.3913Y-5.4386
X4.3913Y-5.4681
X4.3976Y-4.2195
X4.3976Y-4.249
X4.3992Y-5.4976
X4.4016Y-4.6929
X4.4124Y-8.1231
X4.4142Y-5.3105
X4.4159Y-8.3327
X4.4193Y-2.9626
X4.4205Y-5.1934
X4.4209Y-5.476
X4.4244Y-5.3511
X4.435Y-3.6791
X4.437Y-4.2195
X4.437Y-4.249
X4.4451Y-6.938
X4.4451Y-6.9624
X4.4488Y-2.9331
X4.4488Y-2.9921
X4.4488Y-8.0793
X4.4606Y-8.1175
X4.4606Y-8.1585
X4.4606Y-8.2711
X4.4638Y-5.4013
X4.4638Y-5.4309
X4.4646Y-3.9464
X4.4646Y-4.5221
X4.4646Y-4.5517
X4.4646Y-4.5812
X4.4695Y-6.938
X4.4695Y-6.9624
X4.4724Y-8.5157
X4.4783Y-3.0315
X4.4789Y-3.2559
X4.4789Y-3.2992
X4.4789Y-3.3425
X4.4789Y-3.3858
X4.4854Y-2.9571
X4.4939Y-6.8648
X4.4939Y-6.8892
X4.4939Y-6.9136
X4.4939Y-6.938
X4.4939Y-6.9624
X4.4941Y-5.283
X4.5Y-6.7795
X4.5015Y-6.2467
X4.5079Y-2.9921
X4.5152Y-6.6215
X4.5183Y-6.8648
X4.5183Y-6.8892
X4.5183Y-6.9136
X4.5183Y-6.938
X4.5183Y-6.9624
X4.5236Y-3.6181
X4.5374Y-3.0315
X4.5427Y-6.8648
X4.5427Y-6.8892
X4.5427Y-6.9136
X4.5427Y-6.938
X4.5427Y-6.9624
X4.5571Y-3.7695
X4.5591Y-8.4896
X4.5604Y-3.6535
X4.5669Y-2.9921
X4.5827Y-6.1378
X4.5827Y-6.1673
X4.5827Y-6.1969
X4.5965Y-3.0315
X4.6063Y-6.2224
X4.6093Y-6.1136
X4.622Y-6.1673
X4.622Y-6.1969
X4.626Y-2.9921
X4.6339Y-8.0827
X4.6457Y-6.2224
X4.6555Y-3.0315
X4.6614Y-6.1673
X4.6614Y-6.1969
X4.6634Y-7.957
X4.6668Y-6.4094
X4.6693Y-8.5132
X4.6762Y-6.1156
X4.6783Y-3.8907
X4.6811Y-6.1437
X4.685Y-2.9331
X4.685Y-2.9921
X4.685Y-6.2224
X4.6873Y-5.9844
X4.6949Y-6.9995
X4.7008Y-4.8031
X4.7008Y-4.8346
X4.7008Y-6.1673
X4.7008Y-6.1969
X4.7053Y-4.7238
X4.7122Y-3.7441
X4.7126Y-2.9606
X4.7161Y-3.6998
X4.7402Y-2.9331
X4.7648Y-5.989
X4.7648Y-6.0642
X4.7677Y-2.9606
X4.7677Y-3.8907
X4.7711Y-4.6969
X4.7795Y-8.5132
X4.7835Y-4.1285
X4.7835Y-4.2179
X4.7841Y-6.8671
X4.7841Y-6.8912
X4.7841Y-6.9154
X4.7939Y-7.0069
X4.7939Y-7.06
X4.7953Y-2.9331
X4.7953Y-7.9882
X4.7992Y-6.4094
X4.8055Y-3.6998
X4.8116Y-6.8671
X4.8116Y-6.8912
X4.8116Y-6.9154
X4.8189Y-4.8813
X4.8209Y-4.8484
X4.8228Y-2.9606
X4.8268Y-5.9492
X4.8307Y-4.7283
X4.8346Y-7.9882
X4.8406Y-6.0688
X4.8504Y-2.9331
X4.876Y-4.7953
X4.876Y-4.8431
X4.877Y-6.2918
X4.8774Y-4.6969
X4.878Y-2.9606
X4.8819Y-6.6575
X4.8819Y-6.689
X4.8819Y-6.7205
X4.8898Y-6.3189
X4.8898Y-6.3484
X4.8898Y-6.378
X4.8898Y-6.378
X4.8898Y-6.4394
X4.9055Y-2.7953
X4.9055Y-2.874
X4.9055Y-2.9331
X4.9134Y-6.6575
X4.9134Y-6.689
X4.9134Y-6.7205
X4.9193Y-6.3189
X4.9193Y-6.3484
X4.9193Y-6.378
X4.9193Y-6.378
X4.9193Y-6.4394
X4.9272Y-2.8346
X4.9409Y-2.9094
X4.9449Y-6.6575
X4.9449Y-6.689
X4.9449Y-6.7205
X4.9469Y-8.3701
X4.9488Y-6.378
X4.9488Y-6.4394
X4.9528Y-2.8701
X4.9606Y-2.7953
X4.9644Y-6.313
X4.9646Y-4.8031
X4.9646Y-4.8346
X4.9764Y-6.6575
X4.9764Y-6.689
X4.9764Y-6.7205
X4.9774Y-2.8346
X4.9783Y-6.378
X4.9783Y-6.4394
X4.9803Y-4.1285
X4.9803Y-4.2179
X4.9813Y-5.0063
X4.9882Y-4.6969
X5.0079Y-6.378
X5.0079Y-6.4394
X5.0079Y-6.6575
X5.0079Y-6.689
X5.0079Y-6.7205
X5.0157Y-2.7953
X5.0276Y-2.8346
X5.0282Y-6.3406
X5.0349Y-6.1378
X5.0374Y-6.378
X5.0374Y-6.4394
X5.0388Y-8.1535
X5.0478Y-4.9242
X5.0492Y-4.9508
X5.0669Y-2.8189
X5.0748Y-2.8701
X5.0748Y-8.3819
X5.0787Y-4.7638
X5.0827Y-4.5886
X5.0865Y-4.8813
X5.0878Y-4.8484
X5.0892Y-4.8189
X5.0961Y-4.6969
X5.0984Y-8.227
X5.1043Y-8.3209
X5.1044Y-8.0925
X5.1142Y-8.9173
X5.1211Y-2.8425
X5.128Y-2.8937
X5.1303Y-4.9429
X5.1339Y-8.6457
X5.1378Y-4.7565
X5.1535Y-6.7559
X5.1555Y-2.9449
X5.1575Y-4.9173
X5.1614Y-6.8228
X5.1654Y-6.7992
X5.1687Y-5.0295
X5.1772Y-4.1285
X5.1772Y-4.2179
X5.185Y-6.8149
X5.185Y-2.9055
X5.19Y-6.7889
X5.2028Y-7.0098
X5.2087Y-4.5709
X5.212Y-8.4055
X5.2146Y-2.9449
X5.2421Y-2.8937
X5.249Y-2.8425
X5.2592Y-6.4394
X5.2592Y-6.5732
X5.2628Y-3.0335
X5.2628Y-3.0925
X5.2642Y-2.622
X5.2642Y-2.7402
X5.2887Y-6.4394
X5.2887Y-6.5732
X5.2953Y-2.8701
X5.2953Y-4.6772
X5.2973Y-8.0325
X5.3031Y-2.8189
X5.3031Y-3.063
X5.311Y-8.6378
X5.315Y-3.0059
X5.315Y-3.1201
X5.315Y-8.8543
X5.3182Y-6.4394
X5.3182Y-6.5732
X5.3244Y-8.8173
X5.3246Y-4.5718
X5.3327Y-2.9587
X5.3346Y-4.7402
X5.3356Y-3.1752
X5.3386Y-4.9488
X5.3406Y-2.9154
X5.3425Y-2.7795
X5.3465Y-2.8465
X5.3661Y-2.999
X5.3661Y-3.127
X5.374Y-3.2195
X5.374Y-3.2608
X5.374Y-3.3199
X5.374Y-3.3789
X5.374Y-3.438
X5.374Y-3.497
X5.374Y-3.5561
X5.374Y-3.6152
X5.376Y-2.7451
X5.3799Y-2.8169
X5.3799Y-2.876
X5.3898Y-2.9449
X5.3898Y-3.1811
X5.3937Y-6.3268
X5.3957Y-4.6791
X5.4065Y-8.123
X5.4094Y-2.7874
X5.4094Y-2.8465
X5.4094Y-2.9055
X5.4134Y-8.2352
X5.4134Y-8.6457
X5.4134Y-8.8071
X5.4154Y-3.2313
X5.4154Y-3.2904
X5.4154Y-3.3494
X5.4154Y-3.4085
X5.4154Y-3.4675
X5.4154Y-3.5266
X5.4154Y-3.5856
X5.4219Y-8.4055
X5.4272Y-5.1152
X5.4272Y-5.1467
X5.4272Y-5.4523
X5.4272Y-5.4838
X5.4291Y-6.4173
X5.4301Y-8.7441
X5.4323Y-3.8579
X5.4323Y-3.9719
X5.4323Y-4.0591
X5.4323Y-4.152
X5.435Y-2.7451
X5.437Y-5.7529
X5.4374Y-5.2087
X5.4374Y-5.2087
X5.4374Y-5.2402
X5.4374Y-5.2717
X5.4374Y-5.3031
X5.4374Y-5.3346
X5.4374Y-5.374
X5.4374Y-5.4055
X5.4374Y-5.6417
X5.4414Y-8.0138
X5.4434Y-5.5472
X5.4439Y-3.6309
X5.4685Y-3.1422
X5.4685Y-8.9488
X5.4709Y-5.8524
X5.4724Y-3.5896
X5.4803Y-7.9441
X5.4803Y-8.0335
X5.4941Y-2.7451
X5.502Y-3.9099
X5.502Y-4.0209
X5.502Y-4.0969
X5.502Y-4.2323
X5.503Y-3.6309
X5.5039Y-5.8583
X5.5079Y-6.0433
X5.5079Y-6.3346
X5.5118Y-3.8632
X5.5157Y-4.5945
X5.5198Y-8.6365
X5.5315Y-3.5896
X5.5319Y-4.5693
X5.5512Y-6.7047
X5.5522Y-3.9035
X5.5522Y-3.9508
X5.5522Y-4.0217
X5.5522Y-4.0925
X5.5531Y-2.7451
X5.5587Y-5.6024
X5.5598Y-4.5327
X5.562Y-3.6309
X5.5683Y-7.3543
X5.5778Y-8.3356
X5.5833Y-7.2618
X5.5866Y-3.1422
X5.5906Y-3.5896
X5.5906Y-8.9778
X5.6051Y-3.9035
X5.6053Y-4.2579
X5.6063Y-3.6634
X5.6063Y-3.7126
X5.6063Y-3.7618
X5.6082Y-4.2106
X5.6102Y-4.0984
X5.6122Y-2.7451
X5.6142Y-3.6201
X5.6142Y-4.3373
X5.6181Y-8.6614
X5.6256Y-5.2087
X5.6256Y-5.2402
X5.6256Y-5.2717
X5.6256Y-5.3031
X5.6256Y-5.3346
X5.6256Y-5.374
X5.6256Y-5.4134
X5.6256Y-5.4449
X5.6256Y-5.4764
X5.6256Y-5.5079
X5.6256Y-5.5394
X5.6256Y-5.5709
X5.6256Y-5.7047
X5.626Y-6.4301
X5.6299Y-6.0669
X5.6339Y-6.2699
X5.6358Y-5.1467
X5.6358Y-5.1776
X5.6388Y-8.8443
X5.6407Y-8.2559
X5.6457Y-8.8996
X5.6457Y-9.
X5.6496Y-3.5896
X5.6496Y-3.6388
X5.6496Y-3.688
X5.6496Y-3.7372
X5.6496Y-3.7864
X5.6531Y-6.3197
X5.6591Y-7.1516
X5.6621Y-4.5991
X5.6654Y-4.1988
X5.6713Y-2.7451
X5.6722Y-8.2559
X5.689Y-4.6457
X5.6969Y-3.7864
X5.7185Y-4.0571
X5.7185Y-4.128
X5.7189Y-3.9513
X5.7205Y-2.7352
X5.7205Y-4.1661
X5.7323Y-8.6496
X5.7382Y-8.3209
X5.7441Y-3.7864
X5.7503Y-4.4365
X5.7507Y-4.5512
X5.7598Y-2.7156
X5.7756Y-8.4291
X5.7913Y-3.7864
X5.8209Y-5.6378
X5.8209Y-6.0197
X5.8256Y-8.2972
X5.8268Y-8.9606
X5.8287Y-4.1411
X5.8287Y-4.1783
X5.8386Y-3.7864
X5.8701Y-8.8431
X5.8858Y-3.7864
X3.2205Y-5.1748
X3.2441Y-5.1906
T5
X4.6457Y-8.1772
X4.6457Y-8.2165
X4.6457Y-8.2559
X4.6457Y-8.2953
X4.685Y-8.1772
X4.685Y-8.2165
X4.685Y-8.2559
X4.685Y-8.2953
X4.7244Y-8.1772
X4.7244Y-8.2165
X4.7244Y-8.2559
X4.7244Y-8.2953
X4.7638Y-8.1772
X4.7638Y-8.2165
X4.7638Y-8.2559
X4.7638Y-8.2953
X4.2126Y-4.8622
X4.9644Y-6.2569
X4.1594Y-6.7756
X4.1594Y-6.811
X4.1594Y-6.8465
X4.1949Y-6.7756
X4.1949Y-6.811
X4.1949Y-6.8465
X4.2303Y-6.7756
X4.2303Y-6.811
X4.2303Y-6.8465
X4.7648Y-6.0266
X4.8898Y-6.9429
X4.8898Y-6.9744
X4.2535Y-5.301
X4.2535Y-5.364
X4.285Y-5.3325
X4.3165Y-5.301
X4.3165Y-5.364
X2.8701Y-7.7677
X2.8701Y-7.815
X2.8701Y-7.8622
X2.9173Y-7.7677
X2.9173Y-7.815
X2.9173Y-7.8622
X2.9646Y-7.7677
X2.9646Y-7.815
X2.9646Y-7.8622
T6
X2.5108Y-7.311
X2.56Y-7.311
T8
X4.3945Y-4.7717
X4.4732Y-4.7717
X3.564Y-5.3268
X3.6427Y-5.3268
X4.8394Y-6.522
X4.8394Y-6.6008
X4.6299Y-4.7795
X4.6299Y-4.8583
X5.1605Y-5.312
X5.2161Y-5.2563
T9
X4.1378Y-8.8422
X4.2126Y-8.8422
T10
X4.4522Y-8.6146
X4.5022Y-8.7146
X4.5522Y-8.6146
X4.6022Y-8.7146
X4.6522Y-8.6146
X4.7022Y-8.7146
X4.7522Y-8.6146
X4.8022Y-8.7146
X4.8522Y-8.6146
X4.9022Y-8.7146
T11
X4.0947Y-6.2894
X4.1947Y-6.2894
X2.4488Y-4.8622
X2.4488Y-4.9622
X2.4488Y-5.0622
X2.4488Y-5.1622
X2.4488Y-5.2622
X2.4488Y-5.3622
T12
X4.4159Y-9.1248
X4.5159Y-9.1248
X4.8384Y-9.1248
X4.9384Y-9.1248
T13
X5.0984Y-9.3179
X5.2244Y-8.999
X5.3504Y-8.999
X5.4291Y-9.1211
X5.4646Y-9.3179
T14
X4.3703Y-8.8445
X4.9839Y-8.8445
T15
X2.7283Y-7.5
X5.5394Y-7.5
T16
X2.5748Y-9.1772
X5.7874Y-2.628
X5.6929Y-9.1772
T17
X3.1634Y-2.4528
T18
X2.685Y-4.8622
X2.685Y-6.9016
X5.5827Y-4.7913
X5.5827Y-6.9016
T19
X5.Y-3.222
T6
X3.398Y-9.2835G85X3.398Y-9.3071
G05
X3.4122Y-9.0492G85X3.4122Y-9.0728
G05
X3.7374Y-9.0492G85X3.7374Y-9.0728
G05
X3.7516Y-9.2835G85X3.7516Y-9.3071
G05
T7
X3.8415Y-9.124G85X3.8415Y-9.1535
G05
X3.8415Y-9.3012G85X3.8415Y-9.3307
G05
X4.2687Y-9.124G85X4.2687Y-9.1535
G05
X4.2687Y-9.3012G85X4.2687Y-9.3307
G05
T0
M30
