M48
;DRILL file {KiCad 5.0.0} date Tue Aug 14 20:22:11 2018
;FORMAT={-:-/ absolute / inch / decimal}
FMAT,2
INCH,TZ
T1C0.0256
T2C0.0354
T3C0.0394
T4C0.0413
T5C0.0433
T6C0.0453
T7C0.0630
T8C0.0650
T9C0.0709
T10C0.1181
T11C0.1283
%
G90
G05
M72
T1
X3.4331Y-9.0118
T2
X5.8207Y-5.5394
X5.8207Y-5.8071
X5.8207Y-5.9213
X5.8207Y-6.189
X5.8207Y-6.9921
X5.8207Y-7.2598
X5.8207Y-6.3071
X5.8207Y-6.5748
T3
X3.9075Y-9.1703
X4.2028Y-9.1703
T4
X4.1319Y-4.3445
T5
X5.2874Y-9.1211
X5.2874Y-9.3179
T6
X5.4331Y-4.5606
T7
X3.1476Y-4.3445
T8
X4.5669Y-4.5606
T9
X5.4823Y-7.8819
T10
X3.0768Y-7.5
X5.1909Y-7.5
T11
X4.4522Y-8.9646
X4.9022Y-8.9646
T1
X3.7106Y-9.0118G85X3.7224Y-9.0118
G05
T0
M30
